<svg width="101" height="123" viewBox="0 0 101 123" fill="none" xmlns="http://www.w3.org/2000/svg">
<path d="M42.6109 54.2253L44.4122 54.8121L42.6367 40.1625L40.054 42.4459C42.4447 45.8671 43.3923 50.1068 42.6109 54.2253Z" fill="#0245E8"/>
<path d="M38.2671 52.814C38.6048 50.2425 38.0297 47.6404 36.6664 45.4397L31.0009 50.4516L38.2671 52.814Z" fill="#0245E8"/>
<path d="M64.4711 46.4218C61.3434 51.9387 63.4102 58.9009 69.0858 61.9435C70.8202 62.8745 72.7777 63.3669 74.7461 63.3669C79.0307 63.3669 82.9786 61.1021 85.0455 57.4561C88.1737 51.9392 86.1049 44.9756 80.4289 41.9326C78.6945 41.0025 76.737 40.5091 74.7709 40.5091C74.7327 40.5091 74.695 40.5156 74.6549 40.5156L76.9734 51.4946C77.2233 52.6848 76.4342 53.8463 75.2123 54.0897C75.0585 54.1213 74.9042 54.1343 74.7552 54.1343C73.7053 54.1343 72.7624 53.4179 72.5417 52.3782L70.2274 41.3992C67.8176 42.3804 65.7727 44.1254 64.4711 46.4218Z" fill="#0245E8"/>
<path d="M20.9541 61.3525C22.6885 62.2849 24.647 62.775 26.6154 62.775C30.8523 62.775 34.7515 60.5581 36.8355 56.9859L25.9118 53.4333C25.1514 53.187 24.5806 52.565 24.4172 51.8016C24.2524 51.0374 24.5151 50.2472 25.1084 49.7213L33.6299 42.1858C33.2096 41.881 32.7739 41.5929 32.301 41.3425C30.5666 40.4124 28.6082 39.9191 26.6422 39.9191C22.3551 39.9191 18.4082 42.1839 16.3428 45.8318C13.2107 51.3459 15.2805 58.309 20.9541 61.3525Z" fill="#0245E8"/>
<path d="M63.2675 32.1095L46.8455 37.1897L48.6377 52.0744L63.2675 32.1095Z" fill="#0245E8"/>
<path d="M1.81942 62.1525C2.13707 63.0111 4.97725 70.6502 6.94236 73.8809C16.9886 92.4622 30.7658 108.36 47.8958 121.152C48.2067 121.504 48.5922 121.794 49.0326 122.005C49.4205 122.191 49.8403 122.3 50.2674 122.328C50.3787 122.34 50.4938 122.345 50.6051 122.345C51.1711 122.345 51.7438 122.208 52.2669 121.95C52.638 121.768 52.9638 121.516 53.2356 121.217C91.5528 92.6787 99.0186 62.7662 99.2947 61.5974C100.425 57.4008 101 53.2019 101 49.1169C101 22.0337 78.3463 0 50.5005 0C22.6541 0 0 22.0337 0 49.1192C0 53.1336 0.548357 57.2401 1.63218 61.333C1.65749 61.6104 1.71911 61.8859 1.81942 62.1525ZM34.4816 37.4921C35.3987 37.9846 36.2418 38.5579 37.0208 39.1855L41.9857 34.7962L41.4239 30.1624H38.3487C36.9563 30.1624 35.8262 29.0632 35.8262 27.709C35.8262 26.3552 36.9563 25.256 38.3487 25.256H47.9736C49.366 25.256 50.4962 26.3552 50.4962 27.709C50.4962 29.0632 49.366 30.1624 47.9736 30.1624H45.9741L46.2861 32.7511L67.042 26.3301L66.7496 24.9466C64.7616 25.7215 61.9701 26.4904 59.1834 26.1749C57.9415 26.0351 57.0545 24.9424 57.1997 23.7368C57.3425 22.5312 58.4727 21.6685 59.7055 21.807C63.1968 22.1939 67.1623 19.8873 67.2048 19.8641C67.8311 19.491 68.6087 19.4399 69.2827 19.7275C69.9557 20.0137 70.4463 20.5972 70.5977 21.2992L73.7302 36.1527C74.076 36.13 74.419 36.1193 74.7691 36.1193C77.4975 36.1193 80.2111 36.8013 82.6138 38.0882C90.4675 42.3033 93.3321 51.9452 89.003 59.5848C86.1409 64.626 80.6788 67.7614 74.7467 67.7614C72.0182 67.7614 69.3046 67.0803 66.902 65.793C59.0483 61.5788 56.1789 51.9369 60.5128 44.2968C62.4631 40.8589 65.618 38.3102 69.3046 37.034L68.3909 32.6977L48.9189 59.2693C48.9099 59.2833 48.8955 59.2921 48.8865 59.3051C48.8755 59.3214 48.8664 59.3409 48.8521 59.3562C48.7976 59.4236 48.7317 59.4807 48.6706 59.5425C48.6314 59.5806 48.597 59.6247 48.5535 59.6605L48.5516 59.6624C48.5473 59.6666 48.5425 59.6689 48.5382 59.6712C48.4532 59.7404 48.3596 59.8004 48.2664 59.8575C48.2407 59.8738 48.2206 59.8914 48.1962 59.9063C48.1771 59.9151 48.1595 59.9212 48.1403 59.9314C48.095 59.9551 48.0467 59.9713 47.999 59.9908C47.8967 60.0354 47.7917 60.0754 47.6823 60.1037C47.6221 60.12 47.5609 60.133 47.4998 60.1437C47.4473 60.1534 47.3971 60.1711 47.3426 60.1771C47.2557 60.186 47.1688 60.1901 47.0838 60.1901C47.0814 60.1901 47.0795 60.1901 47.0795 60.1901H47.0771C46.9357 60.1901 46.7962 60.1771 46.6615 60.153C46.5803 60.1367 46.4996 60.1107 46.4193 60.0856H46.4174C46.3993 60.0814 46.3806 60.0833 46.363 60.0768L41.1741 58.389C41.0738 58.5873 40.9869 58.789 40.8775 58.9841C38.0139 64.0332 32.5523 67.1681 26.6187 67.1681C23.8903 67.1681 21.1782 66.4852 18.775 65.1997C10.9203 60.986 8.05245 51.3427 12.3858 43.7026C15.2484 38.654 20.7115 35.5186 26.6436 35.5186C29.3667 35.5223 32.0784 36.202 34.4816 37.4921Z" fill="#0245E8"/>
</svg>
