<svg width="240" height="220" viewBox="0 0 240 220" fill="none" xmlns="http://www.w3.org/2000/svg">
<path d="M67.2173 0.413056C67.2608 0.543491 75.2391 0.652186 87.3695 0.695665C103.304 0.739143 107.478 0.695665 107.543 0.478273C107.63 0.282621 103.5 0.217404 87.3913 0.217404C74.9782 0.217404 67.1739 0.30436 67.2173 0.413056Z" fill="black"/>
<path d="M54.3478 8.04347C54.3478 8.19565 60.0434 8.26086 70.9782 8.26086C81.913 8.26086 87.6086 8.19565 87.6086 8.04347C87.6086 7.8913 81.913 7.82608 70.9782 7.82608C60.0434 7.82608 54.3478 7.8913 54.3478 8.04347Z" fill="black"/>
<path d="M66.7391 39.0218V58.5L65.9348 58.3261C64.5869 58.0435 61.5 58.1739 60.1087 58.587C57.9348 59.2174 55.8043 60.3044 55.0652 61.1522C54.6956 61.587 54.1956 62.4783 54 63.1305C53.6739 64.1522 53.6522 64.5 53.8913 65.5C54.0217 66.1522 54.2826 66.8696 54.4348 67.087C54.6956 67.4131 54.6087 67.6522 53.8696 68.8913C51.3696 72.9783 50.0435 73.6739 44.7826 73.6957C40.7609 73.7174 38.7391 74.1087 37.2391 75.1305C32.3043 78.5218 30.7391 84.4565 33.0217 90.9783C33.2826 91.6739 33.4782 92.3044 33.4782 92.3261C33.4782 92.3696 30.3043 92.3913 26.413 92.3913H19.3478V120V147.609L11.4782 147.652C6.39129 147.696 3.58695 147.804 3.58695 147.935C3.58695 148.087 10.2391 148.174 23 148.217C33.6522 148.239 42.3913 148.304 42.3913 148.37C42.3913 148.457 38.1522 155.304 37.8913 155.652C37.8478 155.696 37.5 155.609 37.1087 155.457C33.2174 153.87 30.2174 153.261 26.413 153.261C19.5869 153.261 13.6304 155.63 8.76086 160.261C4.71738 164.13 2.15216 168.804 1.06521 174.239C0.673902 176.196 0.673902 182.044 1.06521 183.804C1.86955 187.457 3.45651 191.174 5.39129 193.913C6.69564 195.804 9.97825 199 11.8478 200.239C20.8043 206.196 31.8043 206.261 40.7174 200.457C43.7609 198.478 47.1087 194.87 48.913 191.696C49.3261 190.935 49.7609 190.435 49.9565 190.435C50.1739 190.435 52.7609 191.065 55.7391 191.848C60.5217 193.087 61.3261 193.239 62.7391 193.174C63.8913 193.109 64.6739 192.935 65.413 192.565C66.4782 192.044 66.5 192.044 67.2609 192.435C68.1739 192.891 68.1956 193 67.6087 194.674C67.3696 195.37 67.2391 196.022 67.3261 196.087C67.4565 196.196 73.2391 198.152 75.3696 198.804C75.5217 198.848 75.7826 198.435 75.9782 197.804C76.1739 197.217 76.413 196.739 76.5 196.739C76.5869 196.739 77.7609 197.13 79.1087 197.609C80.4348 198.087 81.8478 198.478 82.2391 198.478C83.6087 198.478 84.5652 197.283 84.5652 195.609C84.5652 193.674 82.8478 191.674 76.5435 186.196C73.3261 183.391 72.9348 182.913 72.413 181.087C72.0869 179.935 71.913 177.478 72.0652 176.522L72.2174 175.674L73.2391 175.804C74.4782 175.935 75.0869 175.674 75.6522 174.717C76.413 173.478 76.1522 171.957 74.9565 170.739L74.3043 170.044L76.7826 166.826C78.1522 165.044 81.5435 160.609 84.3478 156.957C87.1522 153.304 89.7826 149.87 90.1956 149.304L90.9782 148.283H93.413L95.8478 148.261L96.1739 149.391C96.3478 150.022 96.8043 151.674 97.1739 153.044C97.5435 154.413 97.8913 155.696 97.9565 155.891C98.0217 156.13 97.4782 156.609 96.1739 157.478C90.3261 161.37 86.3696 167.391 84.9782 174.457C84.5869 176.435 84.5869 181.63 84.9782 183.587C86.6087 191.87 91.7609 198.587 99.2391 202.196C101.152 203.109 104.761 204.348 105.543 204.348C105.696 204.348 106.304 205.196 106.913 206.239C110.261 212 115.087 215.978 121.326 218.065C127.696 220.196 134.956 219.696 140.978 216.696C145.239 214.565 149.217 210.826 151.739 206.565C152.261 205.717 152.783 205 152.891 205C153 205 155.413 205.609 158.239 206.348C165 208.13 166 208.196 169.022 206.957C169.587 206.717 169.783 206.739 170.456 207.152L171.261 207.63L170.739 209.087C170.456 209.891 170.304 210.609 170.391 210.674C170.478 210.761 172.261 211.391 174.348 212.065C176.435 212.761 178.261 213.37 178.391 213.413C178.543 213.478 178.804 213.022 179.022 212.391C179.304 211.544 179.478 211.283 179.761 211.37C179.956 211.435 181.239 211.87 182.609 212.348C185.478 213.37 186 213.348 186.956 212.239C187.565 211.544 187.717 211.022 187.609 209.783C187.478 208.196 185.283 205.739 179.087 200.326C175.37 197.087 175.13 196.522 175.174 191.044L175.196 187.413L179.196 182.239C181.37 179.391 186.391 172.87 190.304 167.761C194.239 162.63 197.456 158.478 197.5 158.522C197.543 158.587 200.391 168.413 200.826 170.044L201.043 170.87L199.283 172.022C191.413 177.174 186.783 186.826 187.783 196C188.848 205.783 194.783 213.783 203.696 217.457C206.891 218.783 209.848 219.348 213.456 219.348C220.543 219.348 226.674 216.826 231.609 211.891C233.956 209.544 235.239 207.804 236.587 205.109C238.565 201.13 239.239 198.217 239.217 193.478C239.217 190.261 239.152 189.652 238.609 187.522C237.413 182.87 235.326 179.065 232.087 175.696C228.609 172.087 224.609 169.739 219.652 168.457C217.978 168.022 217.174 167.957 213.587 167.935C209.478 167.935 208.543 168.044 206.022 168.848C205.435 169.022 204.935 169.13 204.891 169.087C204.717 168.913 201.065 156.044 201.152 155.957C201.196 155.891 201.978 156.13 202.848 156.478C203.739 156.848 205.109 157.326 205.913 157.565C206.978 157.87 207.543 158.196 207.956 158.674C209.761 160.848 213.326 160.935 215.565 158.87C216.63 157.891 217.522 156.239 217.739 154.848C217.913 153.696 217.696 153.391 216.261 152.913L215.174 152.565L215.804 151.87C216.674 150.957 217.087 150.239 217.413 149.174L217.674 148.283L220.065 148.217C221.739 148.174 222.5 148.065 222.565 147.87C222.63 147.674 222.043 147.609 220.13 147.609H217.609V146.891C217.609 145.544 216.935 144.087 215.783 142.913C214.043 141.196 213.565 141.087 206.913 141.087H201.304V131.63V122.152L202.848 122.957C204.717 123.913 204.956 123.848 206.717 121.913C207.848 120.674 207.956 120.609 208.717 120.717C209.217 120.783 209.63 120.717 209.761 120.565C209.87 120.435 210.087 119.63 210.217 118.804C210.609 116.37 210.739 116.174 211.717 116.261C212.696 116.37 214.5 115.652 215.239 114.87C215.5 114.587 215.891 114.348 216.109 114.348C216.63 114.348 216.739 113.913 216.739 111.826C216.739 107.587 214.609 104.391 210.37 102.304C208.152 101.217 205 100.283 202.783 100.087L201.304 99.9348V97.4783V95H197.826H194.348L194.304 85.8044L194.239 76.6305H186.239H178.239L178.196 85.7609L178.152 94.8913L175.065 94.9566L171.956 95.0218L171.913 67.2392L171.848 39.4565L164.413 39.3913L156.956 39.3479V30.4348V21.5218H152.5H148.043V30.4348V39.3479H139.891H131.739V47.1739V54.9783L130.174 55.0435L128.587 55.1087L128.565 59.4565L128.522 63.8044L125.457 63.8696L122.391 63.9348V41.7392V19.5652H94.5652H66.7391V39.0218ZM121.913 42L121.957 63.9131H117.174H112.391V61.087V58.2609H108.37H104.348L104.391 64.1739L104.457 70.1087L106.152 70.1739L107.826 70.2392V71.5218V72.8044L106.152 72.8696L104.457 72.9348V75V77.0652L106.152 77.1305L107.826 77.1957V79.7826V82.3913L89.4565 82.4348C77.3913 82.4783 71.0869 82.5652 71.0869 82.7174C71.0869 82.8696 77.3913 82.9565 89.4565 83L107.826 83.0435V85.1087V87.1522L106.152 87.2174L104.457 87.2826L104.391 93.1957L104.348 99.1087L106.022 99.1739L107.717 99.2392V100.544V101.848L106.043 101.913L104.348 101.978V104.022V106.065L106.043 106.13L107.717 106.196V108.804V111.413L102.978 111.478L98.2391 111.522L97.413 110.87C95.9348 109.674 93.8478 109.304 91.5435 109.804C90.4782 110.022 90.3913 110 88.3261 109.022C85.9348 107.891 83.4782 106.5 83.4782 106.239C83.4782 106.152 83.6739 106.087 83.913 106.087C84.3261 106.087 84.3478 105.935 84.3478 104.022V101.957H81.5869H78.8043L77.8696 100.587L76.9348 99.2392L80.6522 99.1739L84.3478 99.1305L84.3043 93.1957L84.2391 87.2826H80.3261H76.413L76.3043 92.5L76.1956 97.7174L75.7174 96.8044C74.7826 95.0652 74.2826 93.587 74.2174 92.2826C74.0869 89.5218 72.1522 85.0652 70.1739 82.9131C69.0435 81.6739 68.6304 80.4783 68.6087 78.2609C68.5869 76.1305 68.8043 75.587 70.4782 73.6522C71.0652 72.9565 71.7174 71.9783 71.9565 71.4783C72.8261 69.4783 72.7174 66.9131 71.6087 64.7174C71.3261 64.1305 71.0869 63.4348 71.0869 63.1739C71.0869 62.1522 68.8043 59.3913 67.6304 59.0218L67.1739 58.8913V39.4348V20L94.5217 20.0435L121.848 20.1087L121.913 42ZM156.478 30.6957L156.522 39.3479H152.5H148.478V30.8044C148.478 26.087 148.543 22.1739 148.63 22.087C148.717 22.0218 150.5 21.9783 152.587 22L156.413 22.0652L156.478 30.6957ZM171.304 67.5V95H163.913H156.522V107.652L156.5 120.326L153.956 121.848C150.848 123.717 151.087 123.609 151.087 123.065C151.087 122.63 150.956 122.609 149.348 122.609H147.609V121.087V119.565H149.348H151.087V114.457V109.348H149.348H147.609V107.826V106.304H149.348H151.087V101.196V96.087H149.348H147.609V94.5652V93.0435H149.348H151.087V87.9348V82.8261H149.348H147.609V81.3044V79.7826H149.348H151.087V74.6739V69.5652H149.348H147.63L147.565 66.7826L147.5 64.0218L141.478 63.9565L135.435 63.9131V59.4565V55H133.804H132.174V47.5V40H151.739H171.304V67.5ZM135 101.63V147.609H132.065H129.13V101.63V55.6522H132.065H135V101.63ZM67.0435 59.3261C68.0652 59.8261 69.9348 61.4565 69.7174 61.6522C69.6739 61.6957 69.2609 61.5652 68.7826 61.3696C67.5869 60.8261 62.6522 60.8479 60.6522 61.3913C58.2609 62.0435 56.2391 62.8044 55.3696 63.3913C54.913 63.6957 54.4565 63.8913 54.3913 63.8044C54.1087 63.5218 55.4782 61.3261 56.2609 60.8261C58.3913 59.4348 61.0652 58.6957 63.8043 58.7609C65.6087 58.8044 66.1522 58.8913 67.0435 59.3261ZM111.913 61.3479L111.978 63.9131H109.891H107.826V66.7392V69.587L106.37 69.5218L104.891 69.4565L104.826 64.3479C104.804 61.5435 104.826 59.1305 104.891 58.9565C104.957 58.7392 105.761 58.6957 108.413 58.7392L111.848 58.8044L111.913 61.3479ZM68.4782 61.8261C69.0217 62.0218 69.6956 62.3696 70 62.6087L70.5435 63.0435L70 63.4783C68.9348 64.3479 65.4782 65.8913 63.3478 66.4348C61.7609 66.8479 60.413 67.0218 58.2391 67.1087C55.2609 67.2392 55.2609 67.2392 54.913 66.6957C54.7174 66.4131 54.5 65.8696 54.4348 65.5C54.3043 64.8696 54.3913 64.7609 55.3478 64.0435C56.5435 63.1957 59.5217 62.1305 62.1087 61.6305C64.1522 61.2609 67.1087 61.3479 68.4782 61.8261ZM128.587 106.022V147.5L118.435 147.565L108.261 147.609V106.109C108.261 78.6305 108.326 64.587 108.478 64.5218C108.587 64.4783 113.174 64.4783 118.63 64.5L128.587 64.5652V106.022ZM146.956 67V69.5652H141.196H135.435V67.1087C135.435 65.7392 135.478 64.587 135.522 64.5435C135.565 64.5 138.174 64.4565 141.283 64.4348H146.956V67ZM67.8913 66.0435C68.0869 66.2609 68.3478 66.9565 68.4782 67.5652C68.5869 68.1957 68.8478 69 69.0435 69.3696C69.3696 70.0218 69.3696 70.0652 68.8261 70.6305C68.4565 71.0218 68.2174 71.5652 68.1304 72.2609C67.9348 73.5435 67.5869 73.9131 66.5217 73.9131C65.4782 73.9131 64.3695 73.0218 63.6956 71.6522C63.2609 70.7174 62.3913 67.9783 62.3913 67.4783C62.3913 67.3479 63.0217 67.0652 63.8043 66.8696C64.5652 66.6739 65.6739 66.3261 66.2391 66.1087C67.5435 65.5652 67.4782 65.5652 67.8913 66.0435ZM63.5652 72.4783C63.8695 73.0218 64.3478 73.6087 64.6087 73.7826L65.0869 74.1305L64.3913 76.2609C64 77.4348 63.6956 78.7174 63.6956 79.087C63.6956 79.8044 64.3478 80.6739 65.0217 80.9131C65.5217 81.087 64.8913 81.6522 63.7609 82.0435C61.7391 82.7392 58.3261 82.3261 56.3696 81.1739C55.1087 80.4348 55.1304 79.9348 56.4782 79.2609C58.6522 78.1522 60.3478 75.7392 60.8913 73L61.1522 71.7392L60.2391 70.7609C59.3261 69.7609 59.1739 69.2174 59.5869 68.4348C59.7826 68.0652 59.9565 68.0218 60.6522 68.1305C61.1956 68.2174 61.5435 68.1739 61.6522 68C61.7391 67.8479 62.0652 68.5435 62.3913 69.6087C62.7174 70.6305 63.2391 71.9348 63.5652 72.4783ZM150.652 74.7826V79.3479H143.043H135.435V74.7826V70.2174H143.043H150.652V74.7826ZM107.826 75V76.5218H106.304H104.783V75V73.4783H106.304H107.826V75ZM193.696 96.2174C193.696 114.283 193.674 115.261 193.326 115.109C191.956 114.544 189.87 113.891 188.37 113.587C187.413 113.391 186.609 113.196 186.543 113.13C186.5 113.087 187.043 113.044 187.783 113.044H189.13V110V106.957H186.196H183.261V109.891V112.826H182.13C181.5 112.826 180.456 112.891 179.848 112.957L178.696 113.109V95.1305V77.1739H186.196H193.696V96.2174ZM55.3478 79.2392C55.0435 79.5218 54.7826 79.8913 54.7826 80.0435C54.7826 80.9783 56.5435 82.1305 58.7174 82.6087C60.5217 83.0218 63.5652 82.8044 64.7391 82.2174C65.8261 81.6305 65.9782 80.9131 65.0869 80.3261C64.7826 80.1305 64.5869 79.9131 64.6522 79.8479C64.8043 79.6739 67.5869 81.2392 68.4782 82.0218C70.5869 83.8261 72.6304 87.2826 73.3478 90.2392C73.8913 92.5 73.8913 92.5652 72.3913 93.2174C71.6739 93.5435 71.0435 93.9566 70.9782 94.1305C70.9348 94.3044 70.1739 97.1957 69.3261 100.544C68.4782 103.891 67.7391 106.674 67.6956 106.717C67.5217 106.891 64.1522 105.565 62.6956 104.739C59.8478 103.13 57.913 100.783 56.913 97.6957C56.1304 95.3261 55.9348 93.9131 56.3696 93.9131C56.5869 93.9131 56.8696 93.4783 57.1304 92.7609C58.3043 89.6087 58.5217 88.8913 58.3913 88.7609C58.1739 88.5218 57.9348 89 57.1522 91.1957C56.7826 92.2609 56.3913 93.2392 56.3043 93.3261C56.2391 93.4131 54.8913 93.3261 53.3478 93.1522C51.8043 92.9566 48.7391 92.6305 46.5217 92.4348L42.5 92.0652L42.5652 91.4131C42.6739 90.3696 44.2826 86.5435 45.3261 84.8913C46.5869 82.8696 48.5435 81.0218 50.2609 80.2174C51.3478 79.7174 53.1304 79.2392 55.8478 78.7174C55.8913 78.6957 55.6739 78.9348 55.3478 79.2392ZM146.956 81.3044V82.8261H141.196H135.435V81.3044V79.7826H141.196H146.956V81.3044ZM150.652 88.0435V92.6087H143.043H135.435V88.0435V83.4783H143.043H150.652V88.0435ZM83.6956 93.2609V98.6957H80.2174H76.7391V93.2609V87.8261H80.2174H83.6956V93.2609ZM107.783 93.1957L107.717 98.587H106.304H104.891L104.826 93.4783C104.804 90.6739 104.826 88.2609 104.87 88.1087C104.957 87.9131 105.457 87.8261 106.413 87.8261H107.826L107.783 93.1957ZM33.9782 93.3044C36.2609 97.087 39 100.109 41.0217 101.087C41.6522 101.391 42.1522 101.761 42.1739 101.913C42.1739 102.065 41.9348 103.152 41.6304 104.304C41.3478 105.457 40.8478 107.826 40.5435 109.565C40.2391 111.304 39.8696 113.326 39.7174 114.087C39.5435 115.065 39.5435 115.565 39.6956 115.826C39.8913 116.109 39.7826 116.522 39.2174 117.63C38.3261 119.391 38.0652 120.544 38.0435 122.522C38.0435 124.174 38.4565 125.826 39.2609 127.435C39.5435 128 39.7826 128.522 39.7826 128.587C39.7826 128.652 39.1087 128.696 38.2826 128.696C37.0652 128.696 36.6522 128.783 36 129.239L35.2174 129.761V128.152V126.522H29.6739H24.1304V131.522V136.522H29.6739H35.2174V135.152V133.783L39.5217 134.87L43.8043 135.978L44.9348 139.283L46.0435 142.587L44.5 145.087L42.9348 147.609H31.3696H19.7826V120.37C19.7826 105.37 19.8478 93.0435 19.9348 92.9783C20 92.8913 23.1304 92.8261 26.8696 92.8261H33.6956L33.9782 93.3044ZM45.4348 94.6305C45.4348 96.9348 46.0217 99.3479 47.1956 101.696C49.6087 106.63 54.7609 109.63 63.3695 111.13C64.8043 111.37 66.0869 111.609 66.2391 111.652C66.413 111.696 66.3478 112.217 66.0217 113.5C65.6087 115.022 65.4348 115.37 64.7609 115.913C63.2609 117.13 60.4565 117.478 57.0652 116.848C55.2391 116.522 53.9782 116.174 50.1522 114.891C46.5652 113.717 43.5217 113.435 42.0652 114.174C41.8261 114.304 41.3261 114.696 40.9565 115.044C40.5 115.457 40.2174 115.609 40.1087 115.457C40.0435 115.326 40.2174 114.022 40.5 112.544C40.8043 111.087 41.2174 108.957 41.413 107.826C41.6304 106.696 42.3696 103.5 43.0652 100.761C43.7826 98 44.5217 95.1087 44.7174 94.2826C44.913 93.4783 45.1522 92.8261 45.2609 92.8261C45.3478 92.8261 45.4348 93.6522 45.4348 94.6305ZM51.7826 93.4783C53.7826 93.7174 55.4782 93.9131 55.5435 93.9131C55.6087 93.9131 55.6522 94.2392 55.6522 94.6305C55.6522 95.0218 55.8478 96.0652 56.1087 96.9566C57.3913 101.587 60.2609 104.587 65.2174 106.5C67.7174 107.478 69.8696 107.826 73.6522 107.913C77.3261 107.978 78.3478 108.217 79.7391 109.261C80.1304 109.587 80.6522 110.13 80.8913 110.522C81.5869 111.652 81.3913 114.13 80.6304 114.13C80.5435 114.13 80.0217 113.739 79.4782 113.283C77.8478 111.87 76.7826 111.609 72.1739 111.457C62.8043 111.13 55.8478 109.326 51.3478 106C49.1087 104.326 47.2391 101.435 46.413 98.3044C46.0435 96.8479 45.7391 93.6957 45.913 93.2174C46.0652 92.8696 46.7609 92.8913 51.7826 93.4783ZM146.956 94.5652V96.087H141.196H135.435V94.5652V93.0435H141.196H146.956V94.5652ZM74.4348 95.2609C75.8261 98.6739 77.6739 101.565 80 103.935C82.3043 106.283 84.413 107.761 87.8261 109.391C90.3043 110.587 90.3695 110.609 92.3261 110.239C93.9348 109.957 95.2826 110.174 96.6956 111C98.2174 111.891 98.5 113.196 97.5 114.696C97.0869 115.348 96.8478 115.348 96.3478 114.739C95.2826 113.413 95.5869 113.5 89.4565 113.044C86.2174 112.804 84.6522 112.565 82.9782 112.022C82.1304 111.761 81.8913 111.565 81.6087 110.913C80.7826 108.891 78.6087 107.609 75.8043 107.435L74.1304 107.326L72.9565 106.087C71.6739 104.696 70.0652 102.348 69.8696 101.587C69.7609 101.152 71.1739 94.8913 71.5 94.3913C71.6304 94.1957 73.2391 93.2826 73.5 93.2609C73.5652 93.2609 73.9782 94.1739 74.4348 95.2609ZM178.087 104.348C178.043 110.696 177.956 112.978 177.761 113.087C177.609 113.174 177.239 113.261 176.913 113.261C175.848 113.261 171.696 114.152 169.217 114.913C166.087 115.848 163.043 117.065 159.826 118.652C158.435 119.326 157.217 119.913 157.13 119.957C157.022 120 156.956 114.544 156.956 107.848V95.6522L167.565 95.6957L178.152 95.7609L178.087 104.348ZM200.87 97.8261V100L199.63 100.587C197.348 101.674 195.913 103.587 195.717 105.891C195.609 107.065 195.63 107.13 196.283 107.63C196.913 108.087 196.956 108.217 196.956 109.435C196.956 110.174 197.109 111.435 197.283 112.261C197.63 113.935 197.543 114.152 196.109 115.522C195.5 116.109 195.391 116.13 194.891 115.87L194.348 115.587V105.609V95.6522H197.609H200.87V97.8261ZM150.609 101.13L150.543 105.761H143.043H135.543L135.478 101.13L135.435 96.5218H143.043H150.652L150.609 101.13ZM206.63 101.413C210.456 102.544 213.478 104.565 214.935 106.978C215.717 108.283 216.37 110.522 216.261 111.565L216.196 112.239L215.478 111.13C213.891 108.652 210.674 106.37 206.565 104.783C203.391 103.544 201.022 102.957 199.196 102.957C198.326 102.935 197.609 102.87 197.609 102.783C197.609 102.522 199 101.457 199.891 101.044C201.087 100.478 203.956 100.63 206.63 101.413ZM70.6304 103.913C71.2174 104.804 72.0652 105.913 72.5 106.348C72.913 106.783 73.2609 107.196 73.2609 107.261C73.2609 107.565 68.6522 107.217 68.3478 106.891C68.2826 106.848 68.5217 105.761 68.8478 104.5C69.1739 103.239 69.4565 102.217 69.4782 102.239C69.5 102.261 70.0217 103.022 70.6304 103.913ZM83.7609 104.022C83.7391 105.544 83.7391 105.544 83.1304 105.609C82.6087 105.652 82.1956 105.391 80.9348 104.239C80.0652 103.435 79.3478 102.696 79.3478 102.587C79.3478 102.457 80.2609 102.391 81.5652 102.435L83.7826 102.5L83.7609 104.022ZM107.717 104.022V105.544H106.304H104.891L104.826 104.261C104.739 102.413 104.761 102.37 106.348 102.435L107.717 102.5V104.022ZM204.13 104.457C208.522 105.87 212.478 108.152 214.174 110.239C214.956 111.196 216.087 113.217 216.087 113.674C216.087 114.065 212.87 113.957 210.478 113.5C206.391 112.696 202.37 111.022 198.587 108.544C196.022 106.848 195.978 106.783 196.283 105.5C196.435 104.913 196.696 104.217 196.891 103.935C197.217 103.435 197.283 103.435 199.435 103.544C201.174 103.63 202.152 103.826 204.13 104.457ZM146.956 107.826V109.348H141.196H135.435V107.826V106.304H141.196H146.956V107.826ZM188.696 110.109V112.63L186.261 112.565L183.804 112.5L183.739 110.044L183.674 107.609H186.196H188.696V110.109ZM150.609 114.391L150.543 119.022H143.043H135.543L135.478 114.391L135.435 109.783H143.043H150.652L150.609 114.391ZM201.5 111.87C201.761 112.196 201.956 112.761 201.956 113.174C201.956 113.696 202.065 113.913 202.283 113.913C202.652 113.913 203.043 113.065 203.043 112.239C203.043 111.804 203.109 111.717 203.435 111.848C204.87 112.478 207.565 113.457 207.826 113.478C208.022 113.478 208.674 114 209.304 114.63L210.435 115.761L210.13 116.739C209.978 117.283 209.783 118.283 209.696 118.957L209.543 120.217H208.609C207.783 120.217 207.587 120.348 206.304 121.63C205.543 122.413 204.717 123.044 204.5 123.044C204.283 123.044 203.435 122.696 202.609 122.261C201.609 121.761 201 121.544 200.783 121.674C200.609 121.761 199.674 122.565 198.696 123.435L196.956 125.044L197.087 123.87C197.239 122.435 196.913 119.87 196.304 118.022L195.826 116.63L196.913 115.478C197.543 114.826 198.196 114.348 198.456 114.348C198.956 114.348 199.348 113.761 199.348 112.978C199.348 112.304 200.13 111.304 200.652 111.304C200.87 111.304 201.261 111.565 201.5 111.87ZM75 112.044C76.6956 112.13 78.0869 112.696 79.2826 113.783C80.6087 114.978 81.5652 114.739 81.8696 113.152C81.9348 112.739 82.0435 112.391 82.0652 112.391C82.1087 112.391 82.9565 112.587 83.9565 112.826C84.9565 113.065 86.7609 113.326 88 113.413C89.2174 113.478 90.2174 113.609 90.2174 113.674C90.2174 113.761 88.913 114.522 87.3478 115.37C85.2609 116.478 84.4348 116.826 84.3913 116.609C84.3261 116.37 83.5869 116.304 80.3043 116.304H76.3043L76.3478 122.217L76.413 128.152H80.3261H84.2391L84.3043 125.152L84.3696 122.174L86.3043 121.196L88.2391 120.217L88.4782 121.152C88.9348 122.826 90.8913 130.109 91 130.457C91.0652 130.696 90.9348 130.848 90.6522 130.935C90.2609 131.044 90.2174 131.217 90.2174 132.565V134.109L89.0869 134.326C88.4565 134.457 87.3043 134.652 86.5217 134.783C85.7391 134.913 84.9348 135.065 84.7391 135.13C84.413 135.239 84.3478 135 84.3043 133.109L84.2391 130.978L80.0869 130.87L75.9348 130.761L73.9782 128.913C72.913 127.891 70.9565 126.13 69.6087 125L67.1739 122.935V117.37V111.783L70.3913 111.87C72.1522 111.935 74.2174 112 75 112.044ZM107.717 114.13V116.196L106.022 116.261L104.348 116.326L104.391 122.217L104.457 128.13L106.087 128.174L107.717 128.217L107.783 129.544L107.848 130.848L106.152 130.913L104.457 130.978V133.044V135.109L106.152 135.174L107.826 135.239V141.413V147.609H103.848H99.8478L99.3695 145.804C99.1087 144.826 98.3478 142.109 97.6956 139.761C97.0435 137.413 96.5217 135.435 96.5217 135.37C96.5217 135.283 96.913 135.217 97.3913 135.217C97.8695 135.217 98.2608 135.152 98.2826 135.044C98.413 134.065 98.4565 132.544 98.3478 131.783L98.2391 130.87H96.7608H95.2826L94.9348 129.63C94.7391 128.957 94.6087 128.348 94.6522 128.304C94.7174 128.261 95.5652 128.217 96.5652 128.196L98.3695 128.152L98.4348 125.109C98.4782 123.435 98.4565 120.783 98.3695 119.196L98.2174 116.326L97.1087 116.261L95.9782 116.174L96.8913 115.783C98.0435 115.283 98.8261 113.891 98.6304 112.696L98.5 111.957L103.109 112L107.717 112.065V114.13ZM188.37 114.087C190.63 114.609 191.696 114.978 193.739 115.913C195.13 116.544 195.239 116.652 195.63 117.696C196.761 120.739 196.826 125 195.783 127.717C194.196 131.804 194.065 132.261 194 134.239L193.956 136.196L189.152 137.435C186.5 138.109 184.304 138.587 184.261 138.522C184.217 138.435 184 137.739 183.783 136.957C183.174 134.761 183.217 130.348 183.87 128.391C184.152 127.587 184.522 126.674 184.717 126.391C185.022 125.913 185.022 125.87 184.696 125.87C184.478 125.87 184.152 126.239 183.913 126.804C183.13 128.565 182.826 130.239 182.826 132.717V135.13L180.717 135.478C177.696 135.978 164.587 138.217 163.326 138.457C162.761 138.565 162.217 138.609 162.152 138.522C161.848 138.196 152.37 124.087 152.261 123.826C152.13 123.5 154.609 121.935 158.5 119.913C164.609 116.717 170.565 114.696 176.456 113.804C179.304 113.37 185.848 113.522 188.37 114.087ZM92.8913 114.087C93.0869 114.283 93.4348 114.913 93.6739 115.435C94.0869 116.326 94.0869 116.435 93.7608 116.674C93.2608 117.044 85.6304 120.935 85.5652 120.826C85.1956 120.283 84.1304 117.761 84.2174 117.674C84.6522 117.239 91.5217 113.739 91.9782 113.717C92.2826 113.717 92.6956 113.87 92.8913 114.087ZM66.7391 118.152C66.7391 120.478 66.6739 122.391 66.5869 122.391C66.4782 122.37 65.3913 121.544 64.1304 120.544L61.8478 118.717L61.0435 120.457C60.6087 121.413 59.8913 122.783 59.4565 123.478C59 124.239 58.7391 124.891 58.8261 125.044C58.913 125.196 60.6304 127.348 62.6522 129.826C64.6522 132.304 66.3043 134.435 66.3043 134.565C66.3043 135.087 65.6956 134.674 64.7826 133.522C64.2391 132.848 62.5 130.696 60.9348 128.739C59.3478 126.761 58.0435 125.044 58.0435 124.913C58.0435 124.761 58.4565 123.913 58.9782 123.022C59.9565 121.261 60.913 119.196 61.2174 118.152C61.3913 117.609 61.5435 117.522 62.2609 117.457C64.1739 117.348 66.3043 115.739 66.3043 114.391C66.3043 114.13 66.413 113.913 66.5217 113.913C66.6522 113.913 66.7391 115.478 66.7391 118.152ZM83.7609 117.065C83.7391 117.174 82.5435 117.913 81.1087 118.674C78.6522 119.978 78.4782 120.109 78.1304 121C77.8478 121.761 77.8261 122.065 78.0435 122.717C78.3696 123.696 79.0435 124.348 79.7609 124.348C80.0435 124.348 81 123.957 81.8696 123.478C82.7391 123 83.5435 122.609 83.6304 122.609C83.7174 122.609 83.7826 123.739 83.7391 125.109L83.6739 127.609H80.1956H76.7391V122.174V116.739L80.2826 116.783C82.4782 116.826 83.7826 116.935 83.7609 117.065ZM97.8261 122.174V127.609H96.0869H94.3695L94.1087 126.674C93.9782 126.174 93.4348 124.196 92.913 122.304C92.3913 120.391 91.9565 118.696 91.9565 118.544C91.9565 118.391 92.6087 117.935 93.4348 117.522C94.6522 116.87 95.1304 116.761 96.3695 116.739H97.8261V122.174ZM107.783 122.239L107.826 127.63L106.37 127.565L104.891 127.5L104.826 122.391C104.804 119.587 104.826 117.152 104.891 117C104.957 116.804 105.391 116.739 106.348 116.783L107.717 116.848L107.783 122.239ZM92.5869 122.978C93.2391 125.348 93.9782 128.109 94.2608 129.13C94.5217 130.152 95.5435 133.804 96.5 137.283C99.7608 149.13 102.13 157.935 102.609 160C103.783 165.022 105.739 169.435 108.826 174.022L110.196 176.109L109.609 176.326C109.283 176.457 108.804 176.739 108.565 176.978L108.087 177.413L107.022 175.935C104.717 172.739 102.413 168.674 101.391 165.913C101.087 165.152 99.5435 159.674 97.913 153.739C94.8695 142.63 94.2608 140.413 93.5 137.609C92.5217 133.957 88.8913 120.739 88.7826 120.391C88.6956 120.109 88.9782 119.848 89.8261 119.37C90.4565 119 91.0869 118.696 91.1956 118.696C91.3261 118.696 91.9348 120.63 92.5869 122.978ZM146.956 121.087V122.609H141.196H135.435V121.087V119.565H141.196H146.956V121.087ZM200.826 131.674L200.761 140.978L200 141.044C199.587 141.087 198.13 141.065 196.761 140.978L194.304 140.826L194.456 136.652C194.587 133 194.674 132.326 195.152 130.978C195.456 130.13 195.956 128.696 196.283 127.761C196.826 126.239 197.043 125.891 198.696 124.239C199.717 123.217 200.609 122.391 200.696 122.391C200.804 122.391 200.848 126.565 200.826 131.674ZM150.652 123.457C150.652 123.696 150.239 124.109 149.63 124.5C146.826 126.239 144 129 142.674 131.239L142.13 132.174H138.783H135.435V127.609V123.044H143.043C150.304 123.044 150.652 123.065 150.652 123.457ZM34.5652 130.044C34.5652 131.761 34.5869 133.63 34.6304 134.239C34.7826 136.239 35.1956 136.087 29.5435 136.087H24.5652V131.522V126.957H29.5652H34.5869L34.5652 130.044ZM41.3696 130.804C42.0217 131.739 43.0652 133.087 43.6739 133.804C45.2609 135.652 44.9782 135.696 39.8696 134.457C35.4348 133.37 35 133.152 35 131.87C35 130.174 36.413 129.152 38.7391 129.13H40.1739L41.3696 130.804ZM77.8696 133.326C79.0652 134.5 80 135.565 79.9348 135.717C79.8696 135.935 70.1522 137.804 69 137.826C68.4565 137.826 66.9782 135.739 67.3043 135.457C67.413 135.37 68.4348 134.587 69.5652 133.739C70.6956 132.891 72.1522 131.652 72.8043 131L73.9782 129.804L74.8478 130.478C75.3261 130.87 76.6739 132.13 77.8696 133.326ZM83.6956 133.044V134.565H81.7826H79.8696L78.3696 133.044L76.8696 131.522H80.2826H83.6956V133.044ZM91.5869 132.544C91.9348 133.717 91.8913 133.913 91.2826 133.913C90.9348 133.913 90.8695 133.761 90.8695 132.717C90.8695 132.065 90.9565 131.522 91.0652 131.522C91.1956 131.522 91.413 131.978 91.5869 132.544ZM97.8261 133.044V134.565H97.0652C96.3478 134.565 96.3043 134.522 95.9565 133.304C95.7608 132.63 95.5435 131.935 95.5 131.783C95.413 131.587 95.7174 131.522 96.6087 131.522H97.8261V133.044ZM107.826 133.044V134.565H106.304H104.783V133.044V131.522H106.304H107.826V133.044ZM141.739 132.87C141.717 132.913 141.543 133.565 141.326 134.348L140.935 135.761H138.239H135.543L135.478 134.283L135.413 132.826H138.587C140.326 132.826 141.739 132.848 141.739 132.87ZM92.4565 135.696C92.6522 136.457 92.7391 137.13 92.6522 137.196C92.5652 137.261 91.2391 137.544 89.6739 137.804C88.1304 138.087 85.8261 138.478 84.5652 138.696C77.6956 139.935 70.9565 141.087 70.7609 141.087C70.3913 141.087 68.8913 138.478 69.1956 138.37C69.4348 138.304 76.7391 137.022 87.2826 135.196C89.3261 134.848 91.0869 134.522 91.1956 134.457C91.9348 134.174 92.1304 134.391 92.4565 135.696ZM83.3696 135.326C83.2609 135.37 82.6304 135.5 82.0217 135.609C81.1304 135.761 80.8261 135.739 80.6304 135.522C80.413 135.261 80.6522 135.217 81.9782 135.239C82.8696 135.239 83.5 135.283 83.3696 135.326ZM46.9782 137.326C48.3478 138.761 48.6739 139.239 49.0217 140.391L49.4565 141.783L50.5 141.63C51.5 141.5 51.5652 141.544 52.9348 142.652C53.6956 143.283 54.3261 143.87 54.3261 143.935C54.3478 144.022 53.5652 144.196 52.5869 144.348C51.6304 144.5 50.7826 144.739 50.7391 144.891C50.6739 145.044 53.2174 152.913 56.3913 162.391C59.5652 171.87 62.1739 179.652 62.1739 179.674C62.1739 179.717 61.8043 179.804 61.3695 179.891C60.913 179.978 60.2826 180.174 59.9565 180.348C59.4565 180.609 59.3261 180.609 59.2391 180.391C59.1739 180.239 56.6304 172.587 53.5652 163.413C50.1522 153.152 47.913 146.739 47.7609 146.804C47.6304 146.848 43.2174 153.761 37.9565 162.152C28.6087 177.087 28.413 177.457 28.7174 178C28.9782 178.478 29.3043 178.63 30.8696 178.957C31.8913 179.152 37.9782 180.391 44.413 181.717C50.8478 183.022 56.1522 184.13 56.1956 184.174C56.2174 184.217 56.1522 184.848 56.0217 185.587C55.8696 186.457 55.6739 186.957 55.5 186.957C55.3478 186.957 54.0652 186.717 52.6739 186.413C51.2609 186.13 44.8261 184.804 38.3696 183.478C31.913 182.174 26.2609 180.978 25.8261 180.87C24.8696 180.609 24.3478 179.935 24.3478 179.022C24.3478 178.5 27 174.087 35.4348 160.587C41.5435 150.826 46.5217 142.717 46.5217 142.544C46.5217 142.391 46.0435 140.826 45.4565 139.087C44.8696 137.326 44.4348 135.848 44.5217 135.783C44.8696 135.413 45.5217 135.826 46.9782 137.326ZM183.37 137.326C183.717 138.696 183.891 139.044 184.261 139.087C184.609 139.13 184.783 139.457 185.109 140.717C185.609 142.696 186.348 145 186.935 146.457L187.391 147.609H183.043H178.696V141.978V136.348L180.391 136.022C183.087 135.5 182.891 135.413 183.37 137.326ZM68.8696 139.413C69.9348 141.109 71.1956 143.239 71.6522 144.13L72.5 145.739L72.5652 149.544C72.6087 151.761 72.413 157.978 72.0869 164.261C71.3913 177.717 71.3696 179.196 71.9782 181.196C72.6304 183.413 72.6304 183.478 71.6739 183.848C70.3261 184.391 69.4782 184.087 67.7826 182.457L66.3043 181.022V178.935C66.2826 175.13 65.5217 170.804 64.4782 168.739C64.1956 168.174 63.6956 167 63.3913 166.109C61.413 160.587 60.9348 155.587 61.8695 149.652L62 148.739L60.6304 147.804C57.8913 145.957 54.0869 143 54.2826 142.848C54.3696 142.761 55.4348 142.326 56.6304 141.87C59.6522 140.717 64.0217 138.435 65.4348 137.304C66.0869 136.761 66.6956 136.326 66.7826 136.326C66.8478 136.304 67.8043 137.696 68.8696 139.413ZM141.043 138.087C141.217 139.261 141.565 140.435 142.065 141.478C142.478 142.37 142.826 143.13 142.826 143.174C142.826 143.217 142.13 143.261 141.283 143.261C139.5 143.261 138.478 143.739 137.935 144.804C137.63 145.37 137.5 145.435 136.522 145.435H135.435V140.87V136.304H138.109H140.783L141.043 138.087ZM178.217 141.63C178.261 144.37 178.217 146.848 178.152 147.109C178.043 147.609 178 147.609 174.435 147.609H170.848L169.609 146.239C168.935 145.5 167.109 143.609 165.565 142.022C163.717 140.13 162.87 139.109 163.065 139.044C163.239 138.978 166.065 138.478 169.348 137.935C172.63 137.37 175.761 136.826 176.304 136.739C178.304 136.391 178.152 135.978 178.217 141.63ZM193.261 137.978C193.261 139.457 193.652 141.717 194.065 142.565C195.304 145.196 200.565 149 206.891 151.848L209.456 153L212.609 153.109C214.348 153.152 216.087 153.326 216.478 153.478C217.109 153.717 217.174 153.826 217.174 154.587C217.174 156.304 215.674 158.544 214.022 159.326C212.87 159.87 211 159.935 209.891 159.457C209.456 159.283 208.804 158.804 208.391 158.348C207.826 157.717 207.239 157.435 205.522 156.87C199.761 154.978 192.543 151.413 189.37 148.913C188.522 148.239 188.043 147.652 187.587 146.652C187 145.37 185.087 139.174 185.239 139.022C185.348 138.935 192.609 137 193 136.978C193.174 136.957 193.261 137.304 193.261 137.978ZM93.0435 138.152C93.0435 138.326 91.5 140.522 89.6304 143.044L86.1956 147.587H82.3478L78.5 147.609L79.413 146.13C80.4782 144.391 81.7391 141.435 81.7391 140.63C81.7391 140.304 81.8696 139.957 82.0217 139.826C82.1522 139.717 84.0869 139.304 86.3043 138.913C88.5217 138.544 90.7174 138.152 91.1956 138.044C92.5869 137.761 93.0435 137.804 93.0435 138.152ZM93.8913 140.978C94.1739 141.978 94.3478 142.913 94.3043 143C94.1739 143.348 72.3261 171.739 72.2609 171.674C72.2174 171.63 72.2609 170.435 72.3478 169L72.5217 166.413L80.1087 156.413C84.3043 150.913 88.9348 144.783 90.4348 142.783C91.9348 140.783 93.2174 139.152 93.2826 139.152C93.3478 139.13 93.6304 139.957 93.8913 140.978ZM50.3261 140.435C50.8043 140.935 50.8696 141.087 50.5869 141.087C50.3913 141.087 50.1522 141.087 50.0652 141.109C49.9565 141.109 49.7609 140.826 49.6087 140.457C49.2826 139.609 49.5217 139.609 50.3261 140.435ZM81.3043 140.174C81.3043 141.522 79.4565 145.304 77.3696 148.174C75.9348 150.152 73.5217 153.109 73.2609 153.217C73.1522 153.261 73.0435 151.5 73 149.304L72.9348 145.326L71.9782 143.544C71.4348 142.544 71.0435 141.717 71.1087 141.674C71.1522 141.63 73.3043 141.217 75.8696 140.783C78.4348 140.326 80.6522 139.935 80.7609 139.891C81.2174 139.739 81.3043 139.783 81.3043 140.174ZM213.326 141.957C216.326 143.087 217.891 146.435 216.761 149.348C216.261 150.63 215.935 151.109 214.87 151.957C214.239 152.5 214.087 152.522 211.804 152.478C210.413 152.457 209.196 152.326 208.913 152.174L208.413 151.913L209.043 151.522C209.391 151.304 210.391 150.739 211.239 150.239C213 149.239 213.478 148.565 213.478 147.174C213.478 146.087 213 145.196 212.174 144.696C211.63 144.391 210.609 144.348 203.87 144.348C198.043 144.348 196.087 144.283 195.826 144.065C195.348 143.696 194.348 142.174 194.348 141.826C194.348 141.565 195.891 141.522 203.261 141.522C211.652 141.522 212.217 141.544 213.326 141.957ZM95.0435 145.174C95.2608 145.978 95.4782 146.848 95.5652 147.109C95.6956 147.609 95.6739 147.609 93.6087 147.609H91.5L92.9782 145.652C93.7826 144.587 94.5 143.717 94.5652 143.717C94.6304 143.696 94.8478 144.348 95.0435 145.174ZM144 144.826C144.413 145.457 145.435 146.804 146.283 147.826C147.674 149.5 147.783 149.674 147.391 149.826C146.804 150.044 139.043 148.109 138.413 147.609C137.848 147.152 137.826 145.913 138.37 145.087C139.022 144.087 139.956 143.696 141.674 143.696H143.239L144 144.826ZM57.2391 146.044C58.2826 146.826 59.1304 147.5 59.1304 147.544C59.1304 147.565 57.5217 147.609 55.5652 147.609H51.9782L51.6087 146.413C51.3913 145.761 51.2609 145.196 51.3261 145.152C51.5217 144.978 54.913 144.435 55.1087 144.544C55.2391 144.587 56.1739 145.283 57.2391 146.044ZM197.391 145.109C197.391 145.283 197.304 145.435 197.196 145.435C197.087 145.435 196.891 145.283 196.739 145.109C196.522 144.826 196.543 144.783 196.935 144.783C197.196 144.783 197.391 144.913 197.391 145.109ZM200.87 146.196C200.87 147.87 200.696 147.957 199.239 146.957C198.478 146.435 197.826 145.457 197.826 144.87C197.826 144.826 198.522 144.783 199.348 144.783H200.87V146.196ZM211.609 145C212.261 145.239 213.043 146.413 213.043 147.109V147.609H207.174H201.304V146.196V144.783H206.174C208.87 144.783 211.304 144.87 211.609 145ZM137.391 146.5C137.391 146.739 137.456 147.065 137.522 147.261C137.63 147.544 137.478 147.609 136.543 147.609H135.435V146.848C135.435 146.087 135.435 146.087 136.413 146.087C137.239 146.087 137.391 146.152 137.391 146.5ZM51.0869 157.609L54.1956 166.935L53.913 168.826C53.6304 170.587 53.6522 170.761 54.0435 171.5C54.3043 172 54.7826 172.435 55.3696 172.717C56.2609 173.13 56.3261 173.217 56.9782 175.217C57.3696 176.348 57.7174 177.413 57.7826 177.587C57.8696 177.804 57.7609 177.826 57.3696 177.717C57.0869 177.609 55.8261 177.283 54.5869 176.957C53.3478 176.609 52.2609 176.239 52.1739 176.087C52.0869 175.935 51.9348 175.304 51.8696 174.696C51.5 171.913 49.7174 167.348 48.0217 164.826C46.2826 162.261 43.8043 159.63 41.6956 158.174C41.2826 157.87 41.3696 157.696 44.2609 153.065C46.0869 150.152 47.413 148.261 47.6087 148.261C47.8696 148.261 48.7391 150.63 51.0869 157.609ZM60.8913 148.63C61.3913 148.935 61.5217 149.13 61.4348 149.478C61.1522 150.609 60.8695 153.087 60.8695 154.674V156.413L58.913 159.435C57.7609 161.196 56.913 162.326 56.8478 162.152C56.7826 161.978 55.7174 158.783 54.4782 155.044L52.2174 148.261H56.2391C59.6739 148.261 60.3478 148.326 60.8913 148.63ZM84.6304 149.609C84.0435 150.37 81.6956 153.413 79.4565 156.413C73.3043 164.544 72.7609 165.239 72.6522 165.109C72.5869 165.065 72.6739 162.63 72.8261 159.696L73.1087 154.391L75.1522 151.913C76.2826 150.565 77.3696 149.196 77.5652 148.848L77.913 148.261H81.8043H85.6956L84.6304 149.609ZM142.37 149.37L146.87 150.5L147.978 153.804L149.065 157.109L145.109 163.457C142.913 166.957 141.043 169.913 140.913 170.044C140.761 170.196 140.13 170.044 138.978 169.587C138.043 169.217 136.5 168.717 135.543 168.478C134.587 168.239 133.783 167.957 133.739 167.848C133.456 167 131.174 163.587 129.913 162.13C126.413 158.065 121.739 155.217 116.348 153.848C114.717 153.435 113.87 153.37 110.326 153.391C106.152 153.391 105.804 153.435 102.261 154.457C101.826 154.587 101.739 154.413 101.087 152.044C100.696 150.652 100.304 149.217 100.217 148.87L100.022 148.261H118.935H137.848L142.37 149.37ZM188.413 148.804C188.739 149.087 188.956 149.37 188.913 149.413C188.848 149.457 187.239 149.761 185.326 150.087C183.413 150.413 180.239 150.978 178.283 151.326C176.326 151.674 174.652 151.957 174.565 151.957C174.413 151.957 172.043 149.152 171.652 148.522C171.522 148.326 173.196 148.261 179.674 148.261H187.848L188.413 148.804ZM212.456 148.717C212.196 148.978 211.043 149.761 209.87 150.435L207.739 151.696L205.435 150.544C204.174 149.913 202.717 149.13 202.174 148.826L201.196 148.261H207.065H212.913L212.456 148.717ZM172.283 150.217C173.087 151.196 173.696 152.022 173.652 152.065C173.587 152.13 173.109 152.239 172.587 152.304L171.609 152.435L170.696 151.044C170.196 150.283 169.783 149.565 169.783 149.457C169.783 149.217 170.456 148.478 170.674 148.478C170.761 148.478 171.478 149.261 172.283 150.217ZM191.478 150.957C192.478 151.609 193.217 152.174 193.109 152.239C193.022 152.283 192.5 152.413 191.956 152.5C191.413 152.587 187.152 153.326 182.478 154.152C177.804 154.978 173.891 155.652 173.783 155.652C173.435 155.652 171.935 153.044 172.239 152.935C172.435 152.87 188.739 149.935 189.565 149.804C189.63 149.804 190.478 150.326 191.478 150.957ZM150.022 151.891C151.413 153.348 151.717 153.783 152.065 154.957L152.478 156.326L153.5 156.196C154.522 156.044 154.587 156.065 155.956 157.217C156.739 157.848 157.37 158.435 157.37 158.5C157.391 158.565 156.565 158.739 155.543 158.891C154.065 159.13 153.696 159.239 153.696 159.544C153.696 159.826 164.435 192.174 165.109 193.935C165.196 194.152 164.848 194.348 163.804 194.696C163 194.935 162.348 195.087 162.304 195.022C162.261 194.957 159.717 187.326 156.63 178.087C153.522 168.739 150.935 161.304 150.783 161.304C150.543 161.326 132 190.87 131.63 191.848C131.283 192.783 131.935 193.174 135 193.783C147.935 196.413 159.217 198.717 159.239 198.761C159.261 198.783 159.174 199.457 159.065 200.239L158.826 201.674L154.37 200.761C151.913 200.239 148.63 199.565 147.065 199.239C145.522 198.935 141.152 198.044 137.391 197.261C133.63 196.478 130.065 195.761 129.456 195.63C128.087 195.37 127.304 194.63 127.304 193.652C127.304 193.087 129.696 189.13 138.435 175.13C144.565 165.348 149.565 157.239 149.565 157.152C149.565 157.044 149.087 155.522 148.5 153.761C147.913 152 147.478 150.478 147.522 150.391C147.826 149.935 148.543 150.37 150.022 151.891ZM172.109 154.239C173.217 156.044 174.456 158.13 174.848 158.913C175.543 160.304 175.543 160.37 175.63 163.891C175.696 167.391 175.565 170.826 174.87 183.913C174.456 191.565 174.543 194.783 175.196 196.609C175.435 197.304 175.587 197.957 175.543 198.044C175.326 198.413 173.848 198.739 173.087 198.609C172.5 198.522 171.935 198.13 170.826 197.022L169.348 195.565V193.739C169.348 189.457 168.696 186.087 167.174 182.5C166.065 179.957 165.326 177.478 164.87 174.913C164.413 172.435 164.37 167.217 164.783 165.022C165.065 163.478 165.065 163.413 164.63 163.065C164.37 162.87 162.913 161.804 161.37 160.696C159.848 159.587 158.239 158.413 157.826 158.065L157.065 157.435L157.609 157.196C157.913 157.087 159.174 156.565 160.435 156.087C163.435 154.913 166.5 153.283 168.261 151.957C169.043 151.391 169.761 150.935 169.87 150.957C169.978 150.978 170.978 152.457 172.109 154.239ZM195.326 153.109C196.261 153.63 196.696 154.63 195.913 154.413C195.565 154.326 193.696 156.652 185.63 167.196C177.065 178.37 175.761 179.978 175.696 179.457C175.652 179.13 175.717 177.022 175.848 174.804C175.978 172.565 176.087 168.674 176.087 166.152C176.087 161.978 176.13 161.435 176.543 160.391C177.022 159.152 177.174 157.5 176.891 156.391L176.717 155.717L178.522 155.37C179.522 155.174 181.543 154.826 183.043 154.565C184.543 154.304 187.522 153.761 189.674 153.37C191.826 152.978 193.783 152.652 194.022 152.63C194.261 152.63 194.848 152.848 195.326 153.109ZM198.739 154.761L200.391 155.5L202.391 162.478C205.217 172.348 205.152 172.109 205.674 174.478C206.609 178.804 208.891 184.065 211.696 188.304L213.239 190.63L212.478 191C212.043 191.217 211.652 191.5 211.587 191.674C211.522 191.826 211.391 191.957 211.283 191.957C211 191.957 208.174 187.783 206.848 185.435C204.87 181.891 204.217 180.022 200.739 167.826C198.891 161.304 197.217 155.5 197.065 154.935C196.891 154.348 196.826 153.913 196.913 153.957C197.022 154 197.826 154.348 198.739 154.761ZM153.348 154.978C153.913 155.565 153.935 155.609 153.478 155.717C153.152 155.804 152.956 155.674 152.717 155.217C152.152 154.13 152.435 154.022 153.348 154.978ZM196.37 155.391C196.565 155.609 196.87 156.239 197.022 156.761L197.326 157.739L190.13 167.109C186.174 172.261 181.239 178.696 179.174 181.413C177.087 184.109 175.348 186.304 175.304 186.261C175.261 186.196 175.304 185.044 175.391 183.674L175.543 181.196L180.978 174.13C183.956 170.239 187.087 166.174 187.913 165.065C188.761 163.978 190.152 162.174 191.022 161.044C194.956 155.913 195.674 155 195.848 155C195.935 155 196.174 155.174 196.37 155.391ZM29.2609 156.087C31.2609 156.348 32.8478 156.717 34.5652 157.37C36.4348 158.087 36.4348 158.087 35.7609 159.087L35.1956 159.957L33.913 159.457C24.0652 155.587 12.3913 160.152 7.71738 169.674C2.58695 180.152 6.84782 192.674 17.2826 197.717C24.1739 201.065 32.4348 200.413 38.5869 196C40.3043 194.783 42.8478 192.109 43.8043 190.544L44.6739 189.109L45.5217 189.239C47.0652 189.457 47.0869 189.522 45.6739 191.63C42.3043 196.739 36.7174 200.522 30.8913 201.609C28.8043 202 24.3913 202.065 22.4782 201.717C17.7826 200.891 13.1956 198.435 9.84781 194.935C6.54347 191.478 4.69564 187.891 3.6739 182.935C3.30434 181.174 3.36955 176.565 3.76086 174.565C6.15216 162.674 17.3261 154.587 29.2609 156.087ZM115.674 156.5C120.043 157.63 123.652 159.674 126.761 162.804C128.413 164.478 130.435 167.13 130.435 167.63C130.435 167.739 129.913 167.826 129.283 167.826C128.152 167.826 128.109 167.804 127.391 166.783C124.674 162.978 120.326 160 115.674 158.739C113.87 158.261 113.152 158.196 110.326 158.196C107.63 158.196 106.761 158.283 105.326 158.674C102.891 159.37 102.978 159.37 102.739 158.304C102.63 157.804 102.587 157.326 102.652 157.261C102.848 157.065 105.739 156.304 107.087 156.087C109.043 155.783 113.739 156 115.674 156.5ZM176.304 156.283C176.587 156.826 176.587 158.674 176.283 159.5L176.065 160.174L175.022 158.174L174 156.196L174.543 156.065C175.587 155.804 176.065 155.87 176.304 156.283ZM61.1739 159.065C61.2391 159.891 61.5435 161.5 61.8261 162.674L62.3478 164.804L61.8261 165.13C60.3478 166.109 57.8913 165.478 57.4348 163.978C57.3043 163.544 57.2609 163.087 57.3261 162.957C58.2609 161.348 60.7174 157.609 60.8478 157.609C60.9565 157.609 61.0869 158.261 61.1739 159.065ZM30.1087 158.935C31.7174 159.217 34.7826 160.217 34.7826 160.457C34.7826 160.544 32.913 163.609 30.6304 167.283C27.3913 172.457 26.3913 173.913 26.0435 173.913C25.1956 173.913 23.9348 174.413 23.1522 175.044C21.9348 176.065 21.4348 177.239 21.4348 179.022C21.4348 180.674 21.7174 181.435 22.7391 182.478C23.9565 183.696 24.0652 183.717 41.5217 188.152C42.7826 188.478 43.8913 188.826 44 188.913C44.2826 189.196 42.6522 191.478 40.8696 193.283C38.2609 195.935 35.1304 197.739 31.4782 198.739C29.0435 199.413 23.9565 199.457 21.6304 198.826C13.8478 196.739 8.06521 190.717 6.47825 183.065C5.86955 180.152 6.02173 176.152 6.84782 173.37C7.86955 169.87 9.93477 166.544 12.5869 164.065C14.3696 162.413 15.5217 161.652 17.8913 160.544C21.8696 158.652 25.6522 158.174 30.1087 158.935ZM112.5 158.696C117.717 159.304 122.717 161.957 125.891 165.783C127.609 167.848 127.587 167.761 126.152 167.935C122.37 168.37 117.587 170.196 114.804 172.261C114.391 172.565 114.022 172.783 113.978 172.761C113.957 172.717 115.087 170.457 116.5 167.696C118.826 163.217 119.283 162.13 118.696 162.5C118.435 162.652 113.261 172.739 113.261 173.087C113.261 173.5 110.652 175.761 110.457 175.522C107.522 171.544 104.696 165.87 103.5 161.565C103.109 160.109 103.087 159.978 103.435 159.804C104.087 159.457 106.457 158.913 108.087 158.717C110.348 158.457 110.348 158.457 112.5 158.696ZM159.935 160.348C160.978 161.13 161.978 161.848 162.152 161.957C162.435 162.109 162.391 162.261 161.891 163.022C160.87 164.565 157.348 168.522 157.174 168.326C156.935 168.065 154.239 159.826 154.37 159.696C154.413 159.63 155.239 159.457 156.196 159.283C157.152 159.109 157.956 158.957 157.978 158.935C158.022 158.935 158.891 159.565 159.935 160.348ZM99.1087 160.087C99.2391 160.63 99.3478 161.109 99.3478 161.152C99.3478 161.196 98.9348 161.522 98.4348 161.848C97.0869 162.739 94.4348 165.348 93.3695 166.848C91.5652 169.391 90.2609 172.544 89.7826 175.5C89.3913 177.848 89.6087 182.283 90.1956 184.435C91.8913 190.587 96.5 195.848 102.326 198.261C103.261 198.652 104.043 199 104.087 199.022C104.261 199.174 104.717 201.304 104.587 201.304C104.065 201.304 101.391 200.261 99.8913 199.5C88.0435 193.348 83.8043 178.696 90.5652 167.174C91.5 165.587 93.4782 163.174 94.9348 161.87C96.0435 160.87 98.4348 159.13 98.6956 159.13C98.7826 159.13 98.9782 159.565 99.1087 160.087ZM42.8478 162.826C43.7391 163.717 44.913 165.087 45.413 165.848C47.4348 168.826 49.1087 173.283 49.3913 176.5L49.5 177.652L48.5435 177.522C47.2826 177.348 47.1739 177.283 47.1739 176.457C47.1739 174.913 46.1956 171.717 45.0869 169.5C43.8261 167.022 41.3043 163.957 39.2826 162.435L38.6739 161.978L39.2609 161.109L39.8261 160.217L40.5217 160.696C40.8913 160.957 41.9348 161.913 42.8478 162.826ZM99.913 162.978C101.022 166.978 102.652 170.348 105.674 174.87C107.087 177 107.826 178.304 107.826 178.696C107.826 179.022 107.435 179.957 106.957 180.783C104.413 185.217 103.196 190.87 103.696 195.826C103.826 197.087 103.87 198.152 103.804 198.217C103.565 198.478 99.1739 196.065 97.6087 194.804C94.4348 192.283 91.6522 187.978 90.6304 184.022C90.0652 181.826 89.8478 177.978 90.1956 175.957C90.8261 172.239 92.6739 168.304 95.0869 165.522C95.9782 164.5 99.1739 161.739 99.4565 161.739C99.5217 161.739 99.7174 162.304 99.913 162.978ZM152.435 167.174C153.565 170.587 153.956 172.044 153.804 172.261C153.674 172.435 152.652 173.587 151.522 174.848L149.456 177.152L148.435 176.087C147.456 175.022 146.152 173.848 144.913 172.891L144.304 172.391L147.413 167.391C149.13 164.652 150.609 162.391 150.696 162.391C150.761 162.391 151.543 164.544 152.435 167.174ZM40.4565 164.283C43.8043 167.5 46.0217 171.717 46.6522 176.13C46.7826 177.065 46.7391 177.174 46.3478 177.174C46.1304 177.174 42.8043 176.739 39 176.196C34.6087 175.587 32 175.304 31.8696 175.435C31.5652 175.739 31.5869 175.739 39.1304 176.761C42.8913 177.261 46.2174 177.761 46.4782 177.87C46.9782 178.044 46.9782 178.109 46.8478 179.739C46.7609 180.652 46.6522 181.457 46.5869 181.5C46.5217 181.587 42.6087 180.826 33.4782 178.957L31.6522 178.587L31.3043 177.609C31.1087 177.065 30.7826 176.391 30.5869 176.087C30.2174 175.522 30.2391 175.5 34.2826 169.065C36.5 165.522 38.413 162.609 38.5 162.609C38.6087 162.609 39.4782 163.37 40.4565 164.283ZM163.804 163.087C164.261 163.391 164.522 163.717 164.456 163.913C164.13 165 163.891 167.891 163.935 170.37L164 173.239L161.978 174.804C160.87 175.652 159.891 176.283 159.804 176.174C159.696 176.065 159.13 174.478 158.522 172.63L157.413 169.283L159.196 167.196C160.196 166.044 161.435 164.544 161.935 163.848C162.456 163.174 162.913 162.609 162.956 162.609C163.022 162.609 163.391 162.826 163.804 163.087ZM63.6522 168.152C64.7826 170.891 64.9565 171.522 64.5652 171.522C64.0217 171.522 59.8913 170.63 59.7609 170.5C59.5217 170.261 58.0217 165.804 58.1304 165.696C58.1739 165.652 58.413 165.717 58.6522 165.848C59.2826 166.174 61.0869 166.13 61.7391 165.783C62.0435 165.609 62.3261 165.478 62.3913 165.457C62.4565 165.435 63.0217 166.652 63.6522 168.152ZM54.8913 169.522C54.6522 169.761 54.3043 169.152 54.4565 168.761C54.5869 168.413 54.6304 168.413 54.8043 168.891C54.913 169.174 54.9565 169.457 54.8913 169.522ZM55.1304 170.174C55.4348 170.37 55.9348 171.87 55.8261 172.217C55.6956 172.609 54.3913 171.283 54.2174 170.587C54.1087 170.109 54.1522 170 54.4782 170C54.7174 170 55 170.087 55.1304 170.174ZM135 171.152C136.13 171.457 137.565 171.913 138.196 172.196L139.326 172.717L138.783 173.609L138.261 174.5L136.13 173.783C122.109 169.022 107.717 179.935 108.543 194.739C108.717 197.783 109.326 200.022 110.761 202.935C117.109 215.717 134.174 218.457 144.261 208.283C145.087 207.457 146.196 206.087 146.739 205.239C147.283 204.413 147.87 203.717 148.043 203.717C148.217 203.717 148.739 203.848 149.217 203.978L150.043 204.239L148.717 206.217C145.761 210.652 141.478 213.935 136.63 215.5C133.739 216.435 132.456 216.609 129.13 216.587C125.174 216.565 122.761 216 119.239 214.261C112.978 211.174 108.739 205.87 106.913 198.848C106.522 197.413 106.435 196.435 106.435 193.696C106.413 190.261 106.587 189 107.435 186.435C110.065 178.391 117.152 172.239 125.522 170.761C128.152 170.304 132.391 170.478 135 171.152ZM218.804 171.065C223.478 172.239 226.87 174.239 230.283 177.826C233.152 180.848 234.891 183.978 236 188.152C236.326 189.37 236.413 190.435 236.413 193.587C236.413 198.283 236.065 199.848 234.261 203.587C232.87 206.391 231.543 208.217 229.304 210.348C226.304 213.196 223.283 214.848 218.978 216.022C217.109 216.522 216.435 216.609 213.587 216.609C210 216.609 208.065 216.261 204.848 215.022C199.543 212.957 194.435 207.891 192.174 202.457C190.783 199.152 190.565 197.891 190.565 193.478C190.587 189.717 190.609 189.326 191.174 187.5C192.37 183.587 194.152 180.435 196.717 177.739C198.043 176.348 201.326 173.696 201.739 173.696C201.978 173.696 202.456 175.696 202.239 175.87C202.152 175.935 201.522 176.413 200.848 176.913C196.609 180.087 193.674 184.978 192.826 190.283C192.478 192.391 192.652 196.783 193.174 198.696C194.065 202.044 195.826 205.283 198.152 207.783C204.348 214.478 214.13 216.391 222.348 212.5C225.043 211.217 226.739 209.978 228.783 207.804C231.478 204.957 233.239 201.5 234.022 197.63C234.587 194.913 234.391 190.348 233.609 187.761C231.413 180.413 225.674 175 218.087 173.109C217.043 172.848 215.739 172.739 213.37 172.761C210.565 172.761 209.826 172.848 208.152 173.326C207.087 173.63 206.152 173.848 206.13 173.804C206.087 173.761 205.956 173.304 205.848 172.804C205.696 172.152 205.696 171.848 205.891 171.739C206.152 171.565 209.652 170.739 210.761 170.565C212.261 170.348 217.109 170.652 218.804 171.065ZM74.8913 171.457C75.1956 171.913 75.4348 172.435 75.4348 172.609C75.4348 172.957 74.913 172.978 73.1087 172.696L72.3913 172.587L73.1087 171.63C73.4782 171.109 73.913 170.674 74.0652 170.652C74.2174 170.652 74.5869 171.022 74.8913 171.457ZM62.3913 171.652C63.413 171.826 64.4565 172.022 64.6956 172.087C65.0652 172.152 65.1956 172.391 65.3043 173.174C65.3696 173.739 65.3913 174.239 65.3478 174.283C65.2609 174.37 61.8261 173.783 61.0435 173.565C60.7391 173.478 60 172.044 60 171.522C60 171.239 60.2174 171.239 62.3913 171.652ZM155.326 175.87L156.348 178.913L155.783 179.587C155.478 179.957 155.217 180.391 155.217 180.565C155.217 180.739 155.043 180.87 154.848 180.87C154.63 180.87 153.978 181.044 153.391 181.239C152.609 181.522 152.304 181.565 152.239 181.37C152.196 181.239 151.609 180.304 150.956 179.348L149.761 177.565L151.239 175.935C152.043 175.044 153 173.978 153.326 173.565C153.674 173.152 154.043 172.826 154.13 172.826C154.239 172.826 154.761 174.196 155.326 175.87ZM75.0652 173.457C75.5652 173.478 75.5435 174.239 75 174.783C74.6739 175.109 74.2826 175.217 73.3696 175.217H72.1739V174.283C72.1739 173.761 72.2174 173.283 72.2826 173.217C72.3478 173.174 72.8913 173.196 73.5217 173.283C74.1522 173.37 74.8478 173.457 75.0652 173.457ZM130.152 173.978C130.304 174.435 130.543 175.717 130.652 176.804C131.022 179.978 130.565 183.348 129.348 186.5C128.63 188.348 128.457 188.565 127.543 188.783C126.696 188.978 125.217 190.37 124.761 191.413C124.543 191.891 124.348 192.652 124.348 193.087C124.348 193.826 124.217 194 123 194.978C121.217 196.391 117.739 198.13 115.543 198.696C114.587 198.957 112.913 199.217 111.804 199.283L109.826 199.413L109.587 198.565C108.13 193.087 109.37 186.565 112.717 181.848C113.935 180.152 116.717 177.457 118.348 176.413C120.978 174.739 124.022 173.652 127.196 173.283C129.696 172.978 129.848 173.022 130.152 173.978ZM217.283 173.5C222.5 174.391 227.565 177.826 230.674 182.544C232.978 186.087 233.783 188.978 233.783 193.696C233.761 196.717 233.717 197.261 233.174 199.022C231.217 205.478 226.826 210.283 220.804 212.63C218 213.717 216.196 213.978 212.717 213.848C209.174 213.717 207.5 213.304 204.456 211.826C200.5 209.913 197.217 206.609 195.217 202.5C193.87 199.783 193.283 197.5 193.109 194.565C192.761 188.13 195.674 181.696 200.739 177.696C202.391 176.37 202.826 176.196 202.826 176.848C202.826 177.435 204.152 181.196 205 183C206.087 185.304 207.674 187.978 209.5 190.587C210.739 192.348 210.913 192.696 210.956 193.674C211.065 197.391 216.522 197.283 216.522 193.544C216.522 192.391 215.826 191.326 214.761 190.913C214.022 190.63 213.63 190.196 212.283 188.152C211.391 186.826 210.087 184.565 209.348 183.109C208.065 180.544 206.304 175.783 206.304 174.87C206.304 174.478 206.565 174.326 208 173.935C211 173.065 213.935 172.935 217.283 173.5ZM132.674 173.565C133.13 174.044 133.543 177.5 133.435 180.065L133.326 182.326L131.435 185.348C129.283 188.739 129.391 188.587 129.239 188.435C129.174 188.37 129.348 187.848 129.587 187.261C131.283 183.457 131.696 178.674 130.739 173.957C130.609 173.261 130.609 173.261 131.478 173.261C131.956 173.261 132.5 173.391 132.674 173.565ZM164.348 174.913C164.348 175.848 165.413 179.565 166.304 181.761C167.696 185.196 168.217 186.804 168.391 188.239L168.522 189.522L167.065 191.413C166.261 192.435 165.565 193.239 165.522 193.196C165.478 193.152 165.587 192.761 165.761 192.326C165.935 191.891 166.087 191.304 166.087 191.044C166.065 190.196 165.348 188.87 164.196 187.609C163.174 186.478 163.022 186.174 161.63 181.957C160.826 179.5 160.109 177.391 160.065 177.239C160 177.109 160.87 176.304 162 175.457C164.043 173.935 164.326 173.848 164.348 174.913ZM63.5435 174.587C64.4565 174.739 65.2174 174.957 65.2174 175.065C65.2174 175.152 64.6087 176.022 63.8913 177C62.3913 178.978 62.5 179 61.6522 176.478C61.3478 175.587 61.0217 174.674 60.9565 174.457C60.8261 174.13 60.8913 174.087 61.3261 174.196C61.6087 174.261 62.6087 174.435 63.5435 174.587ZM137.652 174.957C137.739 175.044 137.456 175.674 137.022 176.37C136.609 177.065 136.239 177.609 136.196 177.565C136.174 177.522 136.087 176.739 136 175.804L135.848 174.109L136.674 174.457C137.13 174.652 137.565 174.87 137.652 174.957ZM24.9348 176.348C24.0217 177.783 23.8043 178.326 23.8043 179.065C23.8043 180.457 24.6522 181.196 26.7391 181.63C29.1956 182.13 29.3478 182.174 29.3478 182.37C29.3478 182.761 27.4565 183.478 26.4348 183.478C25.0652 183.478 23.4782 182.63 22.6739 181.457C22.1522 180.696 22.0652 180.37 22.0652 179C22.0652 177.609 22.1304 177.326 22.7174 176.478C23.4348 175.478 24.7826 174.565 25.5869 174.565C26.0435 174.565 26 174.696 24.9348 176.348ZM145.804 177.326C148.239 179.783 150.217 182.913 151.283 186.065C151.891 187.826 152.391 190.217 152.391 191.326C152.391 192.239 152.261 192.304 150.891 192.044C150.304 191.913 150.217 191.804 150.217 191.196C150.217 189.935 149.174 186.304 148.261 184.435C147.152 182.13 145.152 179.478 143.435 178.022C142.674 177.391 141.978 176.804 141.87 176.696C141.761 176.609 141.913 176.152 142.261 175.652L142.848 174.761L143.543 175.261C143.935 175.522 144.956 176.457 145.804 177.326ZM65.6522 178.13V180.391L64.6304 180.087C64.0869 179.913 63.3913 179.783 63.1087 179.783C62.8043 179.783 62.6087 179.696 62.6522 179.609C62.8043 179.196 65.3478 175.891 65.5 175.87C65.5869 175.87 65.6522 176.891 65.6522 178.13ZM30.5217 177.044C30.9348 177.935 30.9782 178.5 30.6087 178.391C30.4565 178.326 30.0652 178.239 29.7391 178.174C29.0435 178.022 28.9782 177.609 29.5 176.739C29.9348 176 30.0435 176.044 30.5217 177.044ZM55.5869 177.739C58.413 178.478 58.5217 178.609 57.9348 180.587C57.8696 180.761 57.1739 180.652 55.6087 180.239C54.3696 179.891 53.1087 179.565 52.7826 179.478C52.4348 179.391 52.1739 179.196 52.1739 179C52.1739 178.696 52.3696 178.652 53.6956 178.783C54.6739 178.891 55.2174 178.87 55.2174 178.717C55.2174 178.587 54.8478 178.435 54.413 178.37C53.9565 178.304 53.2609 178.196 52.8913 178.13C52.3043 178.044 52.1739 177.935 52.1739 177.457C52.1739 176.826 51.913 176.804 55.5869 177.739ZM109.087 177.609C108.587 178.304 108.478 178.391 108.478 178.044C108.478 177.826 109.261 176.957 109.457 176.957C109.522 176.957 109.37 177.239 109.087 177.609ZM143.261 178.63C144.109 179.413 145 180.348 145.239 180.696L145.674 181.304L145.022 183.044C143.652 186.587 144.13 187.457 148.326 189.13C149.174 189.457 149.565 189.739 149.565 190C149.565 190.217 149.63 190.696 149.696 191.065C149.826 191.696 149.783 191.739 149.261 191.739C148.935 191.739 145.565 191.304 141.804 190.761C138.022 190.217 134.87 189.826 134.804 189.891C134.5 190.217 135.674 190.457 141.848 191.283C145.565 191.804 148.848 192.261 149.196 192.326C149.783 192.435 149.783 192.457 149.783 194.261C149.783 195.978 149.761 196.087 149.326 196.087C149.065 196.087 146.891 195.674 144.478 195.196C142.065 194.696 138.848 194.022 137.283 193.717C134.5 193.152 134.478 193.13 134.348 192.5C134.261 192.13 134.043 191.544 133.848 191.152C133.5 190.5 133.5 190.435 134.152 189.022C134.696 187.826 136.565 184.696 140.804 177.978C141.087 177.544 141.413 177.174 141.522 177.174C141.63 177.174 142.413 177.826 143.261 178.63ZM49.0435 178.174L49.6304 178.283L49.5 180.152C49.4348 181.174 49.3261 182.044 49.2826 182.109C49.1956 182.196 47.413 181.826 47.3043 181.696C47.2609 181.674 47.2826 180.783 47.3478 179.739C47.4565 177.609 47.2609 177.783 49.0435 178.174ZM156.891 180.478C157.043 181 157.217 181.609 157.304 181.848C157.456 182.217 157.348 182.196 156.609 181.652C156.152 181.304 155.739 181 155.696 180.957C155.565 180.87 156.304 179.565 156.478 179.565C156.565 179.565 156.761 179.978 156.891 180.478ZM54.7391 181.565C55.6522 182.413 56.4348 183.217 56.4782 183.37C56.5217 183.544 55.913 183.5 54.3043 183.196C53.0652 182.978 52.0652 182.761 52.0435 182.739C52.0217 182.739 52.0652 182.109 52.1304 181.348C52.2609 179.544 52.5869 179.565 54.7391 181.565ZM58.7826 180.913C58.5652 181.261 58.3043 181.065 58.413 180.63C58.5 180.304 58.5869 180.261 58.7174 180.457C58.8043 180.609 58.8261 180.826 58.7826 180.913ZM57.8696 181.5C57.9565 181.565 57.7609 181.913 57.4782 182.261L56.9348 182.87L55.7826 181.826C55.1304 181.239 54.6087 180.696 54.5869 180.609C54.5652 180.457 57.6304 181.261 57.8696 181.5ZM67.3913 182.761C67.913 183.326 68.5869 183.978 68.8913 184.174C69.5869 184.652 70.9348 184.674 72.1739 184.239C72.6739 184.065 73.1304 183.913 73.1739 183.913C73.3043 183.913 76.6304 186.978 76.6956 187.152C76.7174 187.261 76.2826 187.5 75.7174 187.717C73.5435 188.544 73.1956 188.717 73.413 188.935C73.5217 189.044 74.3043 188.848 75.4348 188.391L77.2826 187.652L77.8696 188.087C78.2174 188.326 78.4782 188.587 78.4782 188.674C78.4782 188.783 77.8913 189.109 77.1739 189.435C76.4565 189.761 75.8696 190.109 75.8696 190.239C75.8696 190.544 76.1522 190.478 77.6956 189.783L79.1522 189.152L80.8043 190.717C82.6087 192.413 84.1304 194.544 84.1304 195.37C84.1304 195.63 84.0435 195.87 83.9348 195.87C83.5869 195.87 78.6739 193.891 74.8913 192.239C69.8261 190 63.0435 186.522 63.0435 186.13C63.0435 185.848 64.1304 183.761 65.1522 182.109C65.7609 181.13 65.9782 181.196 67.3913 182.761ZM156.304 182.065C156.87 182.478 157.456 182.957 157.609 183.13C158 183.63 159.935 189.565 159.696 189.565C159.587 189.565 158.391 189.217 157.065 188.804L154.63 188.044L154.37 186.913C154.239 186.283 153.783 184.957 153.391 183.957L152.674 182.174L153.565 181.761C154.826 181.174 155.13 181.196 156.304 182.065ZM147.326 183.826C147.826 184.761 148.217 185.565 148.174 185.587C148.109 185.652 145.391 184.587 145.239 184.435C145.043 184.239 145.956 181.957 146.174 182.022C146.304 182.065 146.826 182.87 147.326 183.826ZM34.8043 183.261C37.1304 183.739 40.5 184.435 42.2826 184.804C44.0869 185.174 45.5869 185.522 45.6304 185.565C45.7609 185.674 45.0435 187.457 44.6956 187.935C44.413 188.326 44.3261 188.326 42.0435 187.761C39.5 187.13 28.0652 184.174 27.7174 184.065C27.6087 184.022 27.9348 183.783 28.4782 183.544C29.0217 183.304 29.5869 182.957 29.7609 182.761C29.913 182.544 30.1739 182.391 30.3043 182.391C30.4565 182.391 32.4782 182.783 34.8043 183.261ZM146.935 185.717C148.522 186.413 148.543 186.435 148.956 187.587C149.174 188.239 149.304 188.804 149.261 188.848C149.239 188.891 148.478 188.609 147.587 188.261C145.717 187.478 144.783 186.609 144.783 185.652C144.783 184.848 144.913 184.848 146.935 185.717ZM47.4565 185.891C48.413 186.152 48.4348 186.348 47.7391 187.913L47.2174 189.087L46.2174 188.848C45.6739 188.717 45.2174 188.544 45.2174 188.478C45.2174 188.391 45.3696 187.935 45.5652 187.478C45.7609 187 46 186.413 46.1087 186.13C46.3261 185.587 46.3478 185.565 47.4565 185.891ZM53.8261 187.174C55 187.413 55.9565 187.63 55.9782 187.674C56 187.696 56.1522 188.152 56.3261 188.696C56.4782 189.239 57.0435 190.196 57.5652 190.804C58.0652 191.435 58.4348 191.957 58.3478 191.957C58.0217 191.957 50.3043 189.913 50.1522 189.783C50.0652 189.696 50.1739 189.152 50.3913 188.565C50.6087 187.978 50.8696 187.326 50.9348 187.109C51.1087 186.652 51.2391 186.652 53.8261 187.174ZM67.5652 189.326C72.3696 191.739 76.913 193.761 81.1956 195.413C82.5217 195.935 83.6739 196.435 83.7826 196.544C84.0652 196.804 82.8696 198.044 82.3261 198.044C80.6956 198.044 67.6522 192.348 63.9565 190.044C63.0435 189.457 62.3913 188.478 62.3913 187.674C62.3913 187.283 62.5652 186.957 62.7826 186.957C62.8261 186.957 64.9782 188.022 67.5652 189.326ZM164.63 188.891C164.956 189.37 165.283 190.065 165.37 190.435C165.478 191.044 165.435 191.13 165.087 191.044C164.587 190.957 163.391 188.044 163.87 188.044C163.956 188.044 164.283 188.435 164.63 188.891ZM156.956 189.326C158.065 189.696 159.239 190.044 159.565 190.109C160.043 190.217 160.217 190.435 160.5 191.261C160.674 191.826 160.804 192.304 160.783 192.326C160.696 192.435 155.435 190.957 155.261 190.761C155.065 190.565 154.739 188.696 154.891 188.696C154.913 188.696 155.848 188.978 156.956 189.326ZM128.848 189.391C128.783 189.544 128.304 190.413 127.739 191.304C126.674 193.022 126.522 193.761 127.065 194.783C127.391 195.413 128.391 196.087 128.978 196.087C129.63 196.087 132.391 196.804 132.391 196.957C132.391 197.348 130.478 198.044 129.37 198.044C124.674 198.044 123.217 191.783 127.391 189.565C128.283 189.087 129 189 128.848 189.391ZM168.696 192.739C168.696 194.848 168.674 195.044 168.326 194.891C168.109 194.804 167.456 194.63 166.848 194.5C166.261 194.391 165.717 194.261 165.674 194.217C165.587 194.152 168.456 190.435 168.609 190.435C168.652 190.435 168.696 191.478 168.696 192.739ZM133.348 191.348C133.522 191.63 133.739 192.13 133.826 192.457C133.956 193.044 133.935 193.065 133.348 192.935C132.261 192.696 132.174 192.63 132.174 192.174C132.174 191.696 132.609 190.87 132.87 190.87C132.956 190.87 133.174 191.087 133.348 191.348ZM214.848 191.544C215.522 191.848 216.087 192.826 216.087 193.696C216.087 194.761 214.891 195.87 213.739 195.87C212.087 195.87 210.978 194.261 211.587 192.761C212.152 191.457 213.522 190.935 214.848 191.544ZM158.196 192.217C161.261 193 161.456 193.174 161.087 194.587C160.87 195.348 160.783 195.435 160.37 195.304C160.109 195.217 158.87 194.891 157.609 194.565C155.913 194.13 155.304 193.87 155.261 193.587C155.174 193.239 155.326 193.217 156.717 193.37C158.478 193.544 158.913 193.196 157.239 192.935C155.391 192.674 155.217 192.609 155.217 192.044C155.217 191.761 155.283 191.522 155.348 191.522C155.413 191.522 156.696 191.826 158.196 192.217ZM165.435 191.826C165.435 191.891 165.348 192 165.217 192.065C165.109 192.13 165 192.087 165 191.978C165 191.848 165.109 191.739 165.217 191.739C165.348 191.739 165.435 191.783 165.435 191.826ZM152.543 192.891C152.609 192.978 152.587 193.87 152.5 194.891L152.348 196.739L151.456 196.609C150.956 196.522 150.478 196.413 150.391 196.326C150.304 196.261 150.304 195.37 150.37 194.37L150.5 192.565L151.456 192.674C151.978 192.717 152.478 192.826 152.543 192.891ZM69.913 193.913C70.6087 194.152 72.2391 194.804 73.5435 195.37C76.0435 196.457 75.9565 196.326 75.413 197.761C75.2391 198.239 75.2174 198.217 71.5869 197.022C69.5869 196.348 67.913 195.783 67.8913 195.783C67.8478 195.739 68.5435 193.478 68.5869 193.478C68.6087 193.478 69.1956 193.674 69.913 193.913ZM125.217 196.652C125.217 196.739 122.87 198.435 122.457 198.674C121.674 199.087 121.87 198.783 122.717 198.261C123.457 197.804 123.717 197.391 123.261 197.391C123.13 197.391 122.174 197.957 121.13 198.652C120.087 199.348 118.783 200.196 118.239 200.5C117.043 201.217 113.87 201.935 112.065 201.957H110.739L110.391 201L110.022 200.022L111.261 199.891C114.239 199.565 115.543 199.304 117.457 198.63C119.674 197.826 122.022 196.544 123.37 195.37L124.239 194.609L124.717 195.63C125 196.174 125.217 196.652 125.217 196.652ZM156.891 195.413C158.152 196.435 159.674 198 159.543 198.13C159.456 198.217 155.217 197.435 155.065 197.304C155.043 197.304 155.087 196.674 155.152 195.913C155.239 195.044 155.37 194.565 155.543 194.565C155.696 194.565 156.304 194.935 156.891 195.413ZM161.717 195.565C161.391 195.957 161.239 195.848 161.435 195.348C161.5 195.152 161.652 195.065 161.783 195.13C161.891 195.196 161.87 195.391 161.717 195.565ZM159.435 195.565C160.152 195.739 160.826 195.978 160.913 196.044C161 196.13 160.826 196.478 160.522 196.804L160 197.413L158.804 196.391C158.152 195.826 157.609 195.326 157.609 195.283C157.609 195.152 158.13 195.217 159.435 195.565ZM170.261 197.283C170.87 197.957 171.652 198.652 171.978 198.804C172.761 199.217 174.304 199.217 175.283 198.804C175.717 198.63 176.13 198.478 176.196 198.478C176.348 198.478 179.63 201.544 179.739 201.761C179.783 201.848 179 202.217 178.043 202.609C176.956 203.044 176.348 203.391 176.478 203.522C176.609 203.652 177.391 203.435 178.543 202.978L180.391 202.217L181.109 202.804L181.804 203.391L180.348 204C179.565 204.348 178.913 204.696 178.913 204.804C178.913 205.109 179.261 205.044 180.652 204.457C181.37 204.152 182.043 203.913 182.174 203.913C182.587 203.913 185.435 206.804 186.304 208.087C187.13 209.348 187.435 210.435 186.935 210.435C185.5 210.435 166.087 201.5 166.087 200.848C166.087 200.609 167.196 198.348 167.978 197C168.283 196.5 168.674 196.087 168.848 196.087C169.022 196.087 169.652 196.63 170.261 197.283ZM138.696 198.065C140.913 198.522 144.065 199.174 145.717 199.5C147.348 199.826 148.696 200.174 148.696 200.283C148.696 200.391 148.435 201.065 148.13 201.761C147.696 202.717 147.456 203.022 147.196 202.935C147 202.891 143.239 201.891 138.826 200.761C134.413 199.63 130.761 198.652 130.717 198.609C130.674 198.587 131.043 198.37 131.522 198.152C131.978 197.935 132.543 197.587 132.739 197.348C133.174 196.891 132.804 196.848 138.696 198.065ZM141.87 202.087C144.522 202.761 146.804 203.391 146.956 203.478C147.152 203.587 146.956 204.044 146.283 205.022C143.217 209.544 138.326 212.739 132.913 213.696C130.978 214.044 126.217 213.87 124.457 213.391C122.63 212.891 120.587 212.022 118.826 211C117.152 210 114.174 207.326 113.087 205.804C112.304 204.696 112.261 204.717 114.239 204.457C116.13 204.217 118.674 203.478 120.652 202.63C122.457 201.848 126.565 199.326 127.13 198.63C127.348 198.391 128.152 198.544 132.217 199.609C134.891 200.304 139.239 201.413 141.87 202.087ZM150.717 200.544C151.283 200.652 151.326 200.739 151.196 201.261C151.13 201.587 150.87 202.261 150.652 202.783C150.217 203.761 150.065 203.804 148.522 203.239L148.022 203.044L148.478 202.174C148.717 201.696 149.022 201.044 149.13 200.739C149.283 200.37 149.478 200.217 149.739 200.283C149.935 200.348 150.391 200.457 150.717 200.544ZM156.652 201.761C157.826 202 158.87 202.261 158.935 202.348C159 202.435 159.239 202.957 159.435 203.522C159.652 204.087 160.239 205.044 160.783 205.63L161.739 206.696L157.456 205.587C155.087 204.978 153.109 204.457 153.065 204.413C153.022 204.391 153.13 203.935 153.326 203.435C153.522 202.913 153.783 202.239 153.891 201.891C154.022 201.565 154.196 201.304 154.304 201.304C154.413 201.304 155.456 201.5 156.652 201.761ZM168.978 203.13C173.087 205.304 177.456 207.283 182.609 209.37C184.935 210.304 186.87 211.174 186.913 211.304C187.043 211.674 185.913 212.609 185.326 212.609C184.022 212.609 175.739 209.217 170.435 206.522C166.587 204.544 165.935 204.087 165.63 203.065C165.391 202.283 165.456 201.522 165.761 201.522C165.826 201.522 167.261 202.261 168.978 203.13ZM173.283 208.674C174.348 209.044 178.696 210.848 178.87 210.978C178.978 211.087 178.413 212.826 178.283 212.826C178.087 212.826 171.043 210.457 170.956 210.37C170.783 210.196 171.587 208.261 171.826 208.261C171.978 208.261 172.63 208.435 173.283 208.674Z" fill="black"/>
<path d="M76.3043 37.2826V43.2609L80.2826 43.2174L84.2391 43.1522L84.3043 37.2174L84.3478 31.3043H80.3261H76.3043V37.2826ZM83.6956 37.1739V42.6087H80.2174H76.7391V37.1739V31.7391H80.2174H83.6956V37.1739Z" fill="black"/>
<path d="M90.3261 31.587C90.2608 31.7392 90.2391 34.3914 90.2608 37.5001L90.3261 43.1522L94.2174 43.2175C98.3913 43.2827 98.5 43.2392 98.3695 42.1957C98.3261 41.8914 98.2826 39.3044 98.2826 36.4566L98.2608 31.3044H94.3478C91.3695 31.3044 90.3913 31.3696 90.3261 31.587ZM97.8261 37.174V42.6088H94.3478H90.8695V37.174V31.7392H94.3478H97.8261V37.174Z" fill="black"/>
<path d="M104.391 37.2174L104.456 43.1522L108.435 43.2174L112.391 43.2609V37.2826V31.3043H108.37H104.348L104.391 37.2174ZM111.913 37.2391L111.956 42.6087L108.435 42.5652L104.891 42.5L104.826 37.3913C104.804 34.587 104.826 32.1739 104.891 32C104.956 31.7826 105.761 31.7391 108.413 31.7826L111.848 31.8478L111.913 37.2391Z" fill="black"/>
<path d="M76.4565 46.0218C76.3695 46.087 76.3043 47.0652 76.3043 48.1957V50.2174L80.2826 50.1739L84.2391 50.1087L84.3043 48.1739C84.3478 46.7609 84.2826 46.1739 84.0869 46.0435C83.7608 45.8478 76.6521 45.8044 76.4565 46.0218ZM83.7174 46.6087C83.7608 46.6522 83.7608 47.3478 83.7391 48.1305L83.6521 49.5652H80.1956H76.7391V48.0435V46.5218H80.1739C82.0652 46.5218 83.6739 46.5652 83.7174 46.6087Z" fill="black"/>
<path d="M90.3044 46.1957C90.2392 46.3262 90.2174 47.2827 90.2609 48.2827L90.3261 50.1088H94.3479H98.3696L98.3913 48.4131C98.4566 45.6088 98.8261 45.8479 94.3044 45.8914C91.4783 45.9131 90.3696 46.0001 90.3044 46.1957ZM97.8261 48.0435V49.5653H94.3479H90.8696V48.0435V46.5218H94.3479H97.8261V48.0435Z" fill="black"/>
<path d="M104.435 46.1522C104.391 46.3044 104.348 47.2826 104.391 48.2826L104.457 50.1087L108.435 50.1739L112.413 50.2174L112.348 48.1087L112.283 45.9783L108.413 45.9131C105.283 45.8478 104.543 45.9131 104.435 46.1522ZM111.957 48.0435V49.5652H108.37H104.783V48.1957C104.783 47.4348 104.848 46.7391 104.935 46.6739C105 46.587 106.63 46.5218 108.522 46.5218H111.957V48.0435Z" fill="black"/>
<path d="M70.8695 53.6957C70.8695 53.8479 78.8478 53.9131 94.3478 53.9131C109.848 53.9131 117.826 53.8479 117.826 53.6957C117.826 53.5435 109.848 53.4783 94.3478 53.4783C78.8478 53.4783 70.8695 53.5435 70.8695 53.6957Z" fill="black"/>
<path d="M76.3478 64.174L76.413 70.1088H80.3261H84.2391L84.3043 64.174L84.3478 58.2609H80.3261H76.3043L76.3478 64.174ZM83.6956 64.1305V69.5653H80.2174H76.7391V64.1305V58.6957H80.2174H83.6956V64.1305Z" fill="black"/>
<path d="M90.3261 58.5218C90.2608 58.6957 90.2391 61.3478 90.2608 64.4565L90.3261 70.1087L94.3043 70.1739C97.3913 70.2174 98.2608 70.1739 98.2608 69.9565C98.2826 69.8044 98.2826 67.1305 98.3043 64.0218V58.3696L94.3695 58.3044C91.3043 58.2609 90.3913 58.3044 90.3261 58.5218ZM97.8261 64.1305V69.5652H94.3478H90.8695V64.1305V58.6957H94.3478H97.8261V64.1305Z" fill="black"/>
<path d="M76.3043 75V77.174L80.2826 77.1305L84.2391 77.0653V75V72.9348L80.2826 72.8696L76.3043 72.8261V75ZM83.6956 75V76.5218H80.2174H76.7391V75V73.4783H80.2174H83.6956V75Z" fill="black"/>
<path d="M90.3044 73.1087C90.2392 73.2826 90.2174 74.2392 90.2609 75.2392L90.3261 77.0653L94.3044 77.1305L98.2609 77.174V75V72.8261H94.3479C91.2826 72.8261 90.3913 72.8913 90.3044 73.1087ZM97.8261 75V76.5218H94.3479H90.8696V75V73.4783H94.3479H97.8261V75Z" fill="black"/>
<path d="M90.3261 87.4566C90.2608 87.6088 90.2391 90.2609 90.2608 93.3696L90.3261 99.0218L94.2826 99.087L98.2391 99.1305L98.3043 93.3696C98.3478 90.1957 98.3478 87.5001 98.3043 87.3914C98.1739 87.0435 90.4565 87.1088 90.3261 87.4566ZM97.8261 93.2609V98.6957H94.3478H90.8695V93.2609V87.8261H94.3478H97.8261V93.2609Z" fill="black"/>
<path d="M90.3044 102.239C90.2392 102.413 90.2174 103.304 90.2609 104.261L90.3261 105.978H94.3479H98.3696V104.239C98.3696 103.283 98.3479 102.37 98.3044 102.217C98.1739 101.826 90.4566 101.848 90.3044 102.239ZM97.8261 104.022V105.652H94.3479H90.8696V104.022V102.391H94.3479H97.8261V104.022Z" fill="black"/>
<path d="M183.261 102.391V105.435H186.196H189.13V102.391V99.3479H186.196H183.261V102.391ZM188.587 102.391V104.891H186.196H183.804L183.739 102.63C183.717 101.37 183.717 100.239 183.783 100.109C183.848 99.9348 184.609 99.8479 186.239 99.8696L188.587 99.8913V102.391Z" fill="black"/>
<path d="M23.9566 103.957L24.0218 109.022L24.8913 109C25.3696 109 27.8479 108.978 30.3913 108.957L35 108.913V103.913V98.913H29.4566H23.9131L23.9566 103.957ZM34.4566 100.043C34.5218 100.435 34.5653 102.478 34.5218 104.565L34.4566 108.37L29.4131 108.435L24.3479 108.478V104.065C24.3479 101.63 24.4131 99.5652 24.5 99.5C24.5653 99.413 26.8261 99.3478 29.4783 99.3478H34.3261L34.4566 100.043Z" fill="black"/>
<path d="M26.1305 112.761L23.9131 112.848L23.9566 117.783L24.0218 122.717H29.4566H34.8913L34.9566 117.652L35 112.609L31.6957 112.652C29.8696 112.674 27.3696 112.739 26.1305 112.761ZM34.5653 117.717V122.174H29.5653H24.5653V119.174C24.5653 117.543 24.5 115.543 24.4131 114.717L24.2827 113.261H29.4348H34.5653V117.717Z" fill="black"/>
<path d="M202.978 113.957C201.087 116.631 200.413 118.544 200.739 120.304C200.826 120.804 201.022 121.087 201.217 121.087C201.478 121.087 201.5 120.978 201.37 120.587C200.804 119.065 201.609 116.609 203.478 114.174C203.957 113.544 204.348 112.935 204.348 112.826C204.348 112.304 203.87 112.717 202.978 113.957Z" fill="black"/>
<path d="M18.0217 184.152C16.8913 184.891 14.8913 186.217 13.5652 187.087C11.1522 188.652 10.3913 189.304 11.2174 189.087C11.8261 188.935 20.4348 183.261 20.4348 183.022C20.4348 182.652 20.0217 182.826 18.0217 184.152Z" fill="black"/>
<path d="M115.022 183.326C115.109 183.717 123.196 191.304 123.522 191.304C123.609 191.304 123.696 191.217 123.696 191.109C123.696 190.935 116.456 184.131 115.348 183.261C115 182.978 114.956 182.978 115.022 183.326Z" fill="black"/>
<path d="M221.457 177.543C221.283 177.891 220.044 180.283 218.696 182.891C217.348 185.5 216.326 187.696 216.391 187.761C216.478 187.848 216.609 187.804 216.717 187.696C216.978 187.435 222.174 177.37 222.174 177.13C222.174 176.739 221.739 177 221.457 177.543Z" fill="black"/>
<path d="M218.043 198C218.043 198.196 226.196 205.717 226.522 205.826C227.239 206.087 226.261 205.022 222.63 201.652C218.891 198.174 218.043 197.5 218.043 198Z" fill="black"/>
<path d="M32.8912 23.261C31.9999 23.8044 31.5434 25.1088 31.9347 26.0653C32.3478 27.0218 32.913 27.4349 33.9782 27.5436C34.8043 27.6523 35.0217 27.5653 35.6304 27.0436C36.8695 25.9131 36.7391 24.087 35.3912 23.261C34.4999 22.7175 33.7825 22.7175 32.8912 23.261ZM35.3695 23.9566C36.0217 24.6957 36.1521 25.3262 35.7825 26.0436C35.326 26.9349 34.3478 27.3044 33.4782 26.9566C32.6738 26.6305 32.3912 26.1523 32.3912 25.1957C32.3912 23.6523 34.3478 22.8479 35.3695 23.9566Z" fill="black"/>
<path d="M199.674 38.2392C194.913 39.6088 191.826 43.674 191.891 48.4783C191.935 50.2174 192.804 52.7827 194.565 56.3044C197.109 61.3479 201.826 68.9566 202.391 68.8696C202.717 68.8044 204.63 66.0218 206.891 62.2827C209.022 58.7609 211.587 53.6305 212.239 51.5218C213.478 47.587 212.739 44.1522 209.978 41.2174C207.304 38.3479 203.283 37.1957 199.674 38.2392ZM204.5 43.9783C208.022 45.8044 208.043 50.9348 204.522 52.6957C203.087 53.4131 201.783 53.4348 200.283 52.7392C196.283 50.8696 196.783 45.0653 201.043 43.674C201.848 43.4131 203.717 43.587 204.5 43.9783Z" fill="black"/>
<path d="M29.9348 39.2826C29.6957 39.5 29.7609 41.9565 30 41.9565C30.1305 41.9565 30.2174 41.3478 30.2174 40.5435C30.2174 39.1305 30.1957 39 29.9348 39.2826Z" fill="black"/>
<path d="M26.0869 43.0435C26.0869 43.1739 26.6739 43.2609 27.3913 43.2609C28.1087 43.2609 28.6956 43.1739 28.6956 43.0435C28.6956 42.913 28.1087 42.8261 27.3913 42.8261C26.6739 42.8261 26.0869 42.913 26.0869 43.0435Z" fill="black"/>
<path d="M31.2391 42.9565C30.913 43.2826 31.413 43.4783 32.6304 43.4783C33.5869 43.4783 33.9348 43.4131 33.8695 43.1957C33.7609 42.9131 31.5 42.6957 31.2391 42.9565Z" fill="black"/>
<path d="M29.7174 45.5869C29.5869 46.8696 29.6739 47.2609 30.0217 47.0652C30.2608 46.8913 30.2826 44.3478 30.0217 44.3478C29.9348 44.3478 29.7826 44.913 29.7174 45.5869Z" fill="black"/>
<path d="M209.13 77.3914C209.13 77.5435 213.413 77.6088 221.522 77.6088C229.63 77.6088 233.913 77.5435 233.913 77.3914C233.913 77.2392 229.63 77.174 221.522 77.174C213.413 77.174 209.13 77.2392 209.13 77.3914Z" fill="black"/>
<path d="M201.304 84.7826C201.304 84.9348 204.848 85 211.522 85C218.196 85 221.739 84.9348 221.739 84.7826C221.739 84.6304 218.196 84.5652 211.522 84.5652C204.848 84.5652 201.304 84.6304 201.304 84.7826Z" fill="black"/>
<path d="M65.2174 207.065C65.2174 207.348 67.1087 207.391 81.7391 207.348C92.5218 207.304 98.2826 207.217 98.3261 207.065C98.3478 206.913 92.7174 206.826 81.8044 206.783C67.1087 206.739 65.2174 206.783 65.2174 207.065Z" fill="black"/>
<path d="M72.1305 211.478C63.5653 211.5 58.9131 211.609 58.9131 211.739C58.9131 211.891 63.6957 211.957 72.6087 211.957C81.587 211.957 86.3044 211.891 86.3044 211.739C86.3044 211.609 86.2174 211.522 86.1087 211.522C86 211.522 85.7827 211.5 85.6087 211.457C85.4566 211.435 79.3913 211.435 72.1305 211.478Z" fill="black"/>
</svg>
