<svg width="300" height="290" viewBox="0 0 300 290" fill="none" xmlns="http://www.w3.org/2000/svg">
<path d="M134.105 0.0240021C132.063 0.238513 130.45 1.98638 130.315 4.14737C130.164 6.64205 132.095 8.74743 134.582 8.77127C137.084 8.80305 139.126 6.60233 138.919 4.08381C138.713 1.5653 136.592 -0.230232 134.105 0.0240021ZM135.67 0.937659C136.941 1.35874 137.855 2.44718 138.093 3.81369C138.498 6.16536 136.433 8.32636 134.121 7.96884C131.658 7.58749 130.339 4.83857 131.547 2.60607C132.333 1.16011 134.137 0.42919 135.67 0.937659Z" fill="black"/>
<path d="M112.574 6.60235C112.527 6.69769 112.495 7.40478 112.495 8.35022C112.495 9.89946 112.503 9.93918 112.67 10.0584C112.9 10.2173 112.94 10.2173 113.13 10.0266C113.281 9.87563 113.289 9.7644 113.289 8.28666C113.289 6.95193 113.273 6.6818 113.162 6.57852C112.995 6.40373 112.678 6.41962 112.574 6.60235Z" fill="black"/>
<path d="M107.895 11.3693C107.641 11.4329 107.545 11.703 107.696 11.9254C107.815 12.0843 107.879 12.0923 109.468 12.0923C111.208 12.0923 111.303 12.0764 111.303 11.7189C111.303 11.3455 111.049 11.2899 109.508 11.3057C108.721 11.3137 107.998 11.3455 107.895 11.3693Z" fill="black"/>
<path d="M114.672 11.3772C114.449 11.4646 114.386 11.7189 114.537 11.9254C114.64 12.0843 114.719 12.0923 116.3 12.0923C118.04 12.0923 118.136 12.0764 118.136 11.7189C118.136 11.3693 117.897 11.3137 116.308 11.3057C115.498 11.3057 114.759 11.3375 114.672 11.3772Z" fill="black"/>
<path d="M175.728 12.0127C174.52 12.2273 173.233 12.6722 172.081 13.2521C168.824 14.9126 166.48 17.884 165.566 21.5068C164.47 25.8209 165.821 30.5401 169.03 33.6227C171.279 35.7837 173.734 36.896 176.904 37.1979C181.289 37.6189 185.81 35.4182 188.368 31.6365C190.926 27.8468 191.228 22.8733 189.163 18.7976C188.575 17.6377 187.939 16.7558 187.017 15.7945C185.127 13.8321 183.188 12.7357 180.542 12.124C179.239 11.83 177.023 11.7744 175.728 12.0127ZM179.708 12.7675C184.42 13.4825 188.344 17.1372 189.449 21.8485C189.719 23.0005 189.798 25.1773 189.615 26.3532C189.202 28.9352 188.05 31.1836 186.183 33.0268C185.254 33.9564 184.284 34.6317 183.005 35.2593C181.393 36.0459 179.978 36.3954 178.159 36.4431C174.814 36.5305 171.692 35.2514 169.364 32.8362C167.735 31.1519 166.695 29.1895 166.186 26.8378C165.94 25.6938 165.94 23.3739 166.194 22.2377C166.718 19.8146 167.791 17.8204 169.459 16.1441C170.405 15.1986 171.239 14.5789 172.343 13.991C173.535 13.3713 175.005 12.8867 176.173 12.7278C176.983 12.6245 178.906 12.6404 179.708 12.7675Z" fill="black"/>
<path d="M112.622 13.4111C112.511 13.5144 112.495 13.7845 112.495 15.151C112.495 16.5175 112.511 16.7876 112.622 16.8909C112.789 17.0578 112.995 17.0498 113.154 16.875C113.273 16.7479 113.289 16.5016 113.289 15.1351C113.289 13.6971 113.273 13.5382 113.146 13.419C112.964 13.2522 112.781 13.2442 112.622 13.4111Z" fill="black"/>
<path d="M256.813 50.7518C253.659 51.1729 250.783 52.4202 248.272 54.4461C247.835 54.8036 242.313 60.2935 235.004 67.6425C207.873 94.9251 181.273 121.652 181.257 121.652C181.242 121.652 181.321 121.358 181.432 120.992C182.068 118.823 182.147 116.344 181.663 114.175C180.9 110.807 178.628 107.438 175.14 104.514L174.743 104.189L175.005 103.919C175.14 103.768 175.259 103.577 175.259 103.482C175.259 103.378 174.663 102.735 173.487 101.583C167.823 96.0056 161.372 91.048 155.159 87.4887C153.379 86.4638 153.029 86.2731 150.916 85.2165C143.551 81.546 136.067 79.377 128.504 78.7017C126.835 78.5587 123.506 78.511 121.576 78.6143L120.376 78.6779L120.527 78.2727C120.893 77.3034 121.29 75.8813 122.307 71.8771C122.903 69.5254 122.863 69.7399 122.64 69.8909L122.45 70.0101L122.489 68.1589C122.513 67.0069 122.489 65.9582 122.434 65.3941C122.235 63.4556 121.624 61.4694 120.964 60.5795C119.415 58.498 116.753 57.2268 113.091 56.8216C112.701 56.7819 111.661 56.7422 110.787 56.7422C109.373 56.7422 108.745 56.7819 107.291 56.9408C106.497 57.0361 104.9 57.3063 104.05 57.4969C103.565 57.6082 103.168 57.6876 103.152 57.6797C103.144 57.6638 103.033 57.2586 102.898 56.774L102.659 55.8842L102.913 55.8127C103.398 55.6776 103.398 55.5822 102.802 53.2703C102.5 52.1183 102.214 51.1252 102.167 51.0616C101.992 50.8471 101.785 50.863 100.689 51.149C99.5845 51.435 99.3065 51.5701 99.3065 51.8085C99.3065 51.88 99.5448 52.881 99.8388 54.033C100.482 56.5197 100.435 56.4562 101.301 56.2258C101.603 56.1463 101.873 56.1066 101.896 56.1304C101.92 56.1543 102.039 56.5674 102.159 57.0441L102.381 57.9101L101.976 58.0134C101.324 58.1802 99.95 58.7602 98.6073 59.4276C96.2159 60.6272 93.9358 62.1288 90.0507 65.0843C88.0566 66.6017 86.4835 67.714 85.3315 68.4449C84.1239 69.1918 84.1318 69.1918 84.1318 69.4142C84.1318 69.8194 84.1636 69.8194 87.3336 69.5811C88.9543 69.4619 90.3765 69.3506 90.4877 69.3348C90.6863 69.3109 90.7102 69.3427 90.9088 70.0498C91.4014 71.8136 92.5216 73.3231 94.0073 74.2129C94.2853 74.3877 94.3012 74.4115 94.3012 74.8087C94.3012 75.8495 94.5793 77.3749 95.0163 78.6779C95.6042 80.4575 96.486 81.9194 97.7731 83.2779C98.2577 83.7864 98.4723 84.0724 98.4087 84.0963C98.3451 84.1201 98.1306 84.3584 97.932 84.6286C97.5904 85.0814 97.5586 85.1609 97.5586 85.574C97.5586 86.6863 98.1147 88.0607 99.0999 89.3637C99.7911 90.2773 101.34 92.1047 101.515 92.2079C101.666 92.2953 101.92 92.2079 104.272 91.2387C106.068 90.5078 108.832 89.2842 109.722 88.8393L110.175 88.6089L110.946 89.7768C111.375 90.4203 111.804 91.0321 111.907 91.1433C112.074 91.3261 112.098 91.4373 112.137 92.3748C112.201 93.8049 112.36 94.9727 112.733 96.7603C112.908 97.6025 113.226 99.2709 113.448 100.455C114.306 105.206 115.911 115.256 115.911 115.947C115.911 116.44 115.554 118.084 115.188 119.276C113.885 123.534 110.413 130.375 106.075 137.223L105.297 138.455L104.272 139.075C101.293 140.878 99.5607 142.117 98.4087 143.261L97.6301 144.04L96.065 144.413C93.9199 144.93 93.7769 144.978 93.4193 145.303C92.5136 146.122 92.4818 147.488 93.3399 148.346C93.6656 148.672 93.8325 148.759 94.8812 149.125C95.5327 149.355 96.1047 149.538 96.1683 149.538C96.2239 149.538 97.074 149.339 98.0512 149.101L99.8388 148.672L100.705 149.101C102.898 150.197 105.003 150.356 107.077 149.57C108.642 148.982 110.072 147.782 110.755 146.487C110.898 146.225 111.017 145.987 111.033 145.979C111.057 145.947 112.503 145.565 112.606 145.565C112.662 145.565 112.63 147.448 112.535 149.021C112.519 149.323 112.479 150.094 112.455 150.73C112.431 151.365 112.392 152.271 112.376 152.756C112.32 153.987 112.185 157.165 112.137 158.436C112.114 159.024 112.082 159.85 112.058 160.263C112.042 160.677 112.002 161.503 111.978 162.091C111.955 162.679 111.915 163.537 111.899 163.997C111.851 165.07 111.748 167.589 111.661 169.718C111.637 170.306 111.605 171.092 111.581 171.466C111.565 171.839 111.526 172.745 111.502 173.492C111.478 174.23 111.438 175.017 111.422 175.239C111.406 175.454 111.367 176.383 111.335 177.297L111.279 178.958L110.755 178.902C108.769 178.703 105.464 178.775 103.565 179.053C103.128 179.116 102.659 179.172 102.524 179.172C102.302 179.172 101.078 177.972 89.8442 166.73C83.0116 159.882 77.1563 154.074 76.8464 153.812C75.9089 153.049 74.7966 152.342 73.5652 151.731C67.4874 148.72 60.1305 149.586 54.9346 153.923C54.5453 154.249 47.7127 161.058 39.7599 169.05C31.8071 177.043 20.6605 188.237 14.9959 193.934C7.13048 201.831 4.68347 204.325 4.68347 204.468C4.68347 204.707 4.85826 204.85 5.0966 204.818C5.22372 204.802 10.6103 199.447 21.7966 188.205C30.8776 179.085 38.3298 171.625 38.3616 171.625C38.3855 171.625 40.0857 173.301 42.1434 175.351C44.7413 177.941 45.9887 179.132 46.235 179.252C46.7275 179.506 47.5141 179.553 48.0702 179.371C48.4595 179.244 48.6661 179.061 50.1677 177.575C52.2492 175.517 52.5273 175.367 53.425 175.788C53.7508 175.939 54.9346 177.091 59.8206 182.008C66.4466 188.682 66.2321 188.491 67.2093 188.499C68.2819 188.515 67.7337 188.992 75.75 180.991C81.1922 175.565 83.0354 173.77 83.2182 173.73C83.3532 173.698 83.5121 173.658 83.5916 173.643C83.6631 173.619 83.8935 173.65 84.108 173.698C84.4655 173.786 84.6959 174 88.2631 177.543C91.7986 181.055 92.0608 181.309 92.466 181.436C93.0221 181.619 93.8086 181.571 94.3012 181.317C94.5396 181.206 95.3817 180.419 96.7879 179.029L98.9092 176.908L100.141 178.139C101.348 179.339 101.372 179.371 101.158 179.426C101.03 179.458 100.411 179.609 99.7593 179.768C98.218 180.133 95.8425 180.928 94.2853 181.595C89.0417 183.852 84.2828 187.594 80.7235 192.273C77.1245 197.016 74.8046 202.689 74.0419 208.608C72.8422 217.927 75.6229 227.485 81.6213 234.699L82.2966 235.509L80.7314 236.566C77.9507 238.433 75.9089 239.982 73.4301 242.111C69.2035 245.75 65.5012 248.666 61.211 251.724C56.8254 254.847 51.8996 258.033 47.4267 260.638C45.8139 261.584 45.5676 261.783 45.6709 262.061C45.8059 262.434 46.0999 262.339 47.7842 261.353C56.7221 256.126 65.9143 249.619 73.0885 243.438C75.2336 241.595 76.9576 240.204 78.4989 239.076C79.8813 238.067 82.7415 236.137 82.8448 236.137C82.8845 236.137 83.0195 236.264 83.1308 236.415C83.4406 236.82 85.4507 238.663 86.5073 239.505C92.3547 244.185 99.4495 246.806 106.751 246.997L108.515 247.045L108.181 247.259C107.807 247.498 107.323 248.006 107.14 248.356C107.077 248.483 106.934 249.031 106.822 249.571C106.457 251.375 105.917 252.98 104.844 255.443C104.145 257.071 102.683 259.971 101.73 261.663C101.174 262.648 101.126 262.784 101.205 262.958C101.277 263.125 101.34 263.157 101.555 263.133C101.793 263.109 101.849 263.038 102.381 262.116C103.048 260.964 104.669 257.802 105.265 256.475C106.489 253.758 107.426 250.978 107.688 249.246C107.831 248.3 108.57 247.672 110.151 247.148C110.723 246.957 111.065 246.894 112.336 246.735C112.797 246.679 112.892 246.671 114.187 246.425C116.014 246.076 117.667 245.996 122.585 246.028C125.008 246.044 127.225 246.084 127.511 246.107C127.797 246.131 128.853 246.203 129.854 246.266C130.863 246.338 131.976 246.409 132.325 246.441C133.104 246.497 133.088 246.513 133.223 245.511C133.533 243.35 134.439 241.34 135.988 239.362C136.655 238.52 138.324 236.907 139.348 236.105C141.152 234.699 142.836 233.674 145.347 232.442C147.381 231.441 148.93 230.814 151.242 230.051C156.851 228.192 161.499 225.721 164.613 222.932C165.98 221.717 167.211 220.04 167.672 218.793C167.99 217.935 168.466 216.99 168.76 216.648L169.022 216.354L169.642 216.473C170.452 216.632 172.041 216.624 172.876 216.465C173.225 216.402 173.813 216.243 174.171 216.116C174.568 215.981 174.91 215.909 175.037 215.933C175.235 215.973 176.014 215.591 178.397 214.288L178.795 214.074L179.748 214.169C180.272 214.225 181.21 214.352 181.829 214.455C183.053 214.654 183.204 214.63 183.204 214.241C183.204 213.955 182.942 213.843 181.814 213.653C181.249 213.565 180.63 213.462 180.439 213.43L180.105 213.375L182.147 212.278C183.275 211.682 185.285 210.602 186.62 209.887L189.043 208.584L189.433 209.029C190.291 210.022 192.92 212.556 193.914 213.351C197.211 215.981 200.77 217.919 204.655 219.214C209.382 220.779 214.308 221.272 219.432 220.676C224.263 220.12 229.546 218.205 233.677 215.512C234.106 215.234 234.48 215.003 234.512 215.003C234.543 215.003 234.806 215.258 235.084 215.567C235.886 216.473 235.799 216.449 238.913 216.417L241.535 216.394L241.726 216.616C241.916 216.839 241.964 217.093 241.869 217.347C241.837 217.419 241.416 217.744 240.923 218.062C240.439 218.38 239.962 218.737 239.874 218.865C239.525 219.365 239.445 219.961 239.652 220.461C239.803 220.811 239.795 220.803 242.909 224.1C245.777 227.135 246.23 227.62 247.366 228.915C251.72 233.848 255.653 239.132 259.093 244.638C260.118 246.282 261.961 249.412 261.921 249.444C261.905 249.46 261.437 249.182 260.873 248.832C259.117 247.736 257.448 246.806 255.462 245.821C253.309 244.741 253.015 244.661 252.237 244.916C251.458 245.178 251.212 245.519 250.195 247.776C249.694 248.864 249.241 249.818 249.178 249.881C249.106 249.953 249.043 249.969 248.987 249.913C248.947 249.873 248.304 248.213 247.573 246.234C246.214 242.588 246.087 242.318 245.547 241.905C244.88 241.396 239.191 240.006 235.163 239.362C232.375 238.917 226.694 238.472 225.844 238.631C225.391 238.719 225.375 238.83 225.669 239.99C226.535 243.422 228.005 247.307 229.761 250.795C231.358 253.973 231.787 254.6 232.525 254.839C232.732 254.91 234.083 255.149 235.521 255.371C236.967 255.593 238.174 255.808 238.214 255.84C238.389 256.007 238.142 256.15 237.253 256.388C236.736 256.531 236.164 256.738 235.981 256.841C235.115 257.341 234.742 258.517 235.147 259.439C235.409 260.027 237.419 262.561 239.485 264.897C240.828 266.414 244.832 270.395 245.301 270.665L245.69 270.895H247.319C248.868 270.895 253.651 270.784 254.223 270.736C254.366 270.728 255.224 270.705 256.13 270.689C257.719 270.657 257.766 270.665 257.79 270.816C257.806 270.951 257.464 271.149 255.407 272.158C254.08 272.81 252.864 273.446 252.705 273.573C252.276 273.906 251.974 274.582 251.974 275.177C251.99 276.139 252.284 276.504 254.08 277.775L255.359 278.681L255.049 278.769C254.556 278.912 254.135 279.158 253.826 279.492C253.436 279.897 253.301 280.183 253.198 280.834C252.991 282.042 253.095 282.137 252.094 279.857C251.593 278.729 251.1 277.68 251.005 277.521C250.656 276.957 250.242 276.695 249.162 276.353C244.745 274.931 237.388 273.128 237.006 273.374C236.72 273.549 236.808 273.811 237.547 274.939C238.579 276.512 239.882 278.34 240.184 278.634C240.605 279.047 241.018 279.19 242.242 279.364C244.395 279.666 244.88 279.746 244.967 279.841C245.031 279.905 245.031 279.944 244.959 279.968C244.665 280.072 244.101 280.532 243.902 280.834C243.616 281.239 243.434 281.891 243.473 282.336C243.545 283.091 243.704 283.337 245.364 285.331C247.859 288.318 248.304 288.795 248.82 289.041C249.202 289.216 249.376 289.248 250.06 289.248C250.822 289.248 250.886 289.232 251.72 288.89L252.586 288.533L250.965 288.493C249.623 288.461 249.297 288.429 249.09 288.318C248.622 288.056 244.713 283.456 244.403 282.789C244.244 282.455 244.22 282.304 244.26 282.034C244.355 281.494 244.586 281.12 244.999 280.874C245.539 280.54 245.714 280.358 245.77 280.048C245.841 279.674 245.634 279.253 245.309 279.086C245.158 279.015 244.244 278.848 243.132 278.697C241.511 278.475 241.169 278.403 240.939 278.244C240.621 278.022 238.023 274.407 238.119 274.312C238.206 274.216 242.814 275.313 245.372 276.036C247.271 276.568 249.48 277.251 249.758 277.402C249.877 277.466 250.06 277.601 250.163 277.704C250.33 277.887 251.077 279.476 252.054 281.732C252.483 282.733 252.713 282.979 253.158 282.892C253.627 282.805 253.738 282.582 253.881 281.549C253.945 281.025 254.048 280.508 254.112 280.397C254.358 279.913 255.001 279.515 255.518 279.515C256.106 279.515 257.782 280.31 259.633 281.47C261.89 282.876 263.073 283.567 263.208 283.567C263.534 283.567 270.073 279.825 272.591 278.204C274.427 277.021 277.692 274.756 278.176 274.335L278.391 274.153L277.692 273.795C271.813 270.816 265.632 267.106 260.348 263.403C257.552 261.433 253.508 258.35 253.357 258.064C253.254 257.866 253.365 257.619 253.595 257.548C253.794 257.484 253.73 257.453 255.033 258.47C261.858 263.84 269.54 268.734 277.692 272.913L279.114 273.636L279.36 273.461C279.654 273.247 282.022 271.364 282.189 271.205C282.284 271.118 282.236 270.991 281.839 270.323C281.585 269.894 280.87 268.774 280.25 267.836C276.087 261.536 271.066 256.181 265.234 251.836C264.495 251.279 263.772 250.739 263.637 250.636C263.486 250.525 263.121 249.953 262.652 249.11C259.403 243.239 254.97 236.764 250.624 231.529C248.328 228.756 247.096 227.389 243.426 223.504C240.431 220.342 240.327 220.223 240.327 219.929C240.327 219.484 240.502 219.286 241.448 218.65C242.441 217.991 242.711 217.649 242.711 217.085C242.711 216.759 242.52 216.298 242.29 216.052C241.884 215.615 241.853 215.607 239.001 215.631C237.197 215.647 236.315 215.623 236.204 215.559C235.759 215.321 231.358 210.022 228.919 206.78C227.743 205.223 226.432 203.38 226.297 203.094C226.042 202.57 226.471 201.894 227.051 201.894C227.361 201.894 230.936 202.8 233.161 203.436C237.459 204.675 241.662 206.161 245.754 207.885C248.971 209.243 253.794 211.603 253.992 211.921C254.072 212.056 254.12 212.461 254.151 213.414C254.183 214.543 254.215 214.765 254.358 215.003C254.803 215.766 255.844 215.925 256.535 215.345C256.67 215.234 256.868 214.956 256.972 214.725C257.202 214.249 257.583 213.994 257.949 214.09C258.418 214.201 262.398 216.791 264.821 218.555C268.015 220.882 270.518 223.028 273.346 225.848C276.23 228.724 278.621 231.544 280.425 234.19L280.751 234.667L280.798 235.7C280.941 238.655 281.045 239.362 281.386 239.736C281.458 239.823 282.3 240.498 283.253 241.237C284.207 241.984 285.017 242.651 285.057 242.731C285.208 243.017 285.144 243.366 284.906 243.613C284.675 243.835 284.652 243.843 283.825 243.843C282.856 243.843 282.53 243.962 282.133 244.447C281.736 244.924 281.68 245.281 281.831 246.362C282.745 252.797 284.366 260.329 286.145 266.383L286.431 267.352L286.598 267.217C287.202 266.732 290.396 263.3 291.667 261.751C292.159 261.163 292.191 261.099 292.072 260.98C291.953 260.861 291.961 260.686 292.191 258.763C292.525 255.935 292.7 254.028 292.819 251.629C292.938 249.309 292.874 242.58 292.723 241.42C292.708 241.285 292.676 240.896 292.644 240.546C292.167 234.119 290.507 226.841 288.537 222.511C288.084 221.526 288.012 221.248 288.155 221.081C288.29 220.922 288.576 220.93 288.727 221.097C288.862 221.256 289.267 222.146 289.665 223.147C291.341 227.373 292.62 232.839 293.24 238.48C293.574 241.563 293.669 243.406 293.669 247.339C293.669 251.915 293.486 254.831 292.938 259.192C292.859 259.796 292.811 260.289 292.819 260.289C292.835 260.289 293.224 259.78 293.685 259.161C295.806 256.316 297.999 252.638 299.357 249.659C299.739 248.817 299.779 248.689 299.882 247.712C300.041 246.258 300.041 243.287 299.874 241.944C299.492 238.727 298.174 234.309 295.878 228.589C294.996 226.38 294.225 224.577 292.366 220.287C289.267 213.16 287.893 209.903 286.55 206.542C286.201 205.668 285.843 204.874 285.748 204.77C285.271 204.262 284.302 204.468 284.032 205.136C283.841 205.62 283.301 207.726 283.277 208.075C283.229 208.727 283.372 209.227 284.191 211.325C284.818 212.922 284.961 213.375 284.89 213.462C284.842 213.526 284.771 213.573 284.739 213.573C284.707 213.573 284.405 213.359 284.064 213.097C283.507 212.668 283.412 212.62 283.063 212.62C282.641 212.62 282.244 212.874 282.109 213.24C281.942 213.677 281.362 217.625 281.132 219.929C280.774 223.409 280.56 228.414 280.647 231.37C280.687 232.617 280.671 233.213 280.624 233.157C280.576 233.11 280.25 232.681 279.885 232.204C276.413 227.564 271.948 223.075 266.942 219.182C263.947 216.854 259.093 213.621 258.195 213.359C257.854 213.255 257.758 213.255 257.385 213.367C256.9 213.51 256.495 213.859 256.281 214.344C256.018 214.932 255.518 215.107 255.144 214.725C254.97 214.558 254.946 214.463 254.946 213.994C254.938 212.056 254.866 211.674 254.39 211.214C253.834 210.673 247.533 207.702 244.053 206.343L243.37 206.073L243.783 205.43C246.866 200.695 248.741 195.189 249.226 189.461C249.345 188.062 249.321 185.282 249.186 183.78C248.646 177.909 246.643 172.3 243.386 167.557C243.052 167.072 242.79 166.667 242.806 166.651C242.886 166.58 246.429 165.626 248.05 165.237C251.418 164.442 255.836 163.656 259.037 163.282C259.435 163.235 259.895 163.179 260.07 163.163C261.381 163.004 264.011 162.766 265.234 162.687C265.632 162.663 266.092 162.623 266.267 162.607C266.442 162.591 267.141 162.552 267.816 162.52C268.492 162.496 269.175 162.456 269.326 162.44C269.858 162.369 278.431 162.353 279.773 162.409C282.769 162.552 283.229 162.575 284.262 162.647C285.788 162.758 286.519 162.814 287.202 162.885C287.853 162.949 288.155 162.853 288.155 162.583C288.155 162.146 288.02 162.122 284.739 161.9C281.196 161.662 279.13 161.59 275.404 161.59C271.209 161.582 267.221 161.733 264.122 162.011C263.645 162.059 263.018 162.107 262.732 162.13C262.446 162.154 262.112 162.194 261.977 162.21C261.85 162.226 261.492 162.266 261.182 162.289C260.881 162.321 259.784 162.448 258.759 162.575C253.468 163.243 248.415 164.252 243.759 165.586C243.013 165.809 242.361 165.984 242.321 165.984C242.29 165.984 241.972 165.634 241.622 165.205C239.485 162.599 236.99 160.335 234.21 158.476C229.403 155.274 224.207 153.407 218.439 152.827C216.93 152.676 213.887 152.66 212.441 152.787C205.759 153.407 199.578 155.822 194.446 159.826C193.969 160.2 193.556 160.494 193.524 160.486C193.492 160.47 190.195 157.244 186.183 153.312L178.906 146.169L178.945 145.804C178.977 145.605 179.065 144.549 179.152 143.46C179.311 141.514 179.351 141.037 179.43 140.163C179.454 139.925 179.525 139.122 179.589 138.375C179.653 137.637 179.732 137.017 179.764 137.001C179.804 136.993 181.972 135.857 184.594 134.49C187.725 132.854 189.488 131.892 189.719 131.678C191.014 130.534 190.839 128.413 189.314 126.887C188.44 126.005 187.097 125.497 185.897 125.592C185.651 125.616 184.253 125.942 182.791 126.331C179.74 127.141 178.612 127.412 178.548 127.348C178.524 127.324 178.652 127.046 178.842 126.72C179.033 126.403 179.478 125.56 179.835 124.845L180.487 123.55L195.328 108.638C203.495 100.439 210.208 93.7095 210.24 93.6936C210.28 93.6777 212.926 96.2757 216.127 99.4616C222.459 105.786 222.197 105.555 223.222 105.659C223.778 105.722 224.557 105.508 225.026 105.174C225.216 105.039 227.147 103.132 229.316 100.939C233.63 96.5776 233.67 96.5458 234.543 96.5379C235.401 96.522 235.433 96.5458 239.334 100.423C242.568 103.648 242.949 103.998 243.315 104.125C244.014 104.364 244.53 104.371 245.182 104.173L245.77 103.998L249.226 100.558C251.124 98.6671 252.809 97.0543 252.96 96.9748C253.349 96.7683 254.239 96.7762 254.668 96.9828C254.874 97.0861 258.243 100.407 264.631 106.811C275.372 117.592 274.617 116.9 275.801 116.948C276.58 116.98 277.167 116.789 277.684 116.336C277.994 116.05 278.018 116.011 277.946 115.804C277.827 115.462 277.525 115.462 277.08 115.796C276.476 116.265 275.658 116.328 274.975 115.979C274.863 115.915 270.446 111.538 265.163 106.239C259.88 100.947 255.43 96.5299 255.272 96.4267C254.819 96.1247 254.12 95.9659 253.571 96.0215C252.562 96.1247 252.523 96.1645 248.749 99.9144C245.062 103.585 245.118 103.537 244.339 103.537C243.561 103.537 243.632 103.593 239.811 99.7953C235.688 95.6957 235.815 95.7911 234.567 95.7911C233.288 95.7911 233.511 95.6163 228.768 100.383C226.011 103.164 224.533 104.594 224.318 104.697C223.866 104.912 223 104.904 222.571 104.673C222.388 104.57 219.885 102.131 216.54 98.7783L210.82 93.058L224.001 79.8061C246.262 57.4254 248.05 55.6299 248.709 55.0976C251.696 52.6744 255.303 51.4033 259.149 51.4112C262.946 51.4192 266.529 52.6983 269.477 55.0976C269.993 55.5187 273.33 58.8555 281.267 66.8878C283.086 68.723 283.269 68.8501 283.635 68.5959C283.73 68.5244 283.786 68.4132 283.77 68.3019C283.73 68.0159 270.692 54.9467 269.683 54.184C267.157 52.2851 264.392 51.1411 261.357 50.7439C260.213 50.6008 257.917 50.6008 256.813 50.7518ZM113.289 57.6161C116.038 57.9498 118.231 58.8476 119.629 60.23C120.456 61.0404 120.956 61.9778 121.314 63.3841C121.695 64.8698 121.838 67.1261 121.679 69.3983C121.6 70.598 121.822 70.4232 119.844 70.9237C117.27 71.5752 113.806 72.1313 105.623 73.188C104.622 73.3231 103.311 73.4899 102.723 73.5694L101.65 73.7124L101.237 72.7193C100.768 71.5831 100.601 71.3289 100.331 71.2971C100.228 71.2812 99.5369 71.4243 98.79 71.599C96.5099 72.1472 95.2308 72.2744 94.0708 72.0519L93.5703 71.9566L93.0618 70.4868C92.7838 69.6843 92.5613 69.0011 92.5692 68.9693C92.5851 68.9375 94.9209 67.1499 97.7572 65.0048C100.601 62.8518 103.001 61.0245 103.104 60.9291C103.199 60.8417 103.279 60.7146 103.279 60.6511C103.279 60.4842 103.041 60.2379 102.882 60.2379C102.802 60.2379 100.315 62.0732 97.352 64.3216C91.3378 68.874 92.0608 68.429 90.5274 68.5482C90.1778 68.5721 89.0735 68.6595 88.0645 68.7389C87.0635 68.8104 86.2293 68.866 86.2134 68.8581C86.1975 68.8422 86.5709 68.5721 87.0476 68.2463C87.5163 67.9285 89.0417 66.8163 90.4321 65.7755C95.0163 62.3513 96.5258 61.3581 99.0919 60.0711C101.332 58.9429 102.747 58.498 105.861 57.9419C108.308 57.5049 111.295 57.3698 113.289 57.6161ZM100.665 73.3707C100.919 73.9825 101.674 76.2547 101.968 77.2796C102.405 78.7891 103.041 81.5062 103.041 81.8479C103.041 82.0068 101.467 82.8013 101.15 82.8013C101.118 82.8013 100.824 82.3722 100.506 81.8479C100.188 81.3235 99.8705 80.8627 99.799 80.823C99.7196 80.7833 99.235 80.7118 98.7106 80.6561C98.1862 80.6085 97.7254 80.529 97.6778 80.4893C97.6301 80.4416 97.6619 79.7028 97.7731 78.4316C97.9399 76.4057 97.932 76.1355 97.6698 74.7372C97.6301 74.5148 97.6619 74.483 98.1306 74.2049C98.4087 74.0381 99.0046 73.6568 99.4654 73.3548C99.9262 73.0529 100.331 72.8146 100.371 72.8225C100.419 72.8305 100.546 73.0768 100.665 73.3707ZM120.996 73.7998C120.996 74.0063 120.289 76.501 119.939 77.5418L119.526 78.7891L119.129 78.8527C117.254 79.1546 116.062 79.8776 115.164 81.2679C114.441 82.3802 113.742 83.9215 113.083 85.8203C112.94 86.2255 112.9 86.2731 112.336 86.5909C110.239 87.7986 105.837 89.8165 102.405 91.1592L101.809 91.3896L101.547 91.0877C99.5289 88.8076 98.7821 87.6953 98.4723 86.4956C98.2736 85.7011 98.3134 85.3595 98.655 84.9622C98.941 84.6365 99.1317 84.5571 106.528 81.6095C110.699 79.9411 114.163 78.5428 114.219 78.4952C114.346 78.3919 114.354 78.0979 114.227 77.9708C114.171 77.9152 114.052 77.8755 113.949 77.8755C113.853 77.8755 111.708 78.7017 109.182 79.7107C106.655 80.7197 104.423 81.6095 104.224 81.689L103.859 81.832L103.613 80.6323C103.478 79.965 103.168 78.7097 102.929 77.8357C102.691 76.9618 102.508 76.2388 102.524 76.2229C102.532 76.207 102.596 76.3342 102.643 76.501C102.699 76.6678 102.77 76.8426 102.81 76.8903C102.858 76.9459 103.223 76.93 104.01 76.8347C104.637 76.7552 105.345 76.6758 105.583 76.644C105.821 76.6202 106.274 76.5646 106.576 76.5248C106.886 76.4772 107.815 76.358 108.642 76.2468C113.234 75.6271 118.604 74.5625 120.456 73.903C120.94 73.7362 120.996 73.7203 120.996 73.7998ZM96.1365 74.8405L96.9071 74.8723L97.0104 75.5238C97.1375 76.3501 97.1375 76.4454 96.9627 78.6461C96.8038 80.6879 96.8197 80.8309 97.2567 81.1487C97.4394 81.2758 97.7254 81.3394 98.4087 81.4189C98.9092 81.4745 99.3382 81.546 99.378 81.5619C99.4654 81.6175 100.26 82.9363 100.26 83.0317C100.26 83.0793 100.212 83.119 100.165 83.119C100.109 83.119 99.8467 83.2223 99.5925 83.3415L99.1237 83.564L98.3928 82.7933C96.3987 80.7118 95.342 78.2965 95.1195 75.341C95.0719 74.7055 95.0798 74.6737 95.2228 74.7372C95.3023 74.769 95.7154 74.8167 96.1365 74.8405ZM128.186 79.4644C135.988 80.1318 143.281 82.261 150.948 86.0984C158.36 89.8086 166.13 95.4574 172.741 101.948L174.322 103.498L172.733 105.126C170.659 107.263 168.593 109.154 166.718 110.656C162.659 113.897 158.583 116.058 153.951 117.441L153.188 117.671L151.091 116.773C149.939 116.273 147.555 115.248 145.784 114.477C134.637 109.671 131.364 108.249 130.053 107.684L128.583 107.057L128.528 106.509C128.464 105.809 128.091 100.534 128.027 99.3265C127.979 98.5479 127.948 98.389 127.813 98.2699C127.614 98.103 127.574 98.103 127.352 98.2778L127.177 98.4208L127.264 99.9621C127.32 100.812 127.376 101.726 127.391 101.988C127.415 102.25 127.527 103.68 127.638 105.166C127.749 106.652 127.876 108.185 127.916 108.582C128.051 109.766 128.106 118.188 127.995 120.023C127.86 122.208 127.646 123.32 127.328 123.447C127.137 123.519 126.112 123.264 125.302 122.939C123.292 122.128 120.702 120.221 118.056 117.608L116.801 116.368L116.547 114.62C116.03 111.14 115.808 109.742 115.109 105.484C114.489 101.766 114.092 99.5569 113.567 96.959C113.035 94.3213 112.948 93.6062 112.948 91.8584C112.94 90.3488 113.027 89.4987 113.337 87.9733C113.861 85.3674 115.323 82.0544 116.436 80.9342C116.936 80.4416 117.746 79.9491 118.334 79.7902C118.827 79.663 120.527 79.4644 121.631 79.4088C122.18 79.385 122.64 79.3452 122.664 79.3214C122.728 79.2579 127.137 79.3691 128.186 79.4644ZM112.495 88.1561C112.407 88.5851 112.312 89.181 112.28 89.4829C112.257 89.7927 112.209 90.0549 112.177 90.0708C112.145 90.0867 111.843 89.6894 111.502 89.181C111.16 88.6646 110.914 88.2435 110.954 88.2276C110.993 88.2117 111.383 88.0051 111.82 87.7747C112.257 87.5364 112.622 87.3457 112.63 87.3616C112.638 87.3695 112.582 87.7271 112.495 88.1561ZM131.737 109.266C133.366 109.973 135.63 110.95 136.766 111.442C137.902 111.935 142.042 113.723 145.966 115.415L153.109 118.497L154.11 118.195C154.666 118.037 155.19 117.878 155.278 117.854C155.429 117.814 155.429 117.822 155.31 118.005C155.119 118.291 150.145 127.268 148.469 130.351C146.832 133.346 144.298 138.097 143.17 140.258C142.487 141.577 142.431 141.657 142.232 141.641C141.891 141.601 141.422 141.744 141.065 141.982C140.794 142.173 140.453 142.681 139.007 145.081C137.386 147.758 137.251 147.949 137.044 147.949C136.854 147.949 131.745 148.267 129.974 148.386C129.648 148.41 128.504 148.481 127.431 148.545C126.359 148.608 125.215 148.68 124.889 148.704C124.563 148.727 123.721 148.783 123.022 148.823C122.323 148.871 121.52 148.918 121.234 148.942C120.948 148.958 120.432 148.998 120.082 149.021C119.733 149.037 119.113 149.077 118.7 149.109L117.953 149.157L118.009 147.941C118.032 147.266 118.08 146.161 118.104 145.486C118.136 144.811 118.168 144.247 118.175 144.231C118.183 144.223 118.938 144.032 119.852 143.81C121.767 143.341 121.902 143.293 121.933 143.023C121.949 142.872 121.163 139.432 120.948 138.717C120.877 138.471 120.551 138.471 119.478 138.725C118.533 138.955 118.422 138.963 118.295 138.852C118.223 138.789 118.088 138.733 118.001 138.733C117.913 138.733 117.19 138.924 116.396 139.162C115.609 139.392 114.958 139.567 114.958 139.551C114.958 139.535 115.323 139.098 115.776 138.59C120.328 133.394 124.674 127.745 126.446 124.742L126.756 124.21L127.217 124.226C127.646 124.234 127.701 124.218 127.908 123.979C128.353 123.487 128.623 122.216 128.79 119.848C128.885 118.513 128.837 109.218 128.734 108.36C128.71 108.153 128.702 107.986 128.734 107.986C128.758 107.986 130.109 108.566 131.737 109.266ZM119.884 120.364C121.917 122.065 123.872 123.288 125.389 123.812C125.683 123.908 125.922 124.019 125.922 124.059C125.922 124.091 125.699 124.464 125.437 124.893C123.133 128.556 118.779 134.053 113.385 140.099C112.543 141.053 111.843 141.831 111.835 141.831C111.669 141.831 110.199 141.371 109.794 141.196C108.697 140.735 107.506 139.837 106.743 138.9L106.29 138.352L106.798 137.565C108.205 135.404 110.509 131.432 111.963 128.683C114.108 124.631 115.776 120.555 116.356 117.973C116.428 117.655 116.499 117.369 116.523 117.337C116.539 117.306 117.087 117.782 117.723 118.402C118.366 119.022 119.335 119.904 119.884 120.364ZM186.779 126.426C188.09 126.633 189.163 127.531 189.647 128.81C189.973 129.668 189.766 130.653 189.139 131.146C188.996 131.257 187.311 132.178 185.389 133.179C183.466 134.188 181.321 135.309 180.614 135.674L179.335 136.342L177.198 136.135L175.06 135.928L174.679 135.507C174.473 135.277 174.131 134.959 173.908 134.8L173.519 134.514L174.179 133.664C175.124 132.449 176.197 130.939 177.071 129.604C177.484 128.969 177.849 128.421 177.873 128.389C177.897 128.357 178.485 128.206 179.176 128.055C179.875 127.896 181.567 127.467 182.95 127.102C186.032 126.283 185.969 126.291 186.779 126.426ZM174.02 135.944L174.322 136.254L174.274 136.961C174.242 137.343 174.202 137.787 174.187 137.938C174.171 138.089 174.028 139.774 173.869 141.672C173.718 143.571 173.567 145.24 173.551 145.375L173.503 145.629L172.693 145.677C172.248 145.708 171.724 145.748 171.525 145.764C171.326 145.78 170.754 145.82 170.254 145.844C169.753 145.875 168.625 145.947 167.751 146.002C166.877 146.058 166.154 146.098 166.138 146.082C166.123 146.066 166.806 145.128 167.648 144C170.317 140.449 173.416 136.127 173.567 135.73C173.63 135.579 173.694 135.611 174.02 135.944ZM177.15 136.921L178.914 137.096L178.874 137.454C178.826 137.875 178.119 146.225 178.119 146.392C178.119 146.447 187.002 155.21 197.862 165.865C219.782 187.371 218.082 185.615 218.082 186.72C218.082 187.427 217.907 187.903 217.462 188.404C217.089 188.817 216.54 189.119 214.03 190.271C213.744 190.406 211.527 191.455 209.104 192.599C205.076 194.506 201.318 196.285 199.689 197.048C197.997 197.85 191.3 201.012 190.354 201.465C189.766 201.743 187.208 202.951 184.674 204.151L180.066 206.328L179.97 205.859C179.772 204.905 179.247 203.595 178.818 202.991C178.675 202.784 178.675 202.776 178.81 202.705C178.93 202.641 184.308 200.107 187.891 198.422C188.305 198.224 189.202 197.803 189.878 197.485C191.324 196.802 199.936 192.758 206.601 189.62C209.184 188.412 211.4 187.347 211.535 187.26C212.139 186.847 212.369 186.036 212.068 185.361C211.94 185.083 208.389 181.564 195.058 168.486C183.609 157.26 178.143 151.953 178.016 151.937C177.913 151.921 177.786 151.969 177.73 152.033C177.619 152.16 177.587 152.509 177.007 159.429C176.689 163.251 176.641 163.799 176.57 164.593C176.546 164.808 176.483 165.65 176.411 166.46C176.348 167.271 176.276 168.129 176.252 168.367C176.141 169.614 175.871 172.737 175.696 174.882C175.585 176.217 175.482 177.504 175.458 177.742C175.37 178.695 175.092 181.937 174.941 183.78C174.854 184.853 174.767 185.925 174.743 186.164C174.679 186.823 174.187 192.639 173.901 196.055C173.765 197.715 173.646 199.082 173.638 199.09C173.63 199.098 173.432 199.05 173.193 198.979C172.653 198.836 170.603 198.748 170.039 198.851C169.634 198.931 169.634 198.931 169.737 198.764C169.801 198.661 169.904 197.811 170.008 196.492C170.103 195.332 170.198 194.228 170.214 194.029C170.238 193.83 170.309 192.988 170.373 192.162C170.445 191.328 170.516 190.493 170.532 190.295C170.58 189.834 171.311 181.206 171.644 177.106C171.668 176.82 171.708 176.431 171.724 176.233C171.747 176.034 171.819 175.216 171.883 174.405C171.946 173.595 172.018 172.737 172.041 172.498C172.153 171.251 172.423 168.129 172.598 165.984C172.709 164.649 172.812 163.362 172.836 163.124C172.852 162.885 172.907 162.242 172.955 161.693C173.003 161.145 173.058 160.541 173.074 160.343C173.09 160.144 173.178 159.127 173.273 158.079C173.36 157.03 173.535 154.924 173.662 153.407C173.789 151.882 173.877 150.587 173.853 150.515C173.75 150.253 173.75 150.253 168.466 150.602C168.077 150.634 166.035 150.761 163.938 150.888C161.84 151.016 159.894 151.143 159.608 151.167C159.322 151.182 158.702 151.222 158.217 151.254C157.741 151.286 157.264 151.318 157.169 151.325C157.065 151.333 156.986 151.318 156.994 151.294C156.994 151.27 157.471 150.849 158.043 150.356C158.623 149.872 159.663 148.958 160.363 148.322L161.642 147.178L162.428 147.123C162.865 147.099 163.795 147.035 164.494 146.996C165.193 146.956 166.035 146.9 166.361 146.876C167.203 146.813 171.883 146.527 172.836 146.471C173.908 146.416 174.131 146.376 174.218 146.217C174.258 146.145 174.345 145.367 174.417 144.493C174.488 143.619 174.56 142.721 174.584 142.507C174.6 142.284 174.639 141.855 174.663 141.553C174.687 141.243 174.727 140.838 174.743 140.64C174.767 140.441 174.814 139.837 174.862 139.289C175.013 137.422 175.029 137.263 175.068 137.001C175.092 136.834 175.148 136.747 175.243 136.747C175.315 136.747 176.173 136.826 177.15 136.921ZM120.702 141.021C120.916 141.911 121.075 142.65 121.051 142.674C121.004 142.729 111.629 145.009 111.478 145.009C111.398 145.009 111.383 144.946 111.43 144.747C111.462 144.612 111.526 144.199 111.573 143.849L111.661 143.198L112.701 142.054C113.718 140.934 113.758 140.902 114.171 140.814C114.41 140.767 115.832 140.425 117.341 140.052C118.851 139.678 120.138 139.384 120.201 139.392C120.281 139.408 120.432 139.869 120.702 141.021ZM142.701 142.594C143.011 142.753 143.083 142.928 143.67 144.93L144.195 146.717L143.639 152.12C143.337 155.091 143.027 158.023 142.963 158.635C142.9 159.246 142.828 159.977 142.804 160.263C142.773 160.549 142.693 160.883 142.614 161.018C142.495 161.225 141.382 162.13 140.437 162.782C140.095 163.02 139.65 163.044 139.277 162.853C138.808 162.607 138.792 162.52 138.427 159.191C138.244 157.491 138.069 155.894 138.045 155.655C137.497 150.801 137.37 149.443 137.442 149.26C137.481 149.149 138.149 148.012 138.919 146.733C141.414 142.61 141.382 142.658 141.716 142.515C142.026 142.388 142.336 142.411 142.701 142.594ZM117.309 146.098C117.278 147.011 117.238 147.838 117.222 147.949C117.206 148.06 117.166 148.95 117.143 149.935C117.111 150.92 117.079 151.866 117.063 152.04C117.047 152.215 117.015 152.986 116.992 153.749C116.96 154.511 116.92 155.457 116.904 155.854C116.88 156.243 116.849 157.101 116.825 157.761C116.801 158.412 116.761 159.31 116.745 159.747C116.722 160.184 116.69 161.058 116.666 161.693C116.642 162.329 116.61 163.163 116.586 163.561C116.563 163.95 116.531 164.848 116.507 165.547C116.483 166.246 116.443 167.16 116.428 167.573C116.412 167.986 116.372 168.828 116.348 169.44C116.324 170.051 116.293 170.925 116.269 171.386C116.253 171.847 116.213 172.721 116.189 173.333C116.165 173.944 116.134 174.834 116.11 175.319C116.038 177.114 115.991 178.211 115.951 179.172C115.903 180.404 115.84 181.953 115.792 183.145C115.768 183.645 115.736 184.559 115.713 185.17C115.689 185.782 115.657 186.569 115.633 186.918C115.609 187.268 115.577 188.197 115.554 188.984C115.395 193.942 114.688 197.715 112.876 203.245C112.201 205.311 110.461 209.871 110.215 210.228C110.207 210.244 110.072 210.149 109.913 210.006C109.349 209.513 108.3 209.124 107.506 209.124C107.315 209.124 107.172 209.1 107.188 209.061C107.482 208.393 108.491 205.748 108.848 204.683C110.509 199.797 111.462 195.245 111.867 190.295C111.971 189.016 112.002 185.846 111.931 183.899C111.907 183.2 111.915 182.143 111.939 181.556C111.971 180.968 112.018 179.855 112.05 179.093C112.082 178.33 112.114 177.361 112.137 176.948C112.209 175.486 112.257 174.246 112.415 170.512C112.503 168.439 112.59 166.309 112.614 165.785C112.717 163.314 112.813 161.082 112.852 160.065C112.876 159.453 112.916 158.611 112.932 158.198C112.948 157.785 112.987 156.903 113.011 156.251C113.035 155.592 113.067 154.805 113.091 154.503C113.107 154.194 113.146 153.32 113.17 152.557C113.194 151.794 113.234 150.952 113.25 150.69C113.266 150.428 113.321 149.117 113.377 147.782L113.472 145.351L115.268 144.914C116.253 144.668 117.127 144.469 117.214 144.461C117.349 144.453 117.357 144.525 117.309 146.098ZM97.1296 145.351C97.1296 145.899 97.5268 146.566 98.369 147.425C98.7027 147.774 98.9728 148.068 98.9648 148.076C98.9569 148.076 98.3213 148.235 97.5507 148.418L96.1524 148.751L95.2308 148.418C94.1582 148.044 93.8563 147.862 93.6577 147.472C93.4829 147.146 93.4591 146.598 93.618 146.296C93.8722 145.812 94.0708 145.716 95.628 145.319C96.4543 145.113 97.1216 144.946 97.1216 144.938C97.1296 144.93 97.1296 145.121 97.1296 145.351ZM136.671 149.157C136.615 149.387 136.584 149.649 136.6 149.736C136.623 149.824 136.663 150.142 136.687 150.452C136.719 150.753 136.774 151.238 136.814 151.524C136.854 151.81 136.886 152.168 136.886 152.319V152.605L133.89 152.787C132.238 152.883 130.784 152.978 130.649 152.994C130.522 153.01 129.981 153.042 129.457 153.073C128.933 153.097 128.305 153.137 128.067 153.153C127.828 153.177 127.026 153.232 126.279 153.272C125.54 153.32 124.611 153.375 124.214 153.399C123.824 153.423 122.227 153.526 120.678 153.622C119.129 153.717 117.842 153.772 117.818 153.741C117.786 153.693 117.897 150.007 117.929 149.959C117.945 149.935 118.819 149.88 121.751 149.697C124.833 149.506 125.421 149.466 126.041 149.419C126.303 149.403 126.915 149.363 127.391 149.331C127.876 149.307 130.069 149.164 132.278 149.021C134.486 148.878 136.401 148.759 136.536 148.751L136.782 148.743L136.671 149.157ZM67.4556 150.809C69.9106 151.047 72.4926 151.89 74.4391 153.089C76.0917 154.114 76.1632 154.178 87.4528 165.459L98.3531 176.352L96.3113 178.401C95.1831 179.53 94.1264 180.523 93.9675 180.61C93.6418 180.777 93.0142 180.809 92.6566 180.674C92.5375 180.634 90.7737 178.934 88.7398 176.916C86.706 174.89 84.9342 173.174 84.8071 173.11C84.1954 172.8 83.2817 172.8 82.6859 173.102C82.5429 173.174 79.1901 176.455 75.2336 180.404C67.6463 187.983 67.8926 187.753 67.2093 187.753C66.6294 187.745 66.4466 187.578 60.1781 181.277C54.3149 175.382 54.0447 175.128 53.6316 174.993C53.0675 174.818 52.4955 174.818 51.9552 175.001C51.558 175.128 51.3514 175.311 49.8101 176.836C48.8726 177.766 47.9987 178.56 47.8795 178.608C47.4426 178.775 46.8547 178.719 46.4654 178.465C46.2747 178.338 44.495 176.614 42.5168 174.628L38.9178 171.021L46.807 163.084C51.1449 158.722 55.0219 154.885 55.4112 154.551C58.7481 151.77 63.1654 150.396 67.4556 150.809ZM173.035 151.349C173.035 151.468 172.963 152.39 172.876 153.391C172.645 155.981 172.002 163.68 172.002 163.783C172.002 163.862 170.921 163.139 168.776 161.606C165.193 159.056 162.897 157.125 161.959 155.862C161.078 154.686 161.054 154.027 161.848 152.43L162.166 151.786L163.723 151.691C164.581 151.643 165.519 151.58 165.805 151.564C166.091 151.54 166.909 151.484 167.632 151.445C169.134 151.349 170.008 151.294 171.247 151.214C171.732 151.175 172.327 151.143 172.582 151.135C173.027 151.127 173.035 151.127 173.035 151.349ZM183.442 158.198C185.826 160.526 188.201 162.853 188.718 163.37L189.663 164.307L189.457 164.57C188.082 166.294 187.685 166.834 186.978 167.89C186.183 169.09 185.357 170.496 184.761 171.688C184.491 172.228 184.451 172.268 184.316 172.165C182.958 171.211 180.534 169.543 179.017 168.526C177.96 167.819 177.11 167.199 177.126 167.152C177.142 167.096 177.174 166.802 177.198 166.5C177.221 166.19 177.301 165.316 177.364 164.554C177.428 163.791 177.555 162.305 177.643 161.257C177.73 160.208 177.817 159.167 177.833 158.952C177.857 158.73 177.968 157.411 178.079 156.013C178.199 154.615 178.31 153.423 178.326 153.359C178.373 153.216 177.984 152.851 183.442 158.198ZM137.235 155.489C137.354 156.601 137.465 157.642 137.481 157.793C137.624 158.984 137.823 160.851 137.887 161.574C137.99 162.671 138.316 163.274 138.999 163.608L139.364 163.783L136.623 166.524L133.874 169.273L133.533 168.995C123.252 160.661 118.581 156.927 118.461 156.927C118.303 156.927 118.064 157.133 117.842 157.459C117.675 157.713 117.603 157.689 117.627 157.379C117.635 157.244 117.667 156.569 117.691 155.894C117.723 155.218 117.762 154.654 117.786 154.631C117.802 154.615 119.939 154.464 122.529 154.297C128.607 153.915 128.822 153.9 130.45 153.788C130.776 153.772 131.404 153.733 131.841 153.701C132.278 153.677 133.12 153.622 133.708 153.582C134.296 153.542 135.249 153.486 135.813 153.463C136.385 153.431 136.862 153.399 136.878 153.375C136.981 153.288 137.044 153.653 137.235 155.489ZM155.429 154.162C155.643 154.488 156.104 157.062 156.263 158.794C156.342 159.58 156.319 164.053 156.239 164.673C156.215 164.848 156.16 165.428 156.104 165.96C155.993 167.064 155.89 167.271 155.492 167.128C155.302 167.056 155.278 167.009 155.278 166.699C155.278 166.357 155.445 164.315 155.524 163.64C155.54 163.465 155.556 162.536 155.556 161.574C155.556 159.215 155.421 157.785 155 155.6C154.722 154.194 154.73 154.273 154.889 154.114C155.063 153.931 155.294 153.955 155.429 154.162ZM218.201 156.49C218.376 156.513 218.932 156.593 219.432 156.656C224.04 157.268 228.76 159.127 232.708 161.9C234.21 162.957 235.258 163.839 236.72 165.3C238.977 167.565 240.494 169.583 241.972 172.3C245.936 179.601 246.731 188.348 244.141 196.246C243.291 198.859 241.734 201.998 240.232 204.127L239.811 204.731L238.484 204.286C237.745 204.039 237.149 203.809 237.141 203.777C237.133 203.738 237.38 203.364 237.682 202.943C240.494 199.05 242.321 194.164 242.782 189.302C242.893 188.126 242.83 184.4 242.671 183.303C241.94 178.06 239.994 173.476 236.76 169.4C235.95 168.375 233.654 166.087 232.581 165.237C228.219 161.773 223.166 159.731 217.661 159.223C216.199 159.088 212.949 159.175 211.559 159.382C206.919 160.073 202.979 161.646 199.229 164.299C198.76 164.641 198.315 164.943 198.259 164.991C198.164 165.054 197.926 164.856 197.187 164.117C196.662 163.592 196.233 163.147 196.233 163.124C196.233 163.036 197.989 161.757 198.951 161.145C203.145 158.476 207.817 156.895 212.838 156.458C213.688 156.378 217.621 156.41 218.201 156.49ZM121.655 160.398C123.371 161.781 125.985 163.902 127.471 165.102C128.957 166.301 132.603 169.249 135.575 171.648C138.546 174.048 141.057 176.09 141.152 176.185C141.303 176.328 141.358 176.622 141.613 178.457C142.018 181.397 142.058 181.73 142.026 181.762C142.01 181.786 140.516 180.602 138.705 179.14C136.893 177.678 131.38 173.213 126.438 169.217L117.46 161.956L117.492 160.867C117.532 159.159 117.556 159.08 118.056 158.436C118.295 158.134 118.501 157.88 118.517 157.88C118.525 157.88 119.939 159.016 121.655 160.398ZM218.082 160.065C221.601 160.438 224.89 161.463 228.005 163.147C230.333 164.403 232.128 165.737 234.067 167.644L235.076 168.629L234.186 169.019C229.562 171.037 224.7 174.016 221.037 177.083C220.147 177.829 218.296 179.522 217.78 180.07L217.518 180.34L216.946 180.189C216.246 179.99 214.689 179.959 214.038 180.118L213.617 180.229L212.449 179.077C211.813 178.441 208.476 175.168 205.036 171.791C201.588 168.415 198.776 165.642 198.776 165.626C198.776 165.547 200.659 164.244 201.437 163.775C204.909 161.709 208.707 160.446 212.719 160.033C213.807 159.922 216.922 159.938 218.082 160.065ZM122.267 166.858C124.825 168.923 127.606 171.172 128.448 171.847C129.282 172.53 129.974 173.11 129.974 173.134C129.974 173.261 123.649 179.45 123.093 179.871C122.331 180.443 120.932 181.317 120.773 181.317C120.718 181.317 120.193 181.142 119.621 180.928C119.041 180.713 118.16 180.412 117.659 180.261L116.745 179.982V179.553C116.745 179.013 116.872 175.525 116.904 175.001C116.92 174.779 116.952 173.96 116.984 173.174C117.008 172.387 117.047 171.513 117.063 171.227C117.079 170.941 117.119 170.099 117.143 169.36C117.166 168.613 117.206 167.724 117.222 167.374C117.238 167.024 117.278 166.151 117.302 165.428C117.365 163.481 117.421 162.941 117.524 163.028C117.58 163.068 119.709 164.792 122.267 166.858ZM139.968 166.556C140.103 167.66 140.429 170.004 140.675 171.768C140.922 173.523 141.096 174.985 141.072 175.009C141.049 175.033 139.555 173.865 137.759 172.411L134.494 169.773L137.06 167.175C138.475 165.745 139.642 164.57 139.666 164.562C139.69 164.562 139.825 165.459 139.968 166.556ZM193.334 167.89L194.279 168.836L193.906 169.297C190.545 173.484 188.527 178.282 187.844 183.661C187.589 185.663 187.661 188.968 188.003 191.121C188.011 191.193 185.444 192.249 185.397 192.194C185.349 192.138 185.119 190.47 185.031 189.5C184.928 188.483 184.904 185.298 184.984 184.495C185.206 182.334 185.444 180.928 185.881 179.212C186.795 175.637 188.503 171.998 190.696 168.963C191.427 167.954 192.245 166.937 192.325 166.937C192.356 166.937 192.809 167.366 193.334 167.89ZM157.002 168.018C159.655 169.503 164.645 171.895 169.181 173.857L171.064 174.675L171.017 175.351C170.985 175.724 170.945 176.193 170.929 176.391C170.905 176.59 170.858 177.194 170.81 177.742C170.762 178.29 170.707 178.91 170.691 179.132C170.667 179.347 170.619 180.014 170.572 180.602C170.524 181.19 170.476 181.818 170.452 181.993C170.437 182.167 170.365 182.986 170.294 183.82C170.23 184.646 170.159 185.472 170.143 185.647C170.127 185.822 170.063 186.521 170.008 187.196L169.912 188.428L169.491 189.063C168.037 191.288 167.505 192.71 167.568 194.188C167.624 195.34 167.958 196.103 168.8 196.976C169.07 197.262 169.15 197.398 169.126 197.556C169.102 197.763 169.086 197.763 168.387 197.191C167.998 196.865 164.208 193.806 159.965 190.382C155.731 186.958 152.211 184.106 152.148 184.05C152.044 183.963 152.06 183.804 152.251 182.89C152.37 182.31 152.648 181.317 152.871 180.682C153.88 177.774 154.46 175.732 154.912 173.492C155.175 172.165 155.516 169.797 155.596 168.764C155.651 167.946 155.723 167.334 155.755 167.334C155.77 167.334 156.327 167.644 157.002 168.018ZM236.784 170.735C241.495 177.003 243.203 185.337 241.36 193.036C240.55 196.444 238.969 199.853 236.871 202.736L236.275 203.555L235.894 203.436C232.001 202.228 227.894 201.163 227.051 201.148C226.607 201.14 226.487 201.171 226.201 201.354C225.844 201.592 225.518 202.101 225.439 202.53C225.351 203.038 225.582 203.531 226.511 204.834C227.544 206.264 228.267 207.241 229.181 208.425C229.546 208.894 229.84 209.299 229.84 209.339C229.84 209.434 228.601 210.165 227.369 210.793C224.024 212.493 220.553 213.422 216.668 213.653C209.334 214.082 201.962 211.301 196.559 206.057L195.566 205.096L196.837 204.421C197.528 204.047 199.888 202.784 202.073 201.616C204.258 200.448 206.53 199.233 207.118 198.915C207.706 198.597 210.479 197.112 213.275 195.618C218.908 192.599 218.693 192.726 219.512 192.059C221.196 190.708 222.062 188.944 222.07 186.879C222.07 184.463 220.886 182.279 218.892 181.015L218.296 180.642L219.202 179.776C222.737 176.399 226.829 173.547 231.628 171.108C232.589 170.616 233.876 169.996 234.488 169.726L235.6 169.241L235.823 169.495C235.95 169.638 236.379 170.194 236.784 170.735ZM202.073 176.471C205.616 179.935 208.699 182.962 208.937 183.192L209.366 183.613L209.152 184.09C208.755 184.98 208.604 185.711 208.596 186.807L208.588 187.816L206.76 188.674C205.759 189.143 204.464 189.755 203.9 190.025C203.328 190.295 202.542 190.668 202.152 190.851C201.755 191.034 198.935 192.361 195.868 193.799C192.809 195.237 190.283 196.412 190.259 196.412C190.124 196.412 189.107 192.956 188.956 192.003L188.908 191.677L193.032 190.041C195.296 189.143 199.427 187.498 202.224 186.394C207.539 184.281 207.555 184.273 207.316 183.899C207.11 183.574 207.714 183.359 199.372 186.68C196.885 187.665 193.492 189.016 191.84 189.675C190.187 190.327 188.813 190.851 188.789 190.827C188.734 190.764 188.543 189.191 188.511 188.491L188.487 187.919L190.116 186.751C192.062 185.361 192.603 184.94 193.04 184.463C193.929 183.502 194.215 182.016 193.755 180.785C193.58 180.308 192.412 178.473 191.379 177.051L190.68 176.074L191.26 174.906C192.134 173.134 193.143 171.537 194.311 170.051L194.835 169.392L195.232 169.781C195.455 169.996 198.537 173.007 202.073 176.471ZM153.443 170.274C154.054 170.322 154.571 170.369 154.587 170.393C154.642 170.449 154.444 171.744 154.158 173.213C153.697 175.541 153.165 177.448 152.116 180.483C151.44 182.422 151.115 184.233 150.948 186.998C150.821 189.151 150.956 192.726 151.258 194.847C151.29 195.102 151.29 195.324 151.258 195.34C151.099 195.443 150.034 195.729 149.176 195.904C147.54 196.238 146.054 196.166 144.743 195.689L144.298 195.523L144.242 194.204C144.219 193.473 144.171 192.662 144.147 192.4C143.964 190.414 143.504 186.442 143.202 184.297C143.146 183.86 143.035 183.073 142.963 182.549C142.9 182.024 142.773 181.111 142.685 180.523C142.606 179.935 142.423 178.648 142.288 177.663C142.153 176.677 141.938 175.144 141.811 174.246C141.47 171.831 141.462 172.022 141.891 171.895C142.773 171.625 145.768 170.909 146.777 170.727C147.73 170.552 149.446 170.33 150.392 170.258C151.25 170.187 152.473 170.194 153.443 170.274ZM136.806 178.608C139.579 180.856 141.938 182.771 142.042 182.874C142.264 183.089 142.264 183.057 142.796 187.395C143.305 191.502 143.48 193.354 143.48 194.72C143.48 195.65 143.257 197.31 142.955 198.621L142.749 199.519L141.366 200.56C140.604 201.132 139.968 201.584 139.952 201.569C139.936 201.553 139.706 200.981 139.436 200.305C137.672 195.809 135.058 191.908 131.435 188.388C128.957 185.973 126.39 184.146 123.197 182.509L121.703 181.738L122.442 181.27C123.705 180.467 124.595 179.673 127.662 176.598L130.633 173.619L131.197 174.079C131.507 174.334 134.033 176.368 136.806 178.608ZM177.404 177.583C177.579 177.758 177.793 178.044 177.881 178.227L178.048 178.552L177.746 178.838C177.579 179.005 177.11 179.546 176.697 180.046L175.958 180.96L176.006 180.483C176.093 179.657 176.292 177.242 176.292 177.051V176.868L176.689 177.067C176.912 177.178 177.229 177.408 177.404 177.583ZM191.467 178.552C191.904 179.188 192.285 179.768 192.309 179.832C192.348 179.943 192.102 180.133 189.679 181.865C189.115 182.271 188.877 182.406 188.861 182.318C188.797 182.024 189.361 179.752 189.901 178.147L190.307 176.932L190.489 177.154C190.593 177.281 191.03 177.909 191.467 178.552ZM180.439 179.172C180.805 179.259 181.313 179.331 181.583 179.331H182.068L181.925 180.022C181.686 181.119 181.393 183.327 181.329 184.376C181.297 184.9 181.265 185.385 181.249 185.449C181.242 185.512 181.226 186.013 181.226 186.561L181.218 187.554L179.557 188.563C177.118 190.057 175.18 191.193 175.14 191.153C175.124 191.137 175.211 189.906 175.339 188.428C175.466 186.942 175.632 184.964 175.712 184.026L175.847 182.334L177.031 180.888C178.644 178.91 178.874 178.799 180.439 179.172ZM193.024 181.103C193.342 182.024 193.119 183.176 192.499 183.883C192.213 184.201 190.537 185.496 188.972 186.601L188.424 186.99L188.479 185.798C188.559 184.122 188.63 183.542 188.781 183.454C188.916 183.383 192.269 180.984 192.571 180.753C192.674 180.674 192.785 180.626 192.817 180.642C192.857 180.666 192.944 180.872 193.024 181.103ZM216.064 180.928C218.074 181.206 219.766 182.453 220.624 184.297C221.991 187.204 220.751 190.74 217.883 192.122C216.922 192.583 216.374 192.71 215.261 192.71C214.737 192.71 214.149 192.662 213.95 192.607C213.529 192.496 212.361 192.019 212.361 191.963C212.361 191.939 213.498 191.391 214.888 190.732C217.327 189.588 217.422 189.532 217.931 189.024C218.646 188.317 218.829 187.848 218.837 186.751C218.837 185.989 218.821 185.933 218.535 185.353C218.257 184.789 218.082 184.598 216.278 182.835L214.324 180.928L214.634 180.896C215.238 180.841 215.452 180.841 216.064 180.928ZM109.945 182.541C111.224 182.628 111.105 182.509 111.128 183.709C111.136 184.281 111.16 184.9 111.176 185.091C111.2 185.433 111.192 185.441 110.993 185.401C110.08 185.234 106.711 185.194 105.345 185.337C98.7027 186.013 92.8711 188.769 88.2552 193.401C85.832 195.832 83.9173 198.669 82.4475 202.006C81.9788 203.078 81.1605 205.597 80.8903 206.82C79.4841 213.136 80.2865 219.643 83.1784 225.403C86.5868 232.22 92.7917 237.36 100.18 239.513C102.556 240.204 104.701 240.514 107.331 240.546C110.421 240.594 112.614 240.308 115.427 239.505C125.151 236.724 132.603 228.748 134.78 218.793C134.883 218.316 134.987 217.903 135.018 217.879C135.042 217.848 135.702 217.665 136.48 217.458L137.887 217.093L137.791 217.736C137.013 222.821 134.764 227.834 131.348 232.132C130.379 233.348 127.995 235.716 126.716 236.724C116.38 244.908 102.31 245.575 91.2425 238.401C84.4655 234.015 79.6827 226.96 78.054 218.984C77.5297 216.41 77.331 213.192 77.5297 210.586C78.3559 199.956 84.7356 190.438 94.2138 185.695C99.0761 183.256 104.431 182.183 109.945 182.541ZM117.977 184.241C125.85 187.053 132.357 193.123 135.622 200.695C136.202 202.037 136.83 203.777 136.766 203.881C136.727 203.952 134.526 205.549 134.47 205.549C134.454 205.549 134.335 205.239 134.224 204.85C133.207 201.505 131.523 198.311 129.282 195.499C128.424 194.418 126.478 192.456 125.358 191.542C123.006 189.628 120.305 188.062 117.58 187.03L116.467 186.608V186.092C116.467 185.806 116.491 185.163 116.523 184.678L116.571 183.78L116.777 183.836C116.888 183.86 117.429 184.042 117.977 184.241ZM210.717 184.964C211.281 185.536 211.408 185.711 211.408 185.909C211.408 186.402 211.273 186.537 210.343 186.99C209.859 187.22 209.438 187.395 209.406 187.379C209.311 187.324 209.334 186.418 209.454 185.766C209.573 185.139 209.867 184.257 209.97 184.257C210.002 184.257 210.336 184.575 210.717 184.964ZM158.416 190.136C161.888 192.941 165.757 196.071 167.012 197.08C168.268 198.089 169.293 198.931 169.3 198.955C169.3 198.979 169.062 199.058 168.768 199.137C168.069 199.32 166.79 199.94 166.083 200.44L165.527 200.838L163.652 199.32C162.619 198.486 159.497 195.96 156.708 193.711L151.647 189.62L151.695 188.031C151.719 187.157 151.782 186.14 151.822 185.766C151.862 185.393 151.901 185.043 151.901 184.98C151.901 184.908 151.933 184.9 152.005 184.956C152.052 184.996 154.944 187.331 158.416 190.136ZM109.754 186.084C110.366 186.132 110.954 186.187 111.057 186.211L111.248 186.251L111.192 187.856C111.105 190.549 110.866 192.885 110.429 195.443C109.77 199.233 108.61 203.348 107.148 207.058C106.385 209.013 106.187 209.418 105.972 209.482C105.869 209.513 105.575 209.68 105.329 209.847C104.264 210.57 103.644 211.833 103.716 213.16C103.803 214.948 104.931 216.282 106.727 216.727C108.181 217.085 109.913 216.346 110.755 215.019C111.319 214.129 111.478 212.842 111.152 211.825C111.057 211.539 110.938 211.222 110.874 211.118C110.779 210.951 110.811 210.84 111.2 209.927C112.733 206.343 114.33 201.584 115.117 198.279C115.927 194.879 116.213 192.702 116.348 188.865C116.38 188.102 116.412 187.467 116.428 187.451C116.475 187.403 118.398 188.189 119.375 188.658C123.483 190.637 127.074 193.663 129.703 197.366C131.34 199.67 132.683 202.427 133.501 205.184L133.771 206.105L132.611 207.003C128.099 210.499 126.176 213.097 126.343 215.44C126.367 215.742 126.406 216.052 126.438 216.124C126.478 216.227 126.216 216.33 124.992 216.704C117.119 219.143 107.744 222.638 101.094 225.61C99.3065 226.412 99.3621 226.388 99.4336 226.269C99.4733 226.213 100.371 224.839 101.444 223.226C102.508 221.605 103.398 220.223 103.422 220.144C103.462 219.977 103.231 219.691 103.041 219.691C102.969 219.691 102.842 219.77 102.755 219.866C102.667 219.969 101.547 221.621 100.276 223.544L97.9558 227.04L97.0183 227.469C95.5883 228.136 91.5602 230.162 90.0746 230.972C89.3436 231.362 88.7081 231.687 88.6763 231.687C88.5571 231.687 87.6037 230.639 86.8569 229.709C83.6154 225.634 81.6133 220.676 81.1048 215.48C81.0095 214.455 80.9857 211.508 81.0651 210.713C81.4624 206.947 82.3125 203.944 83.8617 200.838C88.7239 191.145 98.9569 185.306 109.754 186.084ZM181.369 189.675C181.424 190.343 181.48 190.994 181.48 191.113C181.496 191.304 181.44 191.375 181.178 191.518C181.003 191.614 180.058 192.13 179.073 192.654C178.087 193.187 176.729 193.926 176.054 194.291C175.378 194.657 174.814 194.951 174.806 194.943C174.782 194.927 175.021 192.178 175.045 192.162C176.443 191.375 179.216 189.715 180.662 188.801C180.948 188.626 181.194 188.476 181.218 188.476C181.242 188.468 181.313 189.016 181.369 189.675ZM169.745 190.39C169.722 190.533 169.69 190.883 169.666 191.169C169.396 194.657 169.459 194.363 168.911 194.657L168.442 194.903L168.395 194.657C168.252 193.918 168.442 192.766 168.879 191.789C169.118 191.256 169.714 190.136 169.761 190.136C169.769 190.136 169.769 190.255 169.745 190.39ZM157.78 195.578C158.543 196.198 160.426 197.715 161.951 198.947C163.485 200.186 164.78 201.243 164.843 201.306C164.939 201.394 164.907 201.465 164.605 201.791C163.787 202.665 163.032 204.071 162.659 205.39C162.492 206.01 162.444 206.367 162.412 207.392L162.373 208.632L162.039 208.679C161.864 208.703 161.467 208.743 161.157 208.767C160.855 208.79 160.474 208.83 160.323 208.846C160.172 208.87 159.886 208.902 159.687 208.926C159.489 208.949 159.028 209.005 158.654 209.045C158.281 209.092 157.796 209.156 157.566 209.18L157.153 209.227L157.312 208.719C157.447 208.306 157.471 208.067 157.439 207.416C157.407 206.701 157.351 206.479 156.907 205.191C156.08 202.784 154.69 199.344 154.348 198.851C154.173 198.605 153.665 198.319 153.395 198.319C153.053 198.311 152.489 197.199 152.259 196.087C152.116 195.395 151.933 194.029 151.862 193.076C151.83 192.702 151.798 192.321 151.782 192.218C151.758 192.059 151.719 190.907 151.734 190.756C151.742 190.724 152.791 191.542 154.07 192.575C155.341 193.608 157.018 194.958 157.78 195.578ZM188.209 192.202C188.209 192.472 188.813 194.744 189.163 195.769C189.345 196.309 189.464 196.778 189.425 196.81C189.226 196.984 187.065 197.922 187.002 197.858C186.779 197.636 185.54 193.425 185.603 193.099C185.619 193.02 186.048 192.813 186.779 192.519C188.074 192.003 188.209 191.971 188.209 192.202ZM181.766 192.813C181.822 193.147 181.885 193.457 181.901 193.513C181.925 193.568 181.297 193.862 180.201 194.291C179.247 194.672 178.429 195.022 178.373 195.078C178.151 195.3 178.318 195.697 178.628 195.697C178.723 195.697 179.518 195.411 180.407 195.054C181.297 194.704 182.044 194.434 182.068 194.45C182.084 194.474 182.147 194.665 182.203 194.887L182.314 195.284L181.623 195.65C181.249 195.848 180.67 196.158 180.344 196.341C180.018 196.516 179.375 196.865 178.914 197.112C178.453 197.358 177.563 197.835 176.928 198.184C176.292 198.526 175.744 198.812 175.712 198.82C175.672 198.828 175.41 198.399 175.124 197.858L174.608 196.881L174.655 196.389L174.711 195.896L178.143 194.053C180.034 193.036 181.591 192.202 181.623 192.202C181.647 192.202 181.71 192.472 181.766 192.813ZM212.044 192.694C212.854 193.147 213.704 193.401 214.84 193.52C215.118 193.544 215.349 193.576 215.357 193.584C215.373 193.592 205.648 198.82 201.842 200.846C201.151 201.219 199.975 201.839 199.213 202.252C196.496 203.714 195.121 204.437 195.066 204.437C194.978 204.437 193.818 203.015 193.866 202.975C193.874 202.959 194.287 202.705 194.764 202.411C196.893 201.1 199.109 199.471 201.684 197.31C202.565 196.579 203.106 196.269 205.608 195.117C205.759 195.046 207.142 194.394 208.667 193.671C210.2 192.948 211.464 192.368 211.488 192.384C211.511 192.392 211.758 192.535 212.044 192.694ZM169.293 195.674C169.293 195.84 169.261 196.047 169.229 196.126C169.181 196.261 169.15 196.238 168.999 195.983C168.784 195.618 168.784 195.586 169.007 195.475C169.277 195.34 169.3 195.356 169.293 195.674ZM182.68 196.627C182.759 196.929 183.021 197.699 183.252 198.351C183.49 199.01 183.665 199.543 183.657 199.551C183.649 199.551 182.441 200.123 180.979 200.806C179.518 201.489 178.294 202.053 178.262 202.053C178.238 202.053 177.913 201.751 177.539 201.386C177.174 201.02 176.538 200.504 176.125 200.234C175.704 199.956 175.458 199.749 175.545 199.749C175.625 199.749 177.214 198.923 179.073 197.922C180.932 196.921 182.465 196.095 182.489 196.095C182.513 196.095 182.6 196.333 182.68 196.627ZM199.531 198.128C198.998 198.573 197.401 199.765 196.472 200.417C195.542 201.068 193.508 202.371 193.421 202.371C193.326 202.371 192.666 201.298 192.722 201.243C192.77 201.195 195.399 199.94 197.385 199.01C197.783 198.828 198.442 198.51 198.855 198.303C199.713 197.882 199.872 197.842 199.531 198.128ZM174.981 199.273L175.188 199.678L174.886 199.543C174.719 199.471 174.536 199.4 174.48 199.376C174.425 199.352 174.393 199.28 174.417 199.217C174.441 199.153 174.465 198.931 174.465 198.732V198.359L174.624 198.613C174.711 198.756 174.87 199.05 174.981 199.273ZM153.594 199.209C153.832 199.392 155.127 202.474 155.961 204.842L156.35 205.954L156.128 206.034C156.009 206.073 155.055 206.447 154.007 206.86C146.014 209.966 137.688 212.58 128.909 214.733C127.948 214.972 127.145 215.146 127.129 215.122C127.105 215.099 127.145 214.813 127.217 214.479C127.63 212.588 129.235 210.681 132.802 207.845C134.256 206.693 134.621 206.439 134.51 206.645C134.462 206.733 134.446 206.868 134.47 206.939C134.502 207.003 134.955 207.321 135.487 207.623C136.012 207.932 136.87 208.433 137.386 208.735C137.895 209.037 138.403 209.299 138.506 209.331C138.816 209.402 139.07 209.029 138.888 208.759C138.8 208.616 134.995 206.423 134.844 206.423C134.725 206.423 134.725 206.407 134.82 206.312C134.883 206.248 136.194 205.295 137.72 204.19C139.253 203.086 141.041 201.791 141.692 201.298C142.352 200.814 142.924 200.393 142.979 200.361C143.035 200.321 143.448 200.631 144.052 201.171C145.148 202.133 145.482 202.331 146.252 202.498C147.293 202.713 148.382 202.57 149.264 202.077C149.486 201.95 150.424 201.235 151.345 200.48C153.077 199.082 153.268 198.971 153.594 199.209ZM192.404 202.315C192.65 202.689 193.143 203.356 193.492 203.801C193.842 204.254 194.168 204.675 194.223 204.747C194.311 204.858 194.168 204.953 193.111 205.525C192.158 206.034 191.88 206.153 191.792 206.081C191.475 205.819 189.48 202.991 189.48 202.808C189.488 202.736 191.872 201.569 191.927 201.616C191.943 201.624 192.158 201.942 192.404 202.315ZM186.414 204.913C186.58 205.184 186.7 205.414 186.684 205.43C186.501 205.62 181.369 206.9 180.813 206.9C180.749 206.9 181.901 206.328 183.363 205.636C184.825 204.945 186.048 204.389 186.072 204.405C186.096 204.421 186.255 204.651 186.414 204.913ZM197.29 207.805C199.975 210.109 203.225 211.945 206.641 213.097C208.389 213.684 210.661 214.169 212.64 214.376C213.768 214.495 216.683 214.495 217.804 214.376C222.07 213.923 225.979 212.636 229.506 210.514C229.999 210.221 230.412 209.99 230.428 210.006C230.436 210.022 230.825 210.507 231.294 211.087L232.136 212.127L231.524 212.525C227.353 215.178 222.714 216.719 217.613 217.156C216.231 217.268 212.957 217.204 211.686 217.037C205.354 216.195 199.872 213.724 195.161 209.585C194.271 208.806 192.42 206.939 192.42 206.82C192.42 206.796 192.817 206.566 193.302 206.312C193.786 206.057 194.327 205.763 194.509 205.66L194.843 205.47L195.757 206.375C196.257 206.868 196.948 207.511 197.29 207.805ZM187.875 207.035C188.241 207.535 188.527 207.964 188.511 207.972C188.495 207.988 186.271 209.18 183.569 210.626C180.352 212.35 178.58 213.255 178.461 213.24C178.278 213.216 178.286 213.208 178.604 212.739C179.486 211.436 179.986 209.998 180.153 208.314L180.201 207.781L180.574 207.726C181.758 207.559 184.833 206.82 186.263 206.351C186.66 206.224 187.033 206.121 187.097 206.121C187.16 206.113 187.51 206.526 187.875 207.035ZM156.62 206.915C156.708 207.257 156.668 208.155 156.541 208.536C156.366 209.092 155.898 209.744 155.437 210.093C154.531 210.777 147.667 213.327 142.224 214.995C137.291 216.513 130.569 218.181 129.37 218.181C128.957 218.181 128.305 217.856 127.979 217.482C127.693 217.156 127.352 216.457 127.328 216.155L127.312 215.949L130.41 215.17C138.935 213.017 147.563 210.26 154.841 207.368C155.691 207.027 156.43 206.749 156.477 206.749C156.533 206.741 156.589 206.82 156.62 206.915ZM162.611 209.776C162.659 209.958 162.682 210.125 162.667 210.141C162.619 210.197 153.236 213.661 153.212 213.637C153.204 213.621 153.117 213.343 153.021 213.017C152.918 212.691 152.823 212.366 152.799 212.294C152.775 212.207 152.95 212.103 153.546 211.865C155 211.301 155.739 210.92 156.199 210.491C156.636 210.093 156.652 210.085 157.351 209.998C157.741 209.95 158.146 209.895 158.257 209.879C158.726 209.807 161.936 209.466 162.277 209.45C162.508 209.442 162.531 209.474 162.611 209.776ZM108.213 210.03C110.286 210.514 111.232 212.993 110 214.725C108.753 216.473 106.211 216.449 105.011 214.686C103.835 212.961 104.733 210.586 106.775 210.03C107.243 209.895 107.672 209.895 108.213 210.03ZM163.143 211.349C163.969 213.295 165.646 214.956 167.735 215.885L168.188 216.092L168.037 216.282C167.735 216.672 167.418 217.283 167.124 218.062C166.949 218.499 166.687 219.087 166.536 219.365C165.098 221.971 161.936 224.458 157.05 226.841C154.865 227.898 153.101 228.613 150.471 229.487C148.096 230.281 146.435 230.957 144.513 231.918C137.545 235.406 133.382 239.918 132.532 244.892L132.397 245.678L132.039 245.639C130.927 245.519 128.798 245.376 127.074 245.313C126.375 245.281 125.659 245.249 125.485 245.233C125.31 245.218 123.753 245.202 122.029 245.194H118.89L120.003 244.765C129.314 241.213 136.687 233.562 139.968 224.052C140.707 221.899 141.263 219.58 141.557 217.387L141.692 216.394L142.169 218.014C142.526 219.23 142.685 219.659 142.812 219.738C142.963 219.842 143.504 219.691 148.358 218.229C151.313 217.339 153.784 216.561 153.848 216.513C154.015 216.378 153.999 216.274 153.713 215.289C153.57 214.797 153.49 214.407 153.53 214.392C155.5 213.621 162.921 210.912 162.953 210.944C162.976 210.967 163.064 211.15 163.143 211.349ZM152.672 214.558C152.91 215.337 153.093 215.981 153.077 215.988C152.974 216.06 143.321 218.92 143.289 218.888C143.226 218.825 142.447 216.259 142.447 216.116C142.447 216.028 143.662 215.631 147.198 214.55C149.804 213.764 152.012 213.12 152.092 213.12C152.219 213.136 152.322 213.375 152.672 214.558ZM126.978 217.458C127.534 218.348 128.329 218.872 129.243 218.952C129.799 218.992 130.164 218.928 132.738 218.364C133.445 218.205 134.049 218.102 134.073 218.126C134.137 218.189 133.827 219.524 133.461 220.724C131.69 226.587 127.781 231.87 122.68 235.286C119.359 237.511 115.474 238.981 111.422 239.553C111.073 239.601 110.683 239.656 110.548 239.68C109.905 239.783 106.727 239.807 105.623 239.712C101.078 239.338 96.8912 237.876 92.9903 235.302C91.449 234.285 89.1689 232.426 89.3039 232.291C89.5105 232.077 96.9707 228.287 97.0342 228.359C97.0581 228.382 96.486 229.28 95.771 230.361C94.9368 231.608 94.4601 232.395 94.4601 232.522C94.4601 232.768 94.7938 232.959 95.0004 232.832C95.0719 232.784 95.8981 231.592 96.8356 230.17L98.5517 227.596L99.942 226.976C107.784 223.465 115.331 220.596 124.015 217.824C125.437 217.371 126.621 216.997 126.645 216.997C126.668 216.99 126.819 217.196 126.978 217.458Z" fill="black"/>
<path d="M224.167 189.81C223.969 190.025 224.056 190.327 224.334 190.446C225.637 190.962 237.793 195.221 237.944 195.205C238.198 195.173 238.349 194.8 238.174 194.625C238.071 194.522 224.914 189.778 224.477 189.683C224.382 189.659 224.255 189.715 224.167 189.81Z" fill="black"/>
<path d="M91.7589 194.347C91.6715 194.434 91.6 194.553 91.6 194.617C91.6 194.784 101.761 206.534 101.984 206.622C102.111 206.669 102.222 206.669 102.31 206.614C102.691 206.375 102.691 206.375 97.5586 200.425C92.744 194.839 92.1641 194.188 91.9972 194.188C91.9575 194.188 91.8463 194.259 91.7589 194.347Z" fill="black"/>
<path d="M137.124 204.739C136.727 205.064 136.862 205.176 139.317 206.542C142.081 208.083 141.978 208.036 142.201 207.885C142.391 207.75 142.423 207.44 142.264 207.305C142.113 207.186 137.624 204.691 137.45 204.635C137.37 204.611 137.227 204.659 137.124 204.739Z" fill="black"/>
<path d="M75.6309 89.0538C75.5196 89.1332 68.7665 95.2587 60.6151 102.671C50.4616 111.903 45.7186 116.273 45.5438 116.535C44.9559 117.441 44.7413 118.116 44.6778 119.189C44.5745 120.841 44.8923 121.548 46.9103 124.154C47.7207 125.203 48.4834 126.275 48.6184 126.545C49.262 127.864 49.0633 129.549 48.1338 130.677C47.9828 130.86 43.8277 134.705 38.886 139.225C15.2898 160.827 15.2898 160.819 15.266 161.026C15.2342 161.272 15.3772 161.455 15.5997 161.455C15.7109 161.455 21.0181 156.648 32.1249 146.471C41.1264 138.232 48.6264 131.32 48.7932 131.114C49.683 130.049 50.0088 128.508 49.6513 127.094C49.4288 126.228 49.1905 125.838 47.5618 123.717C46.7673 122.692 46.0125 121.628 45.8695 121.35C45.226 120.078 45.3213 118.442 46.092 117.131C46.3065 116.781 49.0792 114.223 61.211 103.196C69.3862 95.7672 76.1155 89.6338 76.1711 89.5702C76.3062 89.3954 76.2903 89.2604 76.1076 89.0776C75.9169 88.8869 75.8772 88.879 75.6309 89.0538Z" fill="black"/>
<path d="M4.96946 169.05C4.85824 169.154 4.84235 169.424 4.84235 170.759C4.84235 172.236 4.85029 172.348 5.00124 172.499C5.19192 172.689 5.23164 172.689 5.46204 172.53C5.63683 172.411 5.63683 172.371 5.63683 170.759C5.63683 169.583 5.613 169.09 5.54149 169.019C5.40643 168.884 5.11247 168.899 4.96946 169.05Z" fill="black"/>
<path d="M0.131082 173.913C-0.0278145 174.087 -0.0437041 174.334 0.0913581 174.469C0.162862 174.54 0.655441 174.564 1.83128 174.564C3.4123 174.564 3.49175 174.556 3.59503 174.397C3.73009 174.207 3.68242 173.952 3.49969 173.849C3.42819 173.817 2.66548 173.778 1.81539 173.77C0.393262 173.762 0.250255 173.778 0.131082 173.913Z" fill="black"/>
<path d="M6.94778 173.905C6.80477 174.04 6.78888 174.334 6.92394 174.469C6.99545 174.54 7.48803 174.564 8.65592 174.564C10.4197 174.564 10.4832 174.548 10.4832 174.151C10.4832 173.809 10.2449 173.762 8.56058 173.77C7.35297 173.778 7.04312 173.801 6.94778 173.905Z" fill="black"/>
<path d="M4.97741 175.899C4.85824 176.026 4.84235 176.264 4.84235 177.607C4.84235 179.069 4.85029 179.18 5.00124 179.331C5.19986 179.53 5.33493 179.53 5.50177 179.347C5.62094 179.22 5.63683 178.981 5.63683 177.631C5.63683 176.701 5.60505 176.002 5.55738 175.907C5.4541 175.716 5.14425 175.708 4.97741 175.899Z" fill="black"/>
<path d="M258.243 225.125C258.179 225.228 258.14 225.363 258.163 225.427C258.195 225.498 258.577 225.872 259.029 226.277C259.474 226.674 260.626 227.795 261.588 228.764C269.088 236.375 275.285 245.782 279.464 255.88C280.179 257.604 280.306 257.778 280.647 257.556C280.759 257.484 280.846 257.373 280.846 257.302C280.846 257.238 280.616 256.618 280.338 255.935C276.254 245.869 269.842 236.065 262.335 228.398C260.34 226.364 258.775 224.934 258.545 224.934C258.442 224.934 258.314 225.014 258.243 225.125Z" fill="black"/>
<path d="M193.413 251.399C192.889 251.621 191.57 252.09 190.474 252.455C188.082 253.258 186.477 253.893 184.674 254.759C181.226 256.428 178.644 258.184 176.483 260.329C174.028 262.776 172.614 265.286 172.137 268.083C172.073 268.432 172.01 268.726 171.994 268.742C171.978 268.758 171.43 268.726 170.77 268.671C167.886 268.424 164.979 268.305 161.793 268.289C159.274 268.281 156.795 268.345 156.072 268.432C155.945 268.448 155.548 268.488 155.198 268.512C152.616 268.703 150.05 269.251 148.652 269.91C147.397 270.498 146.745 271.165 146.578 272.031C146.221 273.938 145.665 275.718 144.799 277.807C144.155 279.341 142.399 282.908 141.462 284.584C141.088 285.26 140.779 285.863 140.779 285.943C140.779 286.141 140.937 286.269 141.192 286.269C141.438 286.269 141.557 286.078 142.709 283.965C144.926 279.873 146.658 275.638 147.174 273.04C147.428 271.737 147.476 271.642 147.929 271.229C148.612 270.617 149.812 270.148 151.607 269.783C153.149 269.481 154.158 269.37 157.598 269.147C158.353 269.092 164.677 269.092 165.328 269.139C165.566 269.163 166.305 269.195 166.957 269.227C168.149 269.275 170.905 269.449 171.97 269.553C172.51 269.6 172.55 269.592 172.661 269.418C172.725 269.314 172.804 268.996 172.828 268.71C172.86 268.424 172.971 267.844 173.082 267.415C173.686 265.024 174.989 262.919 177.222 260.758C180.392 257.691 185.087 255.069 190.791 253.178C191.665 252.892 192.928 252.439 193.596 252.177C194.629 251.764 194.811 251.669 194.851 251.502C194.907 251.279 194.7 250.986 194.494 251.001C194.422 251.001 193.937 251.184 193.413 251.399Z" fill="black"/>
</svg>
