<?xml version="1.0" encoding="utf-8"?>
<!-- Generator: Adobe Illustrator 16.0.0, SVG Export Plug-In . SVG Version: 6.00 Build 0)  -->
<!DOCTYPE svg PUBLIC "-//W3C//DTD SVG 1.1//EN" "http://www.w3.org/Graphics/SVG/1.1/DTD/svg11.dtd">
<svg version="1.1" id="Layer_1" xmlns="http://www.w3.org/2000/svg" xmlns:xlink="http://www.w3.org/1999/xlink" x="0px" y="0px"
	 width="800px" height="289.162px" viewBox="0 0 800 289.162" enable-background="new 0 0 800 289.162" xml:space="preserve">
<path fill-rule="evenodd" clip-rule="evenodd" fill="#BE5353" d="M97.317,44.636c18.006,11.751,25.542,28.33,25.542,48.857
	c0,20.618-9.244,35.277-26.458,47.875c-9.138,6.685-23.849,9.361-34.992,8.915c-12.18-0.488-22.733-2.229-30.757-7.578
	c-16.72-11.147-23.775-26.165-24.646-44.797L5.912,5.547c13.172,0,23.849,11.116,23.849,24.829l-0.001,5.479l42.704-0.075
	C80.886,35.764,88.701,39.014,97.317,44.636z M30.047,95.787L30.01,58.98l20.181,0.004l19.306-0.072
	c0.649,0.06,9.64,1.915,14.754,5.254c10.689,6.976,15.161,16.816,15.161,29c0,12.239-5.486,20.941-15.706,28.418
	c-5.425,3.969-14.157,5.557-20.771,5.292c-7.229-0.29-13.494-1.323-18.257-4.498C34.753,115.762,30.565,106.848,30.047,95.787z"/>
<path fill-rule="evenodd" clip-rule="evenodd" fill="#008CBA" d="M255.888,82.649h-48.337c0,0-6.454,1.841-6.454,11.236
	c0,7.227,3.561,11.299,6.694,11.299c3.135,0,32.075,0,32.075,0s9.714,0.689,15.058-18.195
	C255.6,84.601,255.888,82.649,255.888,82.649z"/>
<path fill="#BE5353" d="M390.029,37.821h115.569v4.552c0,10.057-10.316,18.209-20.876,18.209h-25.016v90.873h-2.521
	c-11.744,0-21.264-9.52-21.264-21.264V60.583h-27.943C394.57,60.583,390.029,50.392,390.029,37.821z"/>
<path fill="#BE5353" d="M543.331,35.812c12.559,0,23.461,10.124,23.461,22.613v42.506c3.784,15.277,17.574,26.601,34.01,26.601
	c16.439,0,30.235-11.329,34.016-26.612h0.348V58.425c0-12.489,10.901-22.613,23.392-22.613l0.068,65.098v0.693
	c-2.572,28.229-27.42,50.395-57.706,50.395c-30.525,0-55.529-22.517-57.705-51.067L543.331,35.812z"/>
<path fill="#BE5353" d="M256.267,35.904c0,12.558-7.972,22.888-20.46,22.888h-23.503c-15.966,3.936-23.845,20.688-23.845,34.583
	c0,16.439,6.59,29.258,25.18,34.6h22.168c12.489,0,20.46,10.664,20.46,23.152l-42.618,0.068h-0.694
	c-28.23-2.569-50.396-27.419-50.396-57.705c0-30.526,22.518-55.529,51.067-57.706L256.267,35.904z"/>
<path fill="#BE5353" d="M726.464,93.375l0.004,0.643l-0.018,5.366l-0.004,28.64c0,12.293-10.142,22.257-22.652,22.257h-2.326
	l0.061-69.073c4.585-25.425,25.015-43.51,50.104-45.422l42.642,0.118c0,12.558-7.973,22.888-20.461,22.888h-22.18
	C735.668,62.728,726.464,76.94,726.464,93.375z"/>
<path fill="#BE5353" d="M318.355,94.293c0,16.438,6.644,24.305,24.323,31.338c8.645,3.44,23.744,2.344,23.744,2.344
	c12.489,0,20.46,10.664,20.46,23.152l-42.62,0.068h-0.692c-28.23-2.569-50.397-27.419-50.397-57.705c0-2.982,0-58.253,0-58.253
	c13.537,0,25.181,10.169,25.181,22.714V94.293z"/>
<path fill-rule="evenodd" clip-rule="evenodd" fill="#008CBA" d="M513.845,247.636c0,0-74.273-49.291-223.498-49.291
	c-40.429,0-150.32-3.543-287.747,31.481c0,0,99.951-38.568,259.218-48.697c27.881-1.774,121.288-4.813,178.936,14.855
	c13.691,4.67,40.429,13.081,58.827,32.07C506.642,235.344,513.845,247.636,513.845,247.636z"/>
<path fill-rule="evenodd" clip-rule="evenodd" fill="#BE5353" d="M288.754,221.348c0,0,74.274,49.29,223.5,49.29
	c40.427,0,150.319,3.543,287.746-31.481c0,0-99.951,38.57-259.22,48.698c-27.88,1.773-121.287,4.813-178.934-14.854
	c-13.692-4.672-40.43-13.083-58.829-32.072C295.958,233.641,288.754,221.348,288.754,221.348z"/>
</svg>
