<svg width="33" height="39" viewBox="0 0 33 39" fill="none" xmlns="http://www.w3.org/2000/svg">
<path d="M13.567 17.2854L14.1406 17.4725L13.5753 12.8026L12.7529 13.5305C13.5141 14.6211 13.8158 15.9726 13.567 17.2854Z" fill="#0A4D83"/>
<path d="M12.1839 16.8356C12.2914 16.0159 12.1083 15.1864 11.6742 14.4849L9.87036 16.0825L12.1839 16.8356Z" fill="#0A4D83"/>
<path d="M20.527 14.7979C19.5312 16.5565 20.1893 18.7759 21.9963 19.7457C22.5485 20.0425 23.1718 20.1995 23.7985 20.1995C25.1627 20.1995 26.4197 19.4775 27.0778 18.3153C28.0738 16.5567 27.4151 14.3369 25.6079 13.3668C25.0557 13.0704 24.4324 12.9131 23.8064 12.9131C23.7943 12.9131 23.7823 12.9152 23.7695 12.9152L24.5077 16.4149C24.5872 16.7944 24.336 17.1646 23.947 17.2422C23.898 17.2523 23.8489 17.2564 23.8014 17.2564C23.4671 17.2564 23.1669 17.028 23.0967 16.6966L22.3598 13.1968C21.5925 13.5096 20.9415 14.0659 20.527 14.7979Z" fill="#0A4D83"/>
<path d="M6.67153 19.5573C7.22375 19.8546 7.8473 20.0108 8.47404 20.0108C9.82303 20.0108 11.0645 19.3041 11.728 18.1654L8.25002 17.0329C8.0079 16.9544 7.82616 16.7561 7.77415 16.5128C7.72168 16.2692 7.80533 16.0173 7.99422 15.8496L10.7074 13.4475C10.5736 13.3504 10.4349 13.2586 10.2843 13.1787C9.73209 12.8823 9.10854 12.725 8.48256 12.725C7.1176 12.725 5.86092 13.4469 5.20331 14.6098C4.20609 16.3675 4.86507 18.5872 6.67153 19.5573Z" fill="#0A4D83"/>
<path d="M20.144 10.2356L14.9153 11.855L15.4859 16.5998L20.144 10.2356Z" fill="#0A4D83"/>
<path d="M0.57929 19.8124C0.680427 20.0861 1.58472 22.5212 2.2104 23.5511C5.40904 29.4742 9.79562 34.5421 15.2497 38.6198C15.3487 38.7319 15.4714 38.8245 15.6116 38.8916C15.7351 38.9508 15.8688 38.9856 16.0048 38.9945C16.0402 38.9985 16.0769 39 16.1123 39C16.2925 39 16.4749 38.9565 16.6414 38.8741C16.7596 38.8161 16.8633 38.7358 16.9498 38.6406C29.1498 29.5433 31.5268 20.008 31.6147 19.6354C31.9747 18.2977 32.1577 16.9592 32.1577 15.657C32.1578 7.02369 24.9449 0 16.079 0C7.21292 0 0 7.02369 0 15.6578C0 16.9374 0.174593 18.2465 0.519673 19.5512C0.527734 19.6396 0.547353 19.7274 0.57929 19.8124ZM10.9787 11.9514C11.2707 12.1084 11.5391 12.2911 11.7872 12.4912L13.3679 11.092L13.1891 9.6149H12.21C11.7666 9.6149 11.4068 9.26451 11.4068 8.83281C11.4068 8.40126 11.7666 8.05087 12.21 8.05087H15.2745C15.7178 8.05087 16.0776 8.40126 16.0776 8.83281C16.0776 9.26451 15.7178 9.6149 15.2745 9.6149H14.6378L14.7372 10.4401L21.3457 8.39327L21.2526 7.95224C20.6196 8.19926 19.7309 8.44436 18.8436 8.3438C18.4482 8.29923 18.1658 7.95091 18.212 7.5666C18.2575 7.1823 18.6173 6.90728 19.0098 6.95142C20.1214 7.07478 21.384 6.33949 21.3976 6.33209C21.5969 6.21317 21.8445 6.19687 22.0591 6.28855C22.2734 6.37977 22.4296 6.56578 22.4778 6.78955L23.4752 11.5244C23.5853 11.5172 23.6945 11.5138 23.806 11.5138C24.6747 11.5138 25.5387 11.7312 26.3036 12.1414C28.8042 13.4851 29.7163 16.5586 28.3379 18.9939C27.4266 20.6009 25.6876 21.6004 23.7988 21.6004C22.9301 21.6004 22.0661 21.3832 21.3011 20.9729C18.8006 19.6295 17.887 16.556 19.2668 14.1205C19.8878 13.0246 20.8923 12.2122 22.0661 11.8054L21.7752 10.4231L15.5754 18.8933C15.5726 18.8978 15.568 18.9006 15.5651 18.9047C15.5616 18.9099 15.5587 18.9161 15.5542 18.921C15.5368 18.9425 15.5158 18.9607 15.4964 18.9804C15.4839 18.9926 15.4729 19.0066 15.4591 19.018L15.4585 19.0186C15.4571 19.02 15.4556 19.0207 15.4542 19.0214C15.4272 19.0435 15.3974 19.0626 15.3677 19.0808C15.3595 19.086 15.3531 19.0916 15.3453 19.0964C15.3393 19.0992 15.3336 19.1011 15.3275 19.1044C15.3131 19.1119 15.2977 19.1171 15.2825 19.1233C15.25 19.1375 15.2165 19.1503 15.1817 19.1593C15.1625 19.1645 15.1431 19.1686 15.1236 19.172C15.1069 19.1752 15.0909 19.1808 15.0736 19.1827C15.0459 19.1855 15.0182 19.1869 14.9911 19.1869C14.9904 19.1869 14.9898 19.1869 14.9898 19.1869H14.989C14.944 19.1869 14.8996 19.1827 14.8567 19.175C14.8308 19.1698 14.8051 19.1615 14.7796 19.1535H14.779C14.7732 19.1522 14.7673 19.1528 14.7616 19.1507L13.1095 18.6127C13.0776 18.6759 13.0499 18.7402 13.0151 18.8024C12.1034 20.4119 10.3644 21.4112 8.47522 21.4112C7.60652 21.4112 6.74298 21.1935 5.97784 20.7838C3.47696 19.4405 2.56384 16.3665 3.94356 13.9311C4.855 12.3218 6.59439 11.3223 8.48313 11.3223C9.35017 11.3235 10.2136 11.5401 10.9787 11.9514Z" fill="#0A4D83"/>
</svg>
